<svg id="Capa_1" enable-background="new 0 0 512 512" height="512" viewBox="0 0 512 512" width="512" xmlns="http://www.w3.org/2000/svg"><g><g><path d="m256 512c-22.758 0-41.207-18.449-41.207-41.207v-123.622h82.414v123.622c0 22.758-18.449 41.207-41.207 41.207z" fill="#ffd3a3"/></g><g><path d="m256 470.793v-27.815h41.207v-95.807h-82.414v123.622c0 22.758 18.449 41.207 41.207 41.207 7.508 0 14.541-2.018 20.604-5.526-12.314-7.126-20.604-20.431-20.604-35.681z" fill="#ffbe74"/></g><g><path d="m111.775 274.715 144.225 20.604 144.225-20.604-20.603-137.358-123.622-20.603-123.622 20.603z" fill="#fffddb"/></g><g><path d="m221.095 122.571-88.717 14.786-20.603 137.358 84.684 12.098z" fill="#fff3ac"/></g><g><path d="m137.7 101.878-5.322 35.479h247.243l-5.322-35.479c-8.783-58.558-59.086-101.878-118.299-101.878-59.213 0-109.516 43.32-118.3 101.878z" fill="#ff7591"/></g><g><path d="m108.916 293.773c-9.343 62.285 38.896 118.3 101.878 118.3h90.411c62.982 0 111.221-56.015 101.878-118.3l-2.859-19.058h-288.449z" fill="#be9edf"/></g><g><circle cx="342.535" cy="320.97" fill="#938ed9" r="20.604"/></g><g><circle cx="281.755" cy="355.963" fill="#938ed9" r="15.453"/></g><g><path d="m195.415 293.773 2.859-19.058h-86.499l-2.859 19.058c-9.343 62.285 38.896 118.3 101.878 118.3h86.499c-62.982-.001-111.221-56.015-101.878-118.3z" fill="#938ed9"/></g><g><path d="m224.199 101.878c6.531-43.539 36.018-78.648 75.05-93.797-13.464-5.225-28.062-8.081-43.249-8.081-59.213 0-109.516 43.32-118.3 101.878l-5.322 35.479h86.499z" fill="#fd5c70"/></g><g><circle cx="237.579" cy="89.282" fill="#fd5c70" r="20.604"/></g><g><g><g><ellipse cx="173.557" cy="208.946" fill="#ffa0ab" rx="24.225" ry="30.42" transform="matrix(.002 -1 1 .002 -35.77 382.045)"/></g><g><ellipse cx="338.443" cy="209.307" fill="#ffa0ab" rx="24.225" ry="30.42" transform="matrix(.002 -1 1 .002 128.396 547.292)"/></g></g><g><path d="m191.578 198.402c-4.143 0-7.5-3.358-7.5-7.5v-12.362c0-4.142 3.357-7.5 7.5-7.5s7.5 3.358 7.5 7.5v12.362c0 4.142-3.357 7.5-7.5 7.5z" fill="#423e4f"/></g><g><path d="m320.244 198.402c-4.143 0-7.5-3.358-7.5-7.5v-12.362c0-4.142 3.357-7.5 7.5-7.5s7.5 3.358 7.5 7.5v12.362c0 4.142-3.357 7.5-7.5 7.5z" fill="#423e4f"/></g><path d="m285.883 190.773c-4.143 0-7.5 3.358-7.5 7.5 0 4.076-3.316 7.392-7.393 7.392s-7.392-3.316-7.392-7.392c0-4.142-3.357-7.5-7.5-7.5s-7.5 3.358-7.5 7.5c0 4.076-3.315 7.392-7.392 7.392s-7.392-3.316-7.392-7.392c0-4.142-3.357-7.5-7.5-7.5s-7.5 3.358-7.5 7.5c0 12.347 10.045 22.392 22.392 22.392 5.713 0 10.931-2.154 14.892-5.689 3.96 3.535 9.178 5.689 14.892 5.689 12.348 0 22.393-10.045 22.393-22.392 0-4.142-3.358-7.5-7.5-7.5z" fill="#423e4f"/></g></g></svg>