<svg id="Capa_1" enable-background="new 0 0 512 512" height="512" viewBox="0 0 512 512" width="512" xmlns="http://www.w3.org/2000/svg"><g><g><path d="m486.152 296.783-45.578-18.308-39.318-22.475 15.166-32.04-7.395-16.692c-6.603-14.905-21.373-24.515-37.675-24.515h-76.204v215.927l216.852-30.905v-32.754c0-16.828-10.232-31.966-25.848-38.238z" fill="#be9edf"/></g><g><path d="m416.422 223.96h-21.905c-15.054 0-27.257 12.203-27.257 27.257 0 15.054 12.203 27.257 27.257 27.257h46.057z" fill="#84dfff"/></g><g><path d="m357.473 182.753h-61.811v215.927l61.811-8.809z" fill="#938ed9"/></g><g><path d="m293.516 14.604-8.137-6.975c-12.572-10.776-31.321-10.056-43.029 1.653l-6.663 6.663 13.589 13.589c12.375 12.375 32.439 12.375 44.814 0 4.192-4.195 3.928-11.071-.574-14.93z" fill="#e7886e"/></g><g><path d="m277.782 43.631-38.765-33.227c-8.079-6.924-20.126-6.462-27.65 1.062l-12.971 12.971 64.792 64.792 15.74-15.74c8.388-8.386 7.86-22.139-1.146-29.858z" fill="#dc6646"/></g><g><path d="m269.733 36.732-30.716-26.328c-8.079-6.924-20.126-6.462-27.65 1.062l-12.971 12.971 28.797 28.797 15.193-15.193c7.431-7.431 19.273-7.969 27.347-1.309z" fill="#d85536"/></g><g><path d="m159.722 34.316 11.864-11.864c7.524-7.524 19.571-7.986 27.65-1.062l69.776 59.808c9.006 7.719 9.534 21.471 1.147 29.858l-16.848 16.848z" fill="#e7886e"/></g><g><path d="m229.238 47.107-30.003-25.717c-8.078-6.924-20.126-6.462-27.65 1.062l-11.864 11.864 28.797 28.797 14.113-14.113c7.207-7.208 18.563-7.931 26.607-1.893z" fill="#dc6646"/></g><g><path d="m99.341 188.285c-8.55-8.55-10.492-21.689-4.782-32.347l65.162-121.622 93.589 93.589-121.622 65.162c-10.658 5.71-23.797 3.767-32.347-4.782z" fill="#ffd3a3"/></g><g><path d="m190.38 64.974-30.658-30.658-65.163 121.622c-5.71 10.658-3.768 23.797 4.782 32.347 5.594 5.594 13.152 8.338 20.695 7.982z" fill="#ffbe74"/></g><g><path d="m264.109 146.203c-1.919 0-3.839-.732-5.304-2.196l-115.186-115.187c-2.929-2.93-2.929-7.678 0-10.607 2.93-2.928 7.678-2.928 10.607 0l115.187 115.187c2.929 2.93 2.929 7.678 0 10.607-1.465 1.464-3.385 2.196-5.304 2.196z" fill="#f4a960"/></g><g><path d="m326.567 398.68-326.567-30.905v-195.735c0-22.758 18.449-41.207 41.207-41.207h244.153c22.758 0 41.207 18.449 41.207 41.207z" fill="#fbf081"/></g><g><path d="m113.32 172.04c0-22.758 18.449-41.207 41.207-41.207h-113.32c-22.758 0-41.207 18.449-41.207 41.207v195.734l113.32 10.724z" fill="#fad271"/></g><g><path d="m259.891 277.31c-18.672 0-27.012-6.712-38.555-16.002-12.663-10.192-28.423-22.875-58.056-22.875-29.632 0-45.391 12.684-58.054 22.875-11.542 9.29-19.882 16.002-38.553 16.002s-27.011-6.712-38.554-16.002c-7.525-6.057-16.145-12.993-28.119-17.625v124.091l326.567 30.905v-154.996c-11.975 4.632-20.595 11.568-28.12 17.625-11.543 9.29-19.883 16.002-38.556 16.002z" fill="#84dfff"/></g><g><path d="m113.32 254.99c-2.88 2.125-5.551 4.271-8.094 6.318-11.542 9.29-19.882 16.002-38.553 16.002s-27.011-6.712-38.554-16.002c-7.525-6.057-16.145-12.993-28.119-17.625v124.091l113.32 10.724z" fill="#2fcffc"/></g><g><path d="m470.793 439.887h-429.586c-22.758 0-41.207-18.449-41.207-41.207v-30.905h512v30.905c0 22.758-18.449 41.207-41.207 41.207z" fill="#7a7acc"/></g><g><path d="m237.457 207.528h-148.346v91.74c0 11.379 9.225 20.604 20.604 20.604h107.139c11.379 0 20.604-9.225 20.604-20.604v-91.74z" fill="#2fcffc"/></g><g><path d="m99.359 178.736h33.02v28.791c0 17.069-13.837 30.905-30.905 30.905-17.069 0-30.905-13.837-30.905-30.905-.002-15.9 12.889-28.791 28.79-28.791z" fill="#be9edf"/></g><g><path d="m132.378 178.736h61.811v28.791c0 17.069-13.837 30.905-30.905 30.905-17.069 0-30.905-13.837-30.905-30.905v-28.791z" fill="#fad271"/></g><g><path d="m194.189 178.736h33.02c15.901 0 28.791 12.89 28.791 28.791 0 17.069-13.837 30.905-30.905 30.905-17.069 0-30.905-13.837-30.905-30.905v-28.791z" fill="#be9edf"/></g><g><circle cx="113.32" cy="439.887" fill="#899bb0" r="72.113"/></g><g><path d="m92.716 491.396c0-11.379 9.225-20.604 20.604-20.604v-61.811c-11.379 0-20.604-9.225-20.604-20.604s9.225-20.604 20.604-20.604c-39.827 0-72.113 32.286-72.113 72.113s32.286 72.113 72.113 72.113c-11.379.001-20.604-9.224-20.604-20.603z" fill="#6c8199"/></g><g><circle cx="113.32" cy="439.887" fill="#6c8199" r="30.905"/></g><g><circle cx="398.68" cy="439.887" fill="#899bb0" r="72.113"/></g><g><path d="m378.076 491.396c0-11.379 9.225-20.604 20.604-20.604v-61.811c-11.379 0-20.604-9.225-20.604-20.604s9.225-20.604 20.604-20.604c-39.827 0-72.113 32.286-72.113 72.113s32.286 72.113 72.113 72.113c-11.379.001-20.604-9.224-20.604-20.603z" fill="#6c8199"/></g><g><circle cx="398.68" cy="439.887" fill="#6c8199" r="30.905"/></g></g></svg>