<svg id="Capa_1" enable-background="new 0 0 512 512" height="512" viewBox="0 0 512 512" width="512" xmlns="http://www.w3.org/2000/svg"><g><g><path d="m183.889 410.226-10.302 62.964 10.302 38.81h144.225l10.302-38.81-10.302-62.964c-20.361-14.453-45.243-22.955-72.113-22.955s-51.751 8.502-72.112 22.955z" fill="#84dfff"/></g><g><path d="m282.276 390.067c-8.473-1.818-17.258-2.797-26.275-2.797-26.87 0-51.752 8.502-72.113 22.955l-10.302 62.964 10.303 38.811c0-59.848 42.154-109.841 98.387-121.933z" fill="#2fcffc"/></g><g><path d="m225.096 428.684v34.204c0 5.69 4.612 10.302 10.302 10.302h41.207c5.69 0 10.302-4.612 10.302-10.302v-34.204z" fill="#be9edf"/></g><g><path d="m286.907 391.174c-9.885-2.536-20.237-3.903-30.905-3.903-10.665 0-21.018 1.356-30.905 3.891v37.522c7.664 8.358 18.672 13.6 30.905 13.6 12.234 0 23.241-5.242 30.905-13.6z" fill="#ffcabd"/></g><g><path d="m256.002 387.271c-10.665 0-21.018 1.356-30.905 3.891v28.207c15.876-14.324 35.454-24.62 57.124-29.29-8.456-1.825-17.223-2.808-26.219-2.808z" fill="#f7baad"/></g><g><circle cx="405.509" cy="250.984" fill="#ffcabd" r="37.17"/></g><g><circle cx="106.491" cy="250.984" fill="#f7baad" r="37.17"/></g><g><circle cx="256.002" cy="250.981" fill="#ffdcce" r="149.376"/></g><g><path d="m158.134 250.981c0-73.715 53.398-134.952 123.622-147.157-8.367-1.454-16.971-2.219-25.755-2.219-82.498 0-149.376 66.878-149.376 149.376s66.878 149.376 149.376 149.376c8.783 0 17.387-.765 25.755-2.219-70.224-12.205-123.622-73.442-123.622-147.157z" fill="#ffcabd"/></g><g><path d="m256 0c-91.034 0-164.831 73.797-164.831 164.83v28.689c0 11.379 9.225 20.604 20.604 20.604h288.454c11.379 0 20.604-9.225 20.604-20.604v-28.689c0-91.033-73.797-164.83-164.831-164.83z" fill="#fbf081"/></g><g><path d="m356.496 145.997c-80.545 0-147.586-57.776-161.967-134.142-60.585 24.368-103.36 83.673-103.36 152.975v28.689c0 11.379 9.225 20.604 20.604 20.604h288.454c11.379 0 20.604-9.225 20.604-20.604v-28.689c0-10.488-.991-20.744-2.864-30.688-18.997 7.641-39.741 11.855-61.471 11.855z" fill="#fad271"/></g><g><path d="m256 0c-35.531 0-64.335 28.804-64.335 64.335v149.788h128.67v-149.788c0-35.531-28.804-64.335-64.335-64.335z" fill="#be9edf"/></g><g><path d="m199.927 32.805c-5.252 9.319-8.262 20.07-8.262 31.53v149.788h128.67v-72.115c-56.741-12.702-102.427-54.653-120.408-109.203z" fill="#938ed9"/></g><g><g><g><ellipse cx="174.044" cy="301.454" fill="#ffa5bb" rx="30.241" ry="24.082"/></g><g><ellipse cx="337.959" cy="301.454" fill="#ffa5bb" rx="30.241" ry="24.082"/></g></g><g><path d="m191.669 285.771c-4.143 0-7.5-3.357-7.5-7.5v-12.362c0-4.143 3.357-7.5 7.5-7.5s7.5 3.357 7.5 7.5v12.362c0 4.143-3.358 7.5-7.5 7.5z" fill="#423e4f"/></g><g><path d="m320.335 285.771c-4.143 0-7.5-3.357-7.5-7.5v-12.362c0-4.143 3.357-7.5 7.5-7.5s7.5 3.357 7.5 7.5v12.362c0 4.143-3.358 7.5-7.5 7.5z" fill="#423e4f"/></g><g><path d="m256.002 293.13c-8.669 0-16.911-3.754-22.615-10.299-2.722-3.123-2.396-7.86.727-10.582 3.122-2.721 7.859-2.396 10.582.727 2.854 3.275 6.976 5.154 11.307 5.154s8.452-1.879 11.307-5.154c2.723-3.123 7.457-3.448 10.582-.727 3.122 2.722 3.448 7.459.727 10.582-5.706 6.545-13.948 10.299-22.617 10.299z" fill="#423e4f"/></g></g><g><path d="m328.114 410.226v101.774h29.974c12.945 0 22.765-11.815 20.235-24.511-6.329-31.766-24.728-59.176-50.209-77.263z" fill="#be9edf"/></g><g><path d="m183.889 410.226v101.774h-29.974c-12.945 0-22.765-11.815-20.235-24.511 6.33-31.766 24.728-59.176 50.209-77.263z" fill="#938ed9"/></g><g><path d="m132.38 207.81v.071c0 9.934 7.077 18.47 16.848 20.265 29.214 5.368 65.075 9.423 106.773 9.423s77.56-4.055 106.774-9.423c9.771-1.795 16.848-10.331 16.848-20.265 0-12.895-11.7-22.588-24.383-20.259-26.938 4.947-60.288 8.74-99.239 8.74-38.824 0-72.212-3.827-99.227-8.808-12.686-2.339-24.394 7.356-24.394 20.256z" fill="#84dfff"/></g><g><path d="m234.883 216.966c0-10.123 7.127-18.574 16.635-20.631-36.909-.282-68.778-3.993-94.744-8.781-12.686-2.339-24.394 7.356-24.394 20.256v.071c0 9.934 7.077 18.47 16.848 20.265 28.107 5.164 62.382 9.102 102.073 9.394-9.398-2.139-16.418-10.529-16.418-20.574z" fill="#2fcffc"/></g></g></svg>