<svg id="Capa_1" enable-background="new 0 0 512 512" height="512" viewBox="0 0 512 512" width="512" xmlns="http://www.w3.org/2000/svg"><g><g><path d="m264.757 286.905h-111.775l29.36-41.207h82.415z" fill="#0fbfe8"/></g><g><path d="m164.052 309.576-141.135 15.947c-12.218 1.381-22.917-8.178-22.917-20.473v-38.748c0-11.379 9.225-20.604 20.604-20.604h161.738v43.404c0 10.484-7.873 19.297-18.29 20.474z" fill="#e7886e"/></g><g><path d="m41.207 300.929v-34.627c0-11.379 9.225-20.604 20.604-20.604h-41.207c-11.379 0-20.604 9.225-20.604 20.604v38.748c0 12.295 10.699 21.854 22.917 20.473l36.516-4.126c-10.139-1.164-18.226-9.78-18.226-20.468z" fill="#dc6646"/></g><g><path d="m491.396 282.852c0 68.274-55.347 123.622-123.622 123.622s-123.622-55.347-123.622-123.622v-37.154h247.243v37.154z" fill="#2fcffc"/></g><g><path d="m244.153 229.148c0-68.274 55.347-123.622 123.622-123.622s123.622 55.347 123.622 123.622v16.55h-247.244z" fill="#fffddb"/></g><g><path d="m398.68 109.421c-9.878-2.543-20.234-3.895-30.905-3.895-68.274 0-123.622 55.347-123.622 123.622v16.55h61.811v-16.55c0-57.602 39.397-106.003 92.716-119.727z" fill="#fff3ac"/></g><g><path d="m491.396 266.302h-247.243c-11.379 0-20.604-9.225-20.604-20.604 0-11.379 9.225-20.604 20.604-20.604h247.243c11.379 0 20.604 9.225 20.604 20.604 0 11.379-9.225 20.604-20.604 20.604z" fill="#84dfff"/></g><g><path d="m285.36 245.698c0-11.379 9.225-20.604 20.604-20.604h-61.811c-11.379 0-20.604 9.224-20.604 20.604 0 11.379 9.225 20.604 20.604 20.604h61.811c-11.379 0-20.604-9.225-20.604-20.604z" fill="#2fcffc"/></g><g><path d="m336.869 214.793v113.32c0 11.379 9.225 20.604 20.604 20.604 11.379 0 20.604-9.225 20.604-20.604v-41.207c0-11.379 9.225-20.604 20.604-20.604 11.379 0 20.604 9.225 20.604 20.604 0 11.379 9.225 20.604 20.604 20.604 11.379 0 20.604-9.225 20.604-20.604v-72.113z" fill="#fffddb"/></g><g fill="#423e4f"><path d="m308.592 150.626c-4.142 0-7.5 3.357-7.5 7.5v12.362c0 4.143 3.358 7.5 7.5 7.5s7.5-3.357 7.5-7.5v-12.362c0-4.143-3.358-7.5-7.5-7.5z"/><path d="m426.957 150.626c-4.142 0-7.5 3.357-7.5 7.5v12.362c0 4.143 3.358 7.5 7.5 7.5s7.5-3.357 7.5-7.5v-12.362c0-4.143-3.358-7.5-7.5-7.5z"/><path d="m397.746 170.359c-4.142 0-7.5 3.357-7.5 7.5 0 4.076-3.316 7.392-7.392 7.392s-7.392-3.315-7.392-7.392c0-4.143-3.358-7.5-7.5-7.5s-7.5 3.357-7.5 7.5c0 4.076-3.316 7.392-7.392 7.392s-7.392-3.315-7.392-7.392c0-4.143-3.358-7.5-7.5-7.5s-7.5 3.357-7.5 7.5c0 12.347 10.045 22.392 22.392 22.392 5.714 0 10.932-2.154 14.892-5.689 3.96 3.535 9.178 5.689 14.892 5.689 12.347 0 22.392-10.045 22.392-22.392 0-4.142-3.358-7.5-7.5-7.5z"/></g></g></svg>