<svg id="Capa_1" enable-background="new 0 0 512 512" height="512" viewBox="0 0 512 512" width="512" xmlns="http://www.w3.org/2000/svg"><g><g><path d="m374.545 259.125 12.937-217.99c1.324-22.313-16.414-41.135-38.766-41.135-22.352 0-40.09 18.822-38.766 41.135l12.937 217.99c.915 15.425-7.653 29.688-21.464 36.618-27.196 13.647-45.423 40.864-45.423 82.333 0 62.585 41.51 133.924 92.716 133.924s92.716-71.339 92.716-133.924c0-41.47-18.227-68.687-45.423-82.333-13.811-6.929-22.379-21.193-21.464-36.618z" fill="#be9edf"/></g><g><path d="m348.716 470.793c-9.148 0-21.053-9.517-31.072-24.838-12.606-19.277-20.437-45.287-20.437-67.878 0-17.801 4.633-31.067 13.77-39.43 10.909-9.984 26.544-12.079 37.739-12.079s26.831 2.096 37.739 12.079c9.137 8.362 13.77 21.629 13.77 39.43 0 22.592-7.831 48.602-20.437 67.878-10.018 15.321-21.924 24.838-31.072 24.838z" fill="#938ed9"/></g><g><path d="m369.153 445.955c-12.606-19.277-20.437-45.287-20.437-67.878 0-17.801 4.633-31.067 13.77-39.43 3.591-3.286 7.697-5.704 11.985-7.488-8.739-3.635-18.244-4.592-25.755-4.592-11.195 0-26.83 2.096-37.74 12.079-9.137 8.362-13.77 21.629-13.77 39.43 0 22.592 7.831 48.602 20.437 67.878 10.019 15.321 21.925 24.838 31.072 24.838 7.574 0 17.036-6.538 25.755-17.478-1.811-2.273-3.594-4.723-5.317-7.359z" fill="#7a7acc"/></g><g><path d="m137.455 252.875-12.937 217.99c-1.324 22.313 16.414 41.135 38.766 41.135 22.352 0 40.09-18.822 38.766-41.135l-12.937-217.99c-.915-15.425 7.653-29.688 21.464-36.618 27.196-13.647 45.423-40.864 45.423-82.333 0-62.585-41.51-133.924-92.716-133.924s-92.716 71.339-92.716 133.924c0 41.47 18.227 68.687 45.423 82.333 13.811 6.929 22.379 21.193 21.464 36.618z" fill="#50e3cf"/></g><g><path d="m163.284 41.207c9.148 0 21.053 9.517 31.072 24.838 12.606 19.277 20.437 45.287 20.437 67.878 0 17.801-4.633 31.067-13.77 39.43-10.909 9.984-26.544 12.079-37.739 12.079s-26.831-2.096-37.739-12.079c-9.137-8.362-13.77-21.629-13.77-39.43 0-22.592 7.831-48.602 20.437-67.878 10.018-15.321 21.924-24.838 31.072-24.838z" fill="#17d9bf"/></g><g><path d="m177.054 173.353c-9.137-8.362-13.77-21.629-13.77-39.43 0-22.592 7.831-48.602 20.437-67.878 1.724-2.636 3.506-5.087 5.318-7.36-8.719-10.94-18.18-17.478-25.754-17.478-9.148 0-21.054 9.517-31.072 24.838-12.606 19.277-20.437 45.287-20.437 67.878 0 17.801 4.633 31.067 13.77 39.43 10.908 9.984 26.544 12.079 37.739 12.079 7.51 0 17.015-.957 25.754-4.592-4.288-1.783-8.395-4.201-11.985-7.487z" fill="#0accab"/></g><g><path d="m137.748 250.705c-.082-.014-.164-.029-.246-.043-.001.736-.003 1.472-.047 2.214l-12.937 217.99c-1.324 22.312 16.414 41.134 38.766 41.134v-231.193c0-14.931-10.829-27.527-25.536-30.102z" fill="#17d9bf"/></g><g><path d="m323.181 261.295c-.082.014-.164.029-.246.043-.001-.736-.003-1.472-.047-2.214l-12.938-217.989c-1.324-22.313 16.414-41.135 38.766-41.135v231.193c.001 14.931-10.828 27.527-25.535 30.102z" fill="#938ed9"/></g></g></svg>