<svg id="Capa_1" enable-background="new 0 0 512 512" height="512" viewBox="0 0 512 512" width="512" xmlns="http://www.w3.org/2000/svg"><g><g><path d="m285.376.062-21.663 1.666c-33.468 2.574-59.311 30.482-59.311 64.048v19.101h38.958c35.477 0 64.238-28.76 64.238-64.238 0-12.021-10.235-21.499-22.222-20.577z" fill="#fffddb"/></g><g><path d="m304.432 56.544-103.195 7.938c-21.506 1.654-38.112 19.587-38.112 41.157v37.187h185.751v-45.125c0-24.045-20.47-43.001-44.444-41.157z" fill="#fff3ac"/></g><g><path d="m283.006 58.192-81.769 6.29c-21.506 1.654-38.112 19.587-38.112 41.157v37.187h82.556v-43.557c-.001-21.304 16.204-39.049 37.325-41.077z" fill="#f9e99b"/></g><g><path d="m121.846 204.743v-34.012c0-21.569 16.606-39.502 38.112-41.157l185.752-14.289c23.974-1.844 44.444 17.112 44.444 41.157v48.3h-268.308z" fill="#fffddb"/></g><g><path d="m239.829 123.431-79.871 6.144c-21.506 1.654-38.112 19.587-38.112 41.157v34.012h82.556v-40.461c0-20.662 15.242-37.976 35.427-40.852z" fill="#fff3ac"/></g><g><path d="m256 512c-24.001 0-44.666-16.941-49.373-40.476l-33.183-165.914h165.112l-33.183 165.914c-4.707 23.535-25.372 40.476-49.373 40.476z" fill="#ffd3a3"/></g><g><path d="m254.398 400.794c.534.005 1.067.02 1.602.02 23.572 0 45.996-4.984 66.3-13.924l16.256-81.281h-165.112l33.183 165.914c4.707 23.536 25.372 40.477 49.373 40.477 6.998 0 13.707-1.449 19.824-4.073z" fill="#ffbe74"/></g><g><path d="m390.154 235.702c0 74.091-60.063 134.154-134.154 134.154s-134.154-60.063-134.154-134.154v-30.959h268.308z" fill="#ffbe74"/></g><g><path d="m270.26 235.702v-30.959h-148.414v30.959c0 74.091 60.063 134.154 134.154 134.154 27.441 0 52.953-8.246 74.207-22.385-36.131-24.037-59.947-65.119-59.947-111.769z" fill="#f4a960"/></g><g><path d="m90.888 204.743c0-11.399 9.24-20.639 20.639-20.639h288.947c11.399 0 20.639 9.24 20.639 20.639 0 11.399-9.24 20.639-20.639 20.639h-288.947c-11.399 0-20.639-9.24-20.639-20.639z" fill="#ffd3a3"/></g><g><path d="m204.402 173.785v113.515c0 11.399 9.24 20.639 20.639 20.639 11.399 0 20.639-9.24 20.639-20.639v-41.278c0-11.399 9.24-20.639 20.639-20.639 11.399 0 20.639 9.24 20.639 20.639 0 11.399 9.24 20.639 20.639 20.639 11.399 0 20.639-9.24 20.639-20.639v-72.237z" fill="#fffddb"/></g><g><path d="m170.828 204.743c0-11.399 9.24-20.639 20.639-20.639h-79.94c-11.399 0-20.639 9.24-20.639 20.639 0 11.399 9.24 20.639 20.639 20.639h79.94c-11.399 0-20.639-9.24-20.639-20.639z" fill="#ffbe74"/></g></g></svg>