<svg id="Capa_1" enable-background="new 0 0 512 512" height="512" viewBox="0 0 512 512" width="512" xmlns="http://www.w3.org/2000/svg"><g><g><path d="m80.869 112.084h41.207v201.606h-41.207z" fill="#899bb0"/></g><g><path d="m101.473 233.851c-11.379 0-20.604-9.225-20.604-20.604v100.443h41.207v-100.443c0 11.38-9.224 20.604-20.603 20.604z" fill="#6c8199"/></g><g><path d="m389.924 112.084h41.207v201.606h-41.207z" fill="#899bb0"/></g><g><path d="m410.527 233.851c-11.379 0-20.604-9.225-20.604-20.604v100.443h41.207v-100.443c.001 11.38-9.224 20.604-20.603 20.604z" fill="#6c8199"/></g><g><path d="m389.924 275.058v10.302h-267.848v-10.302l25.211-50.421c3.49-6.98 10.624-11.389 18.428-11.389h180.569c7.804 0 14.938 4.409 18.428 11.389z" fill="#fffddb"/></g><g><path d="m192.741 224.637c3.49-6.98 10.624-11.389 18.428-11.389h-45.454c-7.804 0-14.938 4.409-18.428 11.389l-25.211 50.421v10.302h45.454v-10.302z" fill="#fff3ac"/></g><g><path d="m472.338 354.127v-37.861c0-22.758-18.449-41.207-41.207-41.207h-350.262c-22.758 0-41.207 18.449-41.207 41.207v37.861l41.207 75.458h350.262z" fill="#fbf081"/></g><g><path d="m39.662 316.266v37.861l41.207 75.458h45.454v-113.32c0-22.758 18.449-41.207 41.207-41.207h-86.661c-22.758 0-41.207 18.449-41.207 41.208z" fill="#fad271"/></g><g><path d="m472.338 354.127c-15.866 6.137-27.286 15.327-37.257 23.351-15.295 12.309-26.344 21.202-51.085 21.202-24.739 0-35.789-8.893-51.082-21.202-16.778-13.503-37.658-30.307-76.92-30.307-39.261 0-60.14 16.805-76.916 30.307-15.293 12.309-26.342 21.202-51.08 21.202s-35.788-8.893-51.08-21.202c-9.97-8.024-21.39-17.215-37.256-23.351v137.269h432.676z" fill="#84dfff"/></g><g><path d="m126.323 398.661c-23.565-.396-34.464-9.156-49.406-21.183-9.97-8.024-21.39-17.215-37.256-23.351v137.269h86.661v-92.735z" fill="#2fcffc"/></g><g><path d="m0 491.396c0-11.379 9.225-20.604 20.604-20.604h470.793c11.379 0 20.604 9.225 20.604 20.604 0 11.379-9.225 20.604-20.604 20.604h-470.793c-11.379 0-20.604-9.225-20.604-20.604z" fill="#be9edf"/></g><g><path d="m102.4 82.415h102.4v31.215c0 28.277-22.923 51.2-51.2 51.2-28.277 0-51.2-22.923-51.2-51.2z" fill="#fbf081"/></g><g><path d="m307.2 82.415h102.4v31.215c0 28.277-22.923 51.2-51.2 51.2-28.277 0-51.2-22.923-51.2-51.2z" fill="#fbf081"/></g><g><path d="m466.845 9.731c-3.759-6.051-10.377-9.731-17.501-9.731h-386.688c-7.124 0-13.742 3.68-17.501 9.731l-38.95 62.696c-4.056 6.528-6.205 14.06-6.205 21.745v19.457c0 28.277 22.923 51.2 51.2 51.2 28.277 0 51.2-22.923 51.2-51.2v-31.214h102.4v31.215c0 28.277 22.923 51.2 51.2 51.2 28.277 0 51.2-22.923 51.2-51.2v-31.215h102.4v31.215c0 28.277 22.923 51.2 51.2 51.2 28.277 0 51.2-22.923 51.2-51.2v-19.458c0-7.685-2.149-15.217-6.205-21.745z" fill="#be9edf"/></g><g><path d="m153.6 0h-90.944c-7.124 0-13.742 3.68-17.501 9.731l-38.95 62.696c-4.056 6.528-6.205 14.06-6.205 21.745v19.457c0 28.277 22.923 51.2 51.2 51.2 28.277 0 51.2-22.923 51.2-51.2v-31.215z" fill="#938ed9"/></g></g></svg>