<svg id="Capa_1" enable-background="new 0 0 512 512" height="512" viewBox="0 0 512 512" width="512" xmlns="http://www.w3.org/2000/svg"><g><g><path d="m408.503 368.175-137.687 137.688c-8.183 8.183-21.449 8.183-29.632 0l-137.687-137.688c-84.225-84.225-84.225-220.781 0-305.006 84.225-84.225 220.781-84.225 305.006 0 84.226 84.225 84.226 220.781 0 305.006z" fill="#be9edf"/></g><g><path d="m206.515 368.175c-84.225-84.225-84.225-220.781 0-305.006 28.91-28.91 63.986-47.895 100.994-56.958-70.81-17.342-148.697 1.643-204.012 56.958-84.225 84.225-84.225 220.781 0 305.006l137.688 137.688c8.183 8.183 21.449 8.183 29.632 0l36.693-36.693z" fill="#938ed9"/></g><g><path d="m82.32 232.205 28.425 43.818h145.255 145.255l28.425-43.818c.512-5.443.785-10.955.785-16.532 0-96.355-78.111-174.465-174.465-174.465s-174.465 78.11-174.465 174.464c0 5.577.273 11.09.785 16.533z" fill="#fbf081"/></g><g><path d="m151.931 276.022c-21.232-73.101-3.044-155.225 54.584-212.853 7.284-7.284 14.96-13.934 22.959-19.957-83.765 12.777-147.939 85.124-147.939 172.46 0 5.577.273 11.089.785 16.532l28.425 43.818z" fill="#fad271"/></g><g><path d="m400.971 250.52c-12.382 9.964-21.326 17.164-41.354 17.164-20.027 0-28.972-7.199-41.352-17.163-13.582-10.931-30.485-24.535-62.269-24.535-31.782 0-48.685 13.604-62.266 24.535-12.38 9.964-21.325 17.163-41.35 17.163-20.026 0-28.971-7.199-41.351-17.163-7.762-6.247-16.619-13.361-28.709-18.316 8.33 88.599 82.903 157.933 173.68 157.933 90.778 0 165.351-69.334 173.681-157.933-12.091 4.954-20.948 12.068-28.71 18.315z" fill="#84dfff"/></g><g><path d="m225.877 387.538-19.362-19.362c-28.792-28.792-47.735-63.701-56.842-100.543-18.148-.627-26.838-7.61-38.644-17.112-7.762-6.247-16.619-13.361-28.709-18.316 7.386 78.572 66.874 141.984 143.557 155.333z" fill="#2fcffc"/></g><g><path d="m270.737 83.418-10.868.836c-16.79 1.292-29.756 15.293-29.756 32.133v9.583h19.545c17.799 0 32.227-14.429 32.227-32.227.001-6.033-5.134-10.788-11.148-10.325z" fill="#e7886e"/></g><g><path d="m280.298 115.607-51.772 3.982c-10.789.83-19.121 9.827-19.121 20.648v18.656h93.19v-22.639c0-12.062-10.27-21.572-22.297-20.647z" fill="#dc6646"/></g><g><path d="m269.548 116.434-41.023 3.156c-10.789.83-19.121 9.827-19.121 20.648v18.656h41.418v-21.852c.001-10.688 8.13-19.591 18.726-20.608z" fill="#d85536"/></g><g><path d="m188.696 193.81v-17.063c0-10.821 8.331-19.818 19.121-20.648l93.19-7.168c12.028-.925 22.297 8.585 22.297 20.648v24.232h-134.608z" fill="#e7886e"/></g><g><path d="m247.887 153.017-40.071 3.082c-10.789.83-19.121 9.827-19.121 20.648v17.064h41.418v-20.299c.001-10.366 7.647-19.053 17.774-20.495z" fill="#dc6646"/></g><g><path d="m256 347.959c-12.297 0-23.143-8.052-26.701-19.823l-40.603-134.326h134.608l-40.603 134.325c-3.558 11.771-14.404 19.824-26.701 19.824z" fill="#ffd3a3"/></g><g><path d="m232.791 193.81h-44.095l40.603 134.325c3.558 11.771 14.404 19.823 26.701 19.823 8.045 0 15.454-3.462 20.623-9.142z" fill="#ffbe74"/></g><g><g><path d="m338.835 201.31h-49.85c-4.142 0-7.5-3.357-7.5-7.5s3.358-7.5 7.5-7.5h49.85c4.142 0 7.5 3.357 7.5 7.5s-3.357 7.5-7.5 7.5z" fill="#f4a960"/></g><g><path d="m258.08 201.31h-84.915c-4.142 0-7.5-3.357-7.5-7.5s3.358-7.5 7.5-7.5h84.915c4.142 0 7.5 3.357 7.5 7.5s-3.358 7.5-7.5 7.5z" fill="#f4a960"/></g></g></g></svg>