<svg id="Capa_1" enable-background="new 0 0 512 512" height="512" viewBox="0 0 512 512" width="512" xmlns="http://www.w3.org/2000/svg"><g><g><g><path d="m118.283 89.024c0 11.423-4.772 21.76-12.482 29.232-1.474 1.428-3.866 1.428-5.339 0-7.71-7.472-12.482-17.809-12.482-29.232s4.772-21.76 12.482-29.233c1.474-1.428 3.866-1.428 5.339 0 7.709 7.473 12.482 17.81 12.482 29.233z" fill="#17d9bf"/></g></g><g><g><path d="m51.601 155.705c11.423 0 21.76-4.772 29.232-12.482 1.428-1.474 1.428-3.866 0-5.339-7.472-7.71-17.809-12.482-29.232-12.482s-21.76 4.772-29.233 12.482c-1.428 1.474-1.428 3.866 0 5.339 7.473 7.71 17.81 12.482 29.233 12.482z" fill="#50e3cf"/></g></g><g><g><path d="m51.453 133.632c12.931 5.356 26.87 4.801 38.944-.423 2.308-.998 3.429-3.706 2.504-6.044-4.843-12.231-14.307-22.48-27.238-27.836s-26.87-4.801-38.944.423c-2.308.998-3.429 3.706-2.504 6.044 4.843 12.231 14.307 22.48 27.238 27.836z" fill="#17d9bf"/></g></g><g><path d="m96.21 88.875c5.356 12.931 4.801 26.87-.423 38.944-.998 2.308-3.706 3.429-6.044 2.504-12.231-4.843-22.48-14.307-27.836-27.238s-4.801-26.87.423-38.944c.998-2.308 3.706-3.429 6.044-2.504 12.23 4.843 22.48 14.307 27.836 27.238z" fill="#50e3cf"/></g><g><path d="m170.253 96.473c-44.02-18.073-85.283 25.92-85.283 25.92s-43.992 41.263-25.92 85.283 127.412 74.9 156.757 45.555-1.534-138.685-45.554-156.758z" fill="#ff7591"/></g><g><path d="m215.808 253.23c29.345-29.345-1.535-138.685-45.555-156.757-9.903-4.066-19.665-4.984-28.85-3.975-12.261 20.217-19.326 43.918-19.326 69.24 0 5.575.348 11.069 1.013 16.467-23.039 7.264-43.391 20.617-59.206 38.139 27.569 39.223 124.549 64.262 151.924 36.886z" fill="#fd5c70"/></g><g><circle cx="256" cy="161.738" fill="#fffddb" r="103.018"/></g><g><g><path d="m196.817 130.533c-4.142 0-7.5-3.358-7.5-7.5v-12.363c0-4.142 3.358-7.5 7.5-7.5s7.5 3.358 7.5 7.5v12.362c0 4.143-3.358 7.501-7.5 7.501z" fill="#423e4f"/></g><g><path d="m315.183 130.533c-4.142 0-7.5-3.358-7.5-7.5v-12.363c0-4.142 3.358-7.5 7.5-7.5s7.5 3.358 7.5 7.5v12.362c0 4.143-3.358 7.501-7.5 7.501z" fill="#423e4f"/></g><g><path d="m256 137.892c-8.668 0-16.911-3.754-22.615-10.3-2.721-3.123-2.396-7.86.727-10.582 3.123-2.721 7.86-2.396 10.582.727 2.854 3.275 6.976 5.154 11.307 5.154s8.452-1.879 11.308-5.155c2.721-3.123 7.458-3.448 10.582-.726 3.123 2.721 3.448 7.459.726 10.582-5.706 6.546-13.949 10.3-22.617 10.3z" fill="#423e4f"/></g></g><g><path d="m348.716 172.04c-35.951 0-68.635 14.243-92.716 37.378-24.081-23.135-56.765-37.378-92.716-37.378-3.281 0-6.533.124-9.756.357 5.334 51.887 49.176 92.359 102.472 92.359s97.138-40.472 102.472-92.359c-3.223-.233-6.475-.357-9.756-.357z" fill="#fff3ac"/></g><g><path d="m320.285 398.048-38.071-15.769c-10.513-4.355-15.505-16.407-11.151-26.92l141.924-342.635c4.355-10.513 16.407-15.505 26.92-11.151l38.071 15.769c10.513 4.355 15.505 16.407 11.151 26.92l-141.924 342.636c-4.355 10.513-16.408 15.505-26.92 11.15z" fill="#ffd3a3"/></g><g><path d="m309.134 371.128 141.924-342.634c4.355-10.513 16.407-15.505 26.92-11.151l-38.071-15.769c-10.513-4.355-22.565.638-26.92 11.151l-141.924 342.634c-4.355 10.513.638 22.565 11.151 26.92l38.071 15.769c-10.513-4.354-15.506-16.407-11.151-26.92z" fill="#ffbe74"/></g><g><path d="m370.427 82.463h82.414v82.414h-82.414z" fill="#e7886e" transform="matrix(.383 -.924 .924 .383 139.853 456.644)"/></g><g><path d="m351.392 95.182h82.414v41.207h-82.414z" fill="#dc6646" transform="matrix(.383 -.924 .924 .383 135.386 434.191)"/></g><g><circle cx="348.716" cy="305.964" fill="#fbf081" r="103.018"/></g><g><path d="m245.698 305.964c0 28.367 11.467 54.054 30.017 72.684 13.589-20.948 21.492-45.909 21.492-72.684s-7.903-51.737-21.492-72.684c-18.55 18.629-30.017 44.317-30.017 72.684z" fill="#fad271"/></g><g><circle cx="163.284" cy="305.964" fill="#e7886e" r="103.018"/></g><g><path d="m111.959 305.964c0-47.969 32.786-88.279 77.171-99.748-8.26-2.134-16.92-3.271-25.847-3.271-56.895 0-103.018 46.123-103.018 103.018s46.123 103.018 103.018 103.018c8.926 0 17.587-1.136 25.847-3.271-44.385-11.467-77.171-51.777-77.171-99.746z" fill="#dc6646"/></g><g><g><path d="m104.249 274.631c-.002 0-.004 0-.006 0-4.142-.003-7.497-3.364-7.494-7.506l.009-12.235c.003-4.14 3.36-7.494 7.5-7.494h.006c4.142.003 7.497 3.364 7.494 7.506l-.009 12.235c-.003 4.14-3.361 7.494-7.5 7.494z" fill="#423e4f"/></g><g><path d="m222.31 274.758c-.002 0-.003 0-.006 0-4.142-.003-7.497-3.364-7.494-7.506l.009-12.235c.003-4.14 3.36-7.494 7.5-7.494h.006c4.142.003 7.497 3.364 7.494 7.506l-.009 12.235c-.003 4.14-3.361 7.494-7.5 7.494z" fill="#423e4f"/></g><g><path d="m180.466 280.141c-.002 0-.004 0-.006 0l-34.385-.03c-4.142-.003-7.497-3.364-7.494-7.506.003-4.14 3.361-7.494 7.5-7.494h.006l34.385.03c4.142.003 7.497 3.364 7.494 7.506-.003 4.141-3.361 7.494-7.5 7.494z" fill="#423e4f"/></g></g><g><path d="m39.662 367.775c0 79.653 96.858 144.225 216.338 144.225s216.338-64.572 216.338-144.225z" fill="#6c8199"/></g><g><path d="m0 367.775c0-11.379 9.225-20.604 20.604-20.604h470.793c11.379 0 20.604 9.225 20.604 20.604 0 11.379-9.225 20.604-20.604 20.604h-470.793c-11.379-.001-20.604-9.225-20.604-20.604z" fill="#899bb0"/></g><g><path d="m99.928 367.775c0-11.379 9.225-20.604 20.604-20.604h-99.928c-11.379 0-20.604 9.225-20.604 20.604 0 11.379 9.225 20.604 20.604 20.604h99.928c-11.38-.001-20.604-9.225-20.604-20.604z" fill="#6c8199"/></g><g><path d="m296.661 336.869v113.32c0 11.379 9.225 20.604 20.604 20.604 11.379 0 20.604-9.225 20.604-20.604v-41.207c0-11.379 9.225-20.604 20.604-20.604 11.379 0 20.604 9.225 20.604 20.604 0 11.379 9.225 20.604 20.604 20.604 11.379 0 20.604-9.225 20.604-20.604v-72.113z" fill="#fbf081"/></g><g fill="#423e4f"><path d="m289.534 247.396c-4.142 0-7.5 3.358-7.5 7.5v12.362c0 4.142 3.358 7.5 7.5 7.5s7.5-3.358 7.5-7.5v-12.362c0-4.142-3.358-7.5-7.5-7.5z"/><path d="m407.899 247.396c-4.142 0-7.5 3.358-7.5 7.5v12.362c0 4.142 3.358 7.5 7.5 7.5s7.5-3.358 7.5-7.5v-12.362c0-4.142-3.358-7.5-7.5-7.5z"/><path d="m378.688 267.129c-4.142 0-7.5 3.358-7.5 7.5 0 4.076-3.316 7.392-7.392 7.392s-7.392-3.316-7.392-7.392c0-4.142-3.358-7.5-7.5-7.5s-7.5 3.358-7.5 7.5c0 4.076-3.316 7.392-7.392 7.392s-7.392-3.316-7.392-7.392c0-4.142-3.358-7.5-7.5-7.5s-7.5 3.358-7.5 7.5c0 12.347 10.045 22.392 22.392 22.392 5.713 0 10.931-2.154 14.892-5.689 3.96 3.535 9.178 5.689 14.892 5.689 12.347 0 22.392-10.045 22.392-22.392 0-4.142-3.358-7.5-7.5-7.5z"/></g></g></svg>