<svg id="Capa_1" enable-background="new 0 0 512 512" height="512" viewBox="0 0 512 512" width="512" xmlns="http://www.w3.org/2000/svg"><g><g><path d="m472.338 285.36c-12.029 0-21.689-10.137-20.854-22.136.175-2.518.259-5.06.25-7.625-.214-56.027-45.858-102.008-101.882-102.611-57.416-.618-104.154 45.739-104.154 103.012 0 2.42.084 4.82.249 7.198.832 12.01-8.813 22.163-20.852 22.163-17.069 0-30.905 13.837-30.905 30.905 0 17.069 13.837 30.905 30.905 30.905h247.243c17.069 0 30.905-13.837 30.905-30.905 0-17.069-13.836-30.906-30.905-30.906z" fill="#e7886e"/></g><g><path d="m348.716 316.266c0-30.573-22.315-56.034-51.511-60.953-.135-26.41-8.065-51.107-21.587-71.894-18.491 18.622-29.92 44.265-29.92 72.581 0 2.42.084 4.82.248 7.198.832 12.01-8.813 22.162-20.852 22.162-17.069 0-30.905 13.837-30.905 30.905 0 17.069 13.837 30.905 30.905 30.905h115.306c5.278-9.098 8.316-19.65 8.316-30.904z" fill="#dc6646"/></g><g><path d="m286.905 285.36c-12.029 0-21.689-10.137-20.854-22.136.175-2.518.259-5.06.25-7.625-.214-56.027-45.858-102.008-101.882-102.611-57.416-.618-104.153 45.739-104.153 103.012 0 2.42.084 4.82.249 7.198.832 12.01-8.813 22.163-20.852 22.163-17.069 0-30.905 13.837-30.905 30.905 0 17.069 13.837 30.905 30.905 30.905h247.243c17.069 0 30.905-13.837 30.905-30.905 0-17.069-13.837-30.906-30.906-30.906z" fill="#fffddb"/></g><g><path d="m91.171 316.266c0-17.069 13.837-30.905 30.905-30.905 12.039 0 21.684-10.152 20.852-22.162-.165-2.378-.249-4.778-.249-7.198 0-42.207 25.384-78.481 61.717-94.4-12.283-5.395-25.797-8.459-39.978-8.612-57.415-.619-104.152 45.738-104.152 103.011 0 2.42.084 4.82.249 7.198.832 12.01-8.813 22.162-20.852 22.162-17.069 0-30.905 13.837-30.905 30.905 0 17.069 13.837 30.905 30.905 30.905h82.414c-17.069.001-30.906-13.836-30.906-30.904z" fill="#fff3ac"/></g><g><g><path d="m289.682 224.667c-.002 0-.003 0-.006 0-4.142-.003-7.497-3.363-7.494-7.505l.009-12.235c.003-4.14 3.36-7.495 7.5-7.495h.006c4.142.003 7.497 3.363 7.494 7.505l-.009 12.235c-.003 4.141-3.361 7.495-7.5 7.495z" fill="#423e4f"/></g><g><path d="m407.742 224.794c-.002 0-.003 0-.006 0-4.142-.003-7.497-3.363-7.494-7.505l.009-12.235c.003-4.14 3.36-7.495 7.5-7.495h.006c4.142.003 7.497 3.363 7.494 7.505l-.009 12.235c-.003 4.141-3.36 7.495-7.5 7.495z" fill="#423e4f"/></g><g><path d="m365.899 230.177c-.002 0-.004 0-.007 0l-34.386-.03c-4.142-.003-7.497-3.364-7.493-7.506.004-4.14 3.361-7.494 7.5-7.494h.007l34.386.03c4.142.003 7.497 3.364 7.493 7.506-.003 4.141-3.361 7.494-7.5 7.494z" fill="#423e4f"/></g></g><g><g><path d="m104.102 224.794c-4.143 0-7.5-3.358-7.5-7.5v-12.362c0-4.142 3.357-7.5 7.5-7.5s7.5 3.358 7.5 7.5v12.362c0 4.143-3.358 7.5-7.5 7.5z" fill="#423e4f"/></g><g><path d="m222.466 224.794c-4.143 0-7.5-3.358-7.5-7.5v-12.362c0-4.142 3.357-7.5 7.5-7.5s7.5 3.358 7.5 7.5v12.362c0 4.143-3.358 7.5-7.5 7.5z" fill="#423e4f"/></g><g><path d="m163.283 232.153c-8.668 0-16.911-3.754-22.615-10.3-2.722-3.123-2.396-7.86.727-10.582 3.121-2.721 7.859-2.397 10.582.727 2.854 3.275 6.976 5.154 11.307 5.154 4.332 0 8.453-1.879 11.308-5.154 2.722-3.124 7.457-3.448 10.582-.727 3.122 2.721 3.448 7.459.727 10.582-5.706 6.546-13.949 10.3-22.618 10.3z" fill="#423e4f"/></g></g><g><path d="m470.793 429.586h-429.586c-22.758 0-41.207-18.45-41.207-41.208 0-22.758 18.449-41.207 41.207-41.207h429.586c22.758 0 41.207 18.449 41.207 41.207 0 22.758-18.449 41.208-41.207 41.208z" fill="#ffbe74"/></g><g><path d="m470.793 512h-429.586c-22.758 0-41.207-18.449-41.207-41.207 0-22.758 18.449-41.207 41.207-41.207h429.586c22.758 0 41.207 18.449 41.207 41.207 0 22.758-18.449 41.207-41.207 41.207z" fill="#ffd3a3"/></g><g><path d="m197.623 470.793c0-22.758 18.449-41.207 41.207-41.207h-197.623c-22.758 0-41.207 18.449-41.207 41.207 0 22.758 18.449 41.207 41.207 41.207h197.623c-22.758 0-41.207-18.449-41.207-41.207z" fill="#ffbe74"/></g><g><path d="m470.793 164.829h-429.586c-22.758 0-41.207-18.449-41.207-41.207 0-22.758 18.449-41.207 41.207-41.207h429.586c22.758 0 41.207 18.449 41.207 41.207 0 22.758-18.449 41.207-41.207 41.207z" fill="#ffbe74"/></g><g><path d="m470.793 82.414h-429.586c-22.758 0-41.207-18.449-41.207-41.207 0-22.758 18.449-41.207 41.207-41.207h429.586c22.758 0 41.207 18.449 41.207 41.207 0 22.758-18.449 41.207-41.207 41.207z" fill="#ffd3a3"/></g><g><path d="m197.623 41.207c0-22.758 18.449-41.207 41.207-41.207h-197.623c-22.758 0-41.207 18.449-41.207 41.207 0 22.758 18.449 41.207 41.207 41.207h197.623c-22.758 0-41.207-18.449-41.207-41.207z" fill="#ffbe74"/></g><g><path d="m469.558 336.869v113.32c0 11.379-9.225 20.604-20.604 20.604-11.379 0-20.604-9.225-20.604-20.604v-41.207c0-11.379-9.225-20.604-20.604-20.604-11.379 0-20.604 9.225-20.604 20.604 0 11.379-9.225 20.604-20.604 20.604-11.379 0-20.604-9.225-20.604-20.604v-72.113z" fill="#e7886e"/></g><g><path d="m259.434 336.869v113.32c0 11.379-9.225 20.604-20.604 20.604-11.379 0-20.604-9.225-20.604-20.604v-41.207c0-11.379-9.225-20.604-20.604-20.604-11.379 0-20.604 9.225-20.604 20.604v82.415c0 11.379-9.225 20.604-20.604 20.604-11.379 0-20.604-9.225-20.604-20.604v-154.528z" fill="#fffddb"/></g><g><circle cx="365.899" cy="470.793" fill="#ffbe74" r="20.604"/></g><g><circle cx="163.284" cy="123.622" fill="#f4a960" r="20.604"/></g><g><circle cx="306.664" cy="41.207" fill="#ffbe74" r="20.604"/></g><g><circle cx="305.134" cy="388.378" fill="#f4a960" r="15.453"/></g><g><circle cx="63.041" cy="470.793" fill="#f4a960" r="15.453"/></g><g><circle cx="388.396" cy="123.622" fill="#f4a960" r="15.453"/></g></g></svg>