<svg id="Capa_1" enable-background="new 0 0 512 512" height="512" viewBox="0 0 512 512" width="512" xmlns="http://www.w3.org/2000/svg"><g><g><path d="m389.924 460.491c0-73.964-59.96-133.924-133.924-133.924s-133.924 59.96-133.924 133.924v30.905h267.847v-30.905z" fill="#ffbe74"/></g><g><path d="m270.236 460.491v30.906h-148.16v-30.906c0-73.964 59.96-133.924 133.924-133.924 27.394 0 52.862 8.232 74.079 22.347-36.069 23.995-59.843 65.007-59.843 111.577z" fill="#f4a960"/></g><g><path d="m91.171 491.396c0 11.379 9.225 20.604 20.604 20.604h288.451c11.379 0 20.604-9.225 20.604-20.604 0-11.379-9.225-20.604-20.604-20.604h-288.451c-11.379.001-20.604 9.225-20.604 20.604z" fill="#ffd3a3"/></g><g><path d="m170.974 491.396c0 11.379 9.225 20.604 20.604 20.604h-79.803c-11.379 0-20.604-9.224-20.604-20.603 0-11.379 9.225-20.604 20.604-20.604h79.803c-11.379 0-20.604 9.224-20.604 20.603z" fill="#ffbe74"/></g><g><path d="m389.924 368.157c0-73.964-59.96-133.924-133.924-133.924s-133.924 59.96-133.924 133.924v30.905h267.847v-30.905z" fill="#ffbe74"/></g><g><path d="m270.236 368.157v30.906h-148.16v-30.906c0-73.964 59.96-133.924 133.924-133.924 27.394 0 52.862 8.232 74.079 22.347-36.069 23.996-59.843 65.008-59.843 111.577z" fill="#f4a960"/></g><g><path d="m91.171 399.063c0 11.379 9.225 20.604 20.604 20.604h288.451c11.379 0 20.604-9.225 20.604-20.604 0-11.379-9.225-20.604-20.604-20.604h-288.451c-11.379 0-20.604 9.225-20.604 20.604z" fill="#ffd3a3"/></g><g><path d="m170.974 399.063c0 11.379 9.225 20.604 20.604 20.604h-79.803c-11.379 0-20.604-9.224-20.604-20.603 0-11.379 9.225-20.604 20.604-20.604h79.803c-11.379-.001-20.604 9.224-20.604 20.603z" fill="#ffbe74"/></g><g><path d="m256 0c-23.96 0-44.59 16.912-49.289 40.407l-33.126 165.629h164.829l-33.125-165.629c-4.699-23.495-25.329-40.407-49.289-40.407z" fill="#ffd3a3"/></g><g><path d="m254.401 111.015c.534-.005 1.065-.02 1.599-.02 23.531 0 45.917 4.975 66.186 13.9l16.228 81.141h-164.828l33.126-165.629c4.698-23.495 25.328-40.407 49.288-40.407 6.986 0 13.683 1.446 19.79 4.066z" fill="#ffbe74"/></g><g><path d="m389.924 275.824c0-73.964-59.96-133.924-133.924-133.924s-133.924 59.96-133.924 133.924v30.905h267.847v-30.905z" fill="#ffbe74"/></g><g><path d="m270.236 275.824v30.906h-148.16v-30.906c0-73.964 59.96-133.924 133.924-133.924 27.394 0 52.862 8.232 74.079 22.347-36.069 23.996-59.843 65.007-59.843 111.577z" fill="#f4a960"/></g><g><path d="m91.171 306.729c0 11.379 9.225 20.604 20.604 20.604h288.451c11.379 0 20.604-9.225 20.604-20.604 0-11.379-9.225-20.604-20.604-20.604h-288.451c-11.379.001-20.604 9.225-20.604 20.604z" fill="#ffd3a3"/></g><g><path d="m170.974 306.729c0 11.379 9.225 20.604 20.604 20.604h-79.803c-11.379 0-20.604-9.224-20.604-20.604 0-11.379 9.225-20.604 20.604-20.604h79.803c-11.379.001-20.604 9.225-20.604 20.604z" fill="#ffbe74"/></g><g><g><path d="m190.81 234.439c-.002 0-.004 0-.006 0-4.143-.003-7.497-3.364-7.494-7.506l.01-12.235c.003-4.14 3.361-7.494 7.5-7.494h.006c4.143.003 7.497 3.364 7.494 7.506l-.01 12.235c-.003 4.14-3.362 7.494-7.5 7.494z" fill="#423e4f"/></g><g><path d="m321.232 234.567c-.002 0-.004 0-.006 0-4.143-.003-7.497-3.364-7.494-7.506l.01-12.235c.003-4.14 3.361-7.494 7.5-7.494h.006c4.143.003 7.497 3.364 7.494 7.506l-.01 12.235c-.003 4.14-3.361 7.494-7.5 7.494z" fill="#423e4f"/></g><g><path d="m273.208 239.95c-.002 0-.004 0-.007 0l-34.385-.03c-4.142-.003-7.497-3.364-7.493-7.506.004-4.14 3.361-7.494 7.5-7.494h.007l34.385.03c4.142.003 7.497 3.364 7.493 7.506-.004 4.14-3.361 7.494-7.5 7.494z" fill="#423e4f"/></g></g></g></svg>