<svg id="Capa_1" enable-background="new 0 0 512 512" height="512" viewBox="0 0 512 512" width="512" xmlns="http://www.w3.org/2000/svg"><g><g><path d="m408.982 20.604h-152.982-152.982s-41.207 114.817-41.207 235.396 41.207 235.396 41.207 235.396h152.982 152.982s41.207-114.817 41.207-235.396-41.207-235.396-41.207-235.396z" fill="#fbf081"/></g><g><path d="m416.747 410.191c-13.729 11.049-23.647 19.032-45.854 19.032-22.206 0-32.125-7.983-45.853-19.031-15.06-12.121-33.803-27.204-69.045-27.204-35.241 0-53.983 15.084-69.042 27.204-13.727 11.049-23.645 19.031-45.85 19.031s-32.124-7.982-45.851-19.031c-5.254-4.228-10.964-8.814-17.658-12.997 11.627 55.758 25.424 94.202 25.424 94.202h152.982 152.982s13.797-38.445 25.424-94.203c-6.695 4.183-12.405 8.769-17.659 12.997z" fill="#84dfff"/></g><g><path d="m95.253 101.809c13.729-11.049 23.647-19.032 45.855-19.032 22.206 0 32.125 7.983 45.852 19.031 15.06 12.121 33.803 27.204 69.045 27.204 35.241 0 53.983-15.084 69.042-27.204 13.727-11.049 23.645-19.031 45.85-19.031s32.124 7.982 45.851 19.031c5.254 4.228 10.964 8.814 17.658 12.997-11.627-55.758-25.424-94.202-25.424-94.202h-152.982-152.982s-13.797 38.445-25.424 94.203c6.695-4.183 12.405-8.769 17.659-12.997z" fill="#84dfff"/></g><g><path d="m164.829 20.604h-61.811s-41.207 114.817-41.207 235.396 41.207 235.396 41.207 235.396h61.811s-41.207-114.817-41.207-235.396 41.207-235.396 41.207-235.396z" fill="#fad271"/></g><g><path d="m141.103 429.223c-22.205 0-32.124-7.982-45.851-19.031-5.254-4.228-10.964-8.814-17.658-12.997 11.627 55.758 25.424 94.202 25.424 94.202h61.811s-8.732-24.339-18.156-62.358c-1.771.119-3.621.184-5.57.184z" fill="#2fcffc"/></g><g><path d="m146.673 82.962c9.424-38.019 18.156-62.358 18.156-62.358h-61.811s-13.797 38.445-25.424 94.203c6.695-4.183 12.405-8.769 17.659-12.997 13.729-11.049 23.647-19.032 45.855-19.032 1.947-.001 3.796.064 5.565.184z" fill="#2fcffc"/></g><g><path d="m72.113 29.933c0-14.301 13.625-24.529 27.422-20.765 2.551.696 5.561 1.134 9.354 1.134 18.389 0 18.389-10.302 36.777-10.302 18.386 0 18.386 10.302 36.771 10.302 18.387 0 18.387-10.302 36.773-10.302 18.388 0 18.388 10.302 36.777 10.302s18.389-10.302 36.777-10.302c18.39 0 18.39 10.302 36.779 10.302s18.389-10.302 36.778-10.302c18.392 0 18.392 10.302 36.783 10.302 3.796 0 6.809-.439 9.362-1.136 13.796-3.765 27.421 6.465 27.421 20.766v.001c0 11.916-9.66 21.576-21.576 21.576h-324.622c-11.916 0-21.576-9.66-21.576-21.576z" fill="#be9edf"/></g><g><g><path d="m219.274 29.933c0-14.161 13.36-24.319 27.017-20.863-9.545-2.733-12.657-9.07-27.081-9.07-18.386 0-18.386 10.302-36.772 10.302s-18.386-10.302-36.772-10.302c-18.389 0-18.389 10.302-36.777 10.302-3.793 0-6.803-.438-9.354-1.134-13.797-3.763-27.422 6.464-27.422 20.765 0 11.916 9.66 21.576 21.576 21.576h147.161c-11.916 0-21.576-9.66-21.576-21.576z" fill="#938ed9"/></g></g><g><path d="m439.887 482.067c0 14.301-13.625 24.529-27.422 20.765-2.551-.696-5.561-1.134-9.354-1.134-18.388 0-18.388 10.302-36.777 10.302-18.386 0-18.386-10.302-36.771-10.302-18.386 0-18.386 10.302-36.772 10.302-18.388 0-18.388-10.302-36.777-10.302s-18.389 10.302-36.777 10.302c-18.39 0-18.39-10.302-36.779-10.302s-18.389 10.302-36.778 10.302c-18.392 0-18.392-10.302-36.783-10.302-3.796 0-6.809.439-9.362 1.136-13.796 3.765-27.421-6.465-27.421-20.766v-.001c0-11.916 9.66-21.576 21.576-21.576h324.623c11.915 0 21.574 9.66 21.574 21.576z" fill="#be9edf"/></g><g><g><path d="m219.274 482.067c0 14.161 13.36 24.319 27.017 20.863-9.545 2.733-12.658 9.07-27.081 9.07-18.386 0-18.386-10.302-36.772-10.302s-18.386 10.302-36.771 10.302c-18.389 0-18.389-10.302-36.777-10.302-3.793 0-6.803.438-9.354 1.134-13.797 3.763-27.422-6.464-27.422-20.765 0-11.916 9.66-21.576 21.576-21.576h147.16c-11.916 0-21.576 9.66-21.576 21.576z" fill="#938ed9"/></g></g><g><path d="m256 429.046c-16.256 0-29.434-13.178-29.434-29.434v-88.301h58.867v88.301c.001 16.256-13.177 29.434-29.433 29.434z" fill="#ffd3a3"/></g><g><path d="m256 399.612v-12.509h29.434v-75.792h-58.867v88.301c0 16.256 13.178 29.434 29.434 29.434 5.363 0 10.387-1.441 14.717-3.948-8.796-5.09-14.718-14.593-14.718-25.486z" fill="#ffbe74"/></g><g><path d="m285.434 357.669h-58.867c-40.64 0-73.584-32.945-73.584-73.584v-98.113c0-56.895 46.123-103.018 103.018-103.018 56.895 0 103.018 46.123 103.018 103.018v98.113c-.001 40.639-32.946 73.584-73.585 73.584z" fill="#e7886e"/></g><g><path d="m211.849 284.085v-98.113c0-46.666 31.032-86.078 73.584-98.744-9.327-2.776-19.205-4.274-29.434-4.274-56.895 0-103.018 46.123-103.018 103.018v98.113c0 40.64 32.945 73.584 73.584 73.584h58.867c-40.638 0-73.583-32.945-73.583-73.584z" fill="#dc6646"/></g><g><g><path d="m196.817 230.313c-4.142 0-7.5-3.357-7.5-7.5v-12.362c0-4.143 3.358-7.5 7.5-7.5s7.5 3.357 7.5 7.5v12.362c0 4.143-3.357 7.5-7.5 7.5z" fill="#423e4f"/></g><g><path d="m315.183 230.313c-4.142 0-7.5-3.357-7.5-7.5v-12.362c0-4.143 3.358-7.5 7.5-7.5s7.5 3.357 7.5 7.5v12.362c0 4.143-3.358 7.5-7.5 7.5z" fill="#423e4f"/></g><g><path d="m256 237.672c-8.668 0-16.912-3.754-22.615-10.299-2.721-3.123-2.396-7.86.727-10.582s7.86-2.395 10.582.727c2.854 3.275 6.976 5.154 11.307 5.154s8.453-1.879 11.308-5.154c2.721-3.123 7.458-3.447 10.582-.727 3.123 2.722 3.448 7.459.726 10.582-5.706 6.545-13.949 10.299-22.617 10.299z" fill="#423e4f"/></g></g><g><circle cx="298.041" cy="297.802" fill="#dc6646" r="20.604"/></g><g><circle cx="211.788" cy="271.968" fill="#dc6646" r="15.453"/></g><g><circle cx="292.89" cy="141.135" fill="#dc6646" r="15.453"/></g></g></svg>