<svg id="Capa_1" enable-background="new 0 0 512 512" height="512" viewBox="0 0 512 512" width="512" xmlns="http://www.w3.org/2000/svg"><g><g><path d="m256 512c-22.758 0-41.207-18.449-41.207-41.207v-123.622h82.414v123.622c0 22.758-18.449 41.207-41.207 41.207z" fill="#ffd3a3"/></g><g><path d="m256 470.793v-27.815h41.207v-95.807h-82.414v123.622c0 22.758 18.449 41.207 41.207 41.207 7.508 0 14.541-2.018 20.604-5.526-12.314-7.126-20.604-20.431-20.604-35.681z" fill="#ffbe74"/></g><g><path d="m420.984 302.772h-329.968l-14.897 29.794c-8.384 16.768-1.108 37.084 15.953 44.853 49.953 22.746 105.459 35.42 163.927 35.42s113.974-12.674 163.927-35.42c17.061-7.769 24.337-28.085 15.953-44.853z" fill="#50e3cf"/></g><g><path d="m91.016 302.772-14.897 29.794c-8.384 16.768-1.108 37.084 15.953 44.853 37.988 17.298 79.19 28.763 122.462 33.267-18.03-1.676-31.368-17.579-29.833-35.655 1.542-18.165 17.519-31.641 35.684-30.098v-42.16h-129.369z" fill="#17d9bf"/></g><g><path d="m91.016 302.772c49.614 28.733 106.117 44.061 164.984 44.061s115.369-15.329 164.984-44.061l-145.305-290.61c-8.108-16.216-31.25-16.216-39.358 0z" fill="#ff7591"/></g><g><path d="m291.029 42.861-15.35-30.699c-8.108-16.216-31.25-16.216-39.358 0l-145.305 290.61c18.159 10.516 37.244 19.229 57.027 26.059z" fill="#fd5c70"/></g><g><g><g><ellipse cx="174.042" cy="278.69" fill="#fff" rx="30.241" ry="24.082"/></g><g><ellipse cx="337.958" cy="278.69" fill="#fff" rx="30.241" ry="24.082"/></g></g><g><path d="m191.667 263.007c-4.143 0-7.5-3.358-7.5-7.5v-12.362c0-4.142 3.357-7.5 7.5-7.5s7.5 3.358 7.5 7.5v12.362c0 4.142-3.357 7.5-7.5 7.5z" fill="#423e4f"/></g><g><path d="m320.333 263.007c-4.143 0-7.5-3.358-7.5-7.5v-12.362c0-4.142 3.357-7.5 7.5-7.5s7.5 3.358 7.5 7.5v12.362c0 4.142-3.357 7.5-7.5 7.5z" fill="#423e4f"/></g><g><path d="m256 270.366c-8.668 0-16.911-3.754-22.615-10.3-2.722-3.123-2.396-7.86.727-10.582s7.859-2.397 10.582.727c2.854 3.275 6.976 5.154 11.307 5.154s8.452-1.879 11.307-5.154c2.722-3.123 7.458-3.448 10.582-.727 3.122 2.721 3.448 7.459.727 10.582-5.706 6.546-13.949 10.3-22.617 10.3z" fill="#423e4f"/></g></g><g><g><path d="m256 179.358c-4.143 0-7.5-3.358-7.5-7.5v-12.362c0-4.142 3.357-7.5 7.5-7.5s7.5 3.358 7.5 7.5v12.362c0 4.142-3.357 7.5-7.5 7.5z" fill="#423e4f"/></g><g><path d="m225.095 136.091c-4.143 0-7.5-3.358-7.5-7.5v-12.362c0-4.142 3.357-7.5 7.5-7.5s7.5 3.358 7.5 7.5v12.362c0 4.142-3.358 7.5-7.5 7.5z" fill="#423e4f"/></g><g><path d="m286.905 136.091c-4.143 0-7.5-3.358-7.5-7.5v-12.362c0-4.142 3.357-7.5 7.5-7.5s7.5 3.358 7.5 7.5v12.362c0 4.142-3.357 7.5-7.5 7.5z" fill="#423e4f"/></g></g></g></svg>