<svg id="Capa_1" enable-background="new 0 0 512 512" height="512" viewBox="0 0 512 512" width="512" xmlns="http://www.w3.org/2000/svg"><g><g><path d="m481.095 92.716h-450.19c-17.068 0-30.905-13.837-30.905-30.905 0-17.069 13.837-30.905 30.905-30.905h450.189c17.069 0 30.905 13.837 30.905 30.905.001 17.068-13.836 30.905-30.904 30.905z" fill="#fffddb"/></g><g><path d="m195.734 61.811c0-17.069 13.837-30.905 30.905-30.905h-195.734c-17.068-.001-30.905 13.836-30.905 30.905 0 17.069 13.837 30.905 30.905 30.905h195.735c-17.069 0-30.906-13.836-30.906-30.905z" fill="#fff3ac"/></g><g><path d="m357.473 226.64v-195.735c0-17.068 13.837-30.905 30.905-30.905 17.069 0 30.905 13.837 30.905 30.905v195.735z" fill="#be9edf"/></g><g><path d="m388.378 123.622c-17.069 0-30.905-13.837-30.905-30.905v133.923h61.811v-133.924c0 17.069-13.837 30.906-30.906 30.906z" fill="#938ed9"/></g><g><path d="m92.716 226.64v-195.735c0-17.068 13.837-30.905 30.906-30.905 17.069 0 30.905 13.837 30.905 30.905v195.735z" fill="#be9edf"/></g><g><path d="m123.622 123.622c-17.069 0-30.905-13.837-30.905-30.905v133.923h61.811v-133.924c-.001 17.069-13.838 30.906-30.906 30.906z" fill="#938ed9"/></g><g><path d="m512 347.075v-141.039c0-22.758-18.449-41.207-41.207-41.207h-429.586c-22.758 0-41.207 18.449-41.207 41.207v141.039l41.207 67.23h429.586z" fill="#fbf081"/></g><g><path d="m113.32 206.036c0-22.758 18.449-41.207 41.207-41.207h-113.32c-22.758 0-41.207 18.449-41.207 41.207v141.039l41.207 67.229h72.113z" fill="#fad271"/></g><g><path d="m41.207 512h429.586c22.758 0 41.207-18.449 41.207-41.207v-123.719c-18.775 7.262-32.289 18.137-44.087 27.632-18.099 14.566-31.174 25.089-60.45 25.089-29.275 0-42.35-10.524-60.448-25.089-19.854-15.979-44.562-35.864-91.022-35.864-46.458 0-71.165 19.886-91.018 35.864-18.096 14.565-31.172 25.089-60.445 25.089s-42.349-10.523-60.445-25.089c-11.798-9.494-25.311-20.369-44.085-27.631v123.718c0 22.758 18.449 41.207 41.207 41.207z" fill="#84dfff"/></g><g><path d="m113.32 470.793v-71.351c-2.767.229-5.682.355-8.789.355-29.273 0-42.349-10.523-60.445-25.089-11.799-9.496-25.312-20.371-44.086-27.633v123.718c0 22.758 18.449 41.207 41.207 41.207h113.32c-22.758 0-41.207-18.449-41.207-41.207z" fill="#2fcffc"/></g><g><path d="m270.737 206.16-10.868.836c-16.79 1.292-29.756 15.293-29.756 32.133v9.583h19.545c17.799 0 32.227-14.429 32.227-32.227.001-6.033-5.134-10.788-11.148-10.325z" fill="#e7886e"/></g><g><path d="m280.298 238.349-51.772 3.982c-10.789.83-19.121 9.827-19.121 20.648v18.656h93.19v-22.639c0-12.062-10.27-21.572-22.297-20.647z" fill="#dc6646"/></g><g><path d="m269.548 239.176-41.023 3.156c-10.789.83-19.121 9.827-19.121 20.648v18.656h41.418v-21.852c.001-10.688 8.13-19.591 18.726-20.608z" fill="#d85536"/></g><g><path d="m188.696 316.552v-17.063c0-10.821 8.331-19.818 19.121-20.648l93.19-7.168c12.028-.925 22.297 8.585 22.297 20.648v24.232h-134.608z" fill="#e7886e"/></g><g><path d="m247.887 275.759-40.071 3.082c-10.789.83-19.121 9.827-19.121 20.648v17.064h41.418v-20.299c.001-10.366 7.647-19.053 17.774-20.495z" fill="#dc6646"/></g><g><path d="m256 470.701c-12.297 0-23.143-8.052-26.701-19.823l-40.603-134.325h134.608l-40.603 134.325c-3.558 11.77-14.404 19.823-26.701 19.823z" fill="#ffd3a3"/></g><g><path d="m232.791 316.552h-44.095l40.603 134.325c3.558 11.771 14.404 19.823 26.701 19.823 8.045 0 15.454-3.462 20.623-9.142z" fill="#ffbe74"/></g><g><g><path d="m338.836 324.053h-165.672c-4.143 0-7.5-3.357-7.5-7.5s3.357-7.5 7.5-7.5h165.672c4.143 0 7.5 3.357 7.5 7.5s-3.357 7.5-7.5 7.5z" fill="#f4a960"/></g></g></g></svg>