<svg id="Capa_1" enable-background="new 0 0 512 512" height="512" viewBox="0 0 512 512" width="512" xmlns="http://www.w3.org/2000/svg"><g><g><path d="m108.014 361.433 15.359 107.513c3.529 24.704 24.687 43.054 49.642 43.054h163.749c24.955 0 46.113-18.35 49.642-43.055l15.168-106.178-145.581-51.884z" fill="#84dfff"/></g><g><path d="m223.666 468.945-20.026-140.178-95.626 32.666 15.359 107.513c3.529 24.704 24.687 43.054 49.642 43.054h100.293c-24.955 0-46.113-18.35-49.642-43.055z" fill="#2fcffc"/></g><g><path d="m108.014 361.433c11.018 6.249 23.531 11.601 44.963 11.601 51.508 0 51.508-30.905 103.016-30.905 51.511 0 51.511 30.905 103.021 30.905 19.891 0 32.099-4.609 42.56-10.267l16.291-114.036h-325.951z" fill="#fbf081"/></g><g><path d="m152.977 373.034c27.759 0 40.559-8.976 54.522-17.253l-15.293-107.05h-100.292l16.1 112.702c11.018 6.249 23.531 11.601 44.963 11.601z" fill="#fad271"/></g><g><path d="m290.577.075-26.317 2.025c-40.658 3.128-72.053 37.031-72.053 77.809v23.205h47.328c43.1 0 78.039-34.939 78.039-78.039-.001-14.606-12.435-26.12-26.997-25z" fill="#e7886e"/></g><g><path d="m313.727 68.693-125.366 9.644c-26.126 2.01-46.3 23.795-46.3 49.999v45.177h225.659v-54.82c-.001-29.213-24.868-52.241-53.993-50z" fill="#dc6646"/></g><g><path d="m287.697 70.695-99.337 7.641c-26.126 2.01-46.3 23.795-46.3 49.999v45.176h100.293v-52.915c0-25.88 19.686-47.439 45.344-49.901z" fill="#d85536"/></g><g><path d="m91.914 248.731v-41.319c0-26.203 20.174-47.989 46.3-49.999l225.659-17.358c29.125-2.24 53.993 20.788 53.993 49.999v58.678h-325.952z" fill="#e7886e"/></g><g><path d="m432.177 58.163c25.587 10.598 37.738 39.933 27.139 65.519l-57.571 138.988-92.659-38.38 57.571-138.988c10.599-25.587 39.933-37.738 65.52-27.139z" fill="#ffd3a3"/></g><g><path d="m235.245 149.949-97.031 7.464c-26.126 2.01-46.3 23.795-46.3 49.999v41.319h100.293v-49.154c0-25.1 18.516-46.134 43.038-49.628z" fill="#dc6646"/></g><g><path d="m383.56 186.048 41.73-100.746c3.702-8.938 9.695-16.229 17.011-21.491-3.085-2.219-6.461-4.131-10.124-5.648-25.587-10.598-54.921 1.552-65.519 27.139l-57.571 138.988 92.659 38.38 31.738-76.622z" fill="#ffbe74"/></g><g><path d="m48.854 244.261c0-11.379 9.225-20.604 20.604-20.604h370.865c11.379 0 20.604 9.225 20.604 20.604 0 11.379-9.225 20.604-20.604 20.604h-370.866c-11.379 0-20.603-9.224-20.603-20.604z" fill="#be9edf"/></g><g><path d="m148.781 244.261c0-11.379 9.225-20.604 20.604-20.604h-99.928c-11.379 0-20.604 9.225-20.604 20.604 0 11.379 9.225 20.604 20.604 20.604h99.928c-11.379 0-20.604-9.225-20.604-20.604z" fill="#938ed9"/></g><g><path d="m192.207 208.886v140.138c0 13.848 11.226 25.073 25.073 25.073 13.848 0 25.073-11.226 25.073-25.073v-50.147c0-13.848 11.226-25.073 25.073-25.073 13.848 0 25.073 11.226 25.073 25.073 0 13.848 11.226 25.073 25.073 25.073 13.848 0 25.073-11.226 25.073-25.073v-75.22h-33.297z" fill="#e7886e"/></g><g><g><g><ellipse cx="172.841" cy="441.194" fill="#fff" rx="30.274" ry="24.109"/></g><g><ellipse cx="336.938" cy="441.194" fill="#fff" rx="30.274" ry="24.109"/></g><g><path d="m279.298 422.67c0-15.085-10.928-16.502-24.409-16.502-13.48 0-24.409 1.417-24.409 16.502s10.928 27.313 24.409 27.313 24.409-12.228 24.409-27.313z" fill="#423e4f"/></g></g><g><path d="m177.902 419.911c-4.142 0-7.5-3.358-7.5-7.5v-12.362c0-4.142 3.358-7.5 7.5-7.5s7.5 3.358 7.5 7.5v12.362c0 4.142-3.358 7.5-7.5 7.5z" fill="#423e4f"/></g><g><path d="m331.877 419.911c-4.142 0-7.5-3.358-7.5-7.5v-12.362c0-4.142 3.358-7.5 7.5-7.5s7.5 3.358 7.5 7.5v12.362c0 4.142-3.357 7.5-7.5 7.5z" fill="#423e4f"/></g></g></g></svg>