<svg id="Capa_1" enable-background="new 0 0 512 512" height="512" viewBox="0 0 512 512" width="512" xmlns="http://www.w3.org/2000/svg"><g><g><path d="m419.781 133.873c-4.143 0-7.5-3.358-7.5-7.5 0-61.412-70.107-111.373-156.281-111.373s-156.281 49.961-156.281 111.373c0 4.142-3.357 7.5-7.5 7.5s-7.5-3.358-7.5-7.5c0-34.218 18.135-66.225 51.064-90.125 32.205-23.375 74.9-36.248 120.217-36.248s88.012 12.873 120.217 36.247c32.93 23.9 51.064 55.908 51.064 90.125 0 4.143-3.357 7.501-7.5 7.501z" fill="#7a7acc"/></g><g><path d="m108.135 285.431 17.409 162.083 130.456 27.774 130.456-27.774 17.206-160.192-147.662-39.139z" fill="#84dfff"/></g><g><path d="m224.974 467.863-22.157-206.283-94.682 23.851 17.409 162.084 99.541 21.191c-.036-.282-.081-.56-.111-.843z" fill="#2fcffc"/></g><g><path d="m108.135 285.431c11.798 6.999 24.413 13.507 47.874 13.507 50.754 0 50.754-30.453 101.508-30.453 50.756 0 50.756 30.453 101.512 30.453 21.331 0 33.697-5.379 44.634-11.616l12.926-120.346h-321.178z" fill="#fbf081"/></g><g><path d="m125.544 447.514 2.186 20.348c2.696 25.104 23.883 44.138 49.131 44.138h158.277c25.248 0 46.435-19.034 49.132-44.137l2.186-20.348h-260.912z" fill="#be9edf"/></g><g><path d="m224.974 467.863-2.186-20.348h-97.244l2.186 20.348c2.696 25.103 23.883 44.137 49.131 44.137h97.244c-25.248 0-46.435-19.034-49.131-44.137z" fill="#938ed9"/></g><g><path d="m192.655 166.976h-97.244l12.723 118.455c11.798 6.999 24.413 13.507 47.874 13.507 24.395 0 37.064-7.036 49.28-14.343z" fill="#fad271"/></g><g><g><g><ellipse cx="170.888" cy="381.902" fill="#fff" rx="31.405" ry="25.009"/></g><g><ellipse cx="341.112" cy="381.902" fill="#fff" rx="31.405" ry="25.009"/></g><g><ellipse cx="256" cy="362.686" fill="#423e4f" rx="16.67" ry="18.654"/></g></g><g><path d="m176.138 359.223c-4.143 0-7.5-3.358-7.5-7.5v-12.181c0-4.142 3.357-7.5 7.5-7.5s7.5 3.358 7.5 7.5v12.181c0 4.142-3.358 7.5-7.5 7.5z" fill="#423e4f"/></g><g><path d="m335.862 359.223c-4.143 0-7.5-3.358-7.5-7.5v-12.181c0-4.142 3.357-7.5 7.5-7.5s7.5 3.358 7.5 7.5v12.181c0 4.142-3.357 7.5-7.5 7.5z" fill="#423e4f"/></g></g><g><path d="m52.982 166.976c0-11.212 9.089-20.302 20.302-20.302h365.433c11.212 0 20.302 9.089 20.302 20.302 0 11.212-9.089 20.302-20.302 20.302h-365.433c-11.213 0-20.302-9.089-20.302-20.302z" fill="#938ed9"/></g><g><path d="m52.982 126.373c0-11.212 9.089-20.302 20.302-20.302h365.433c11.212 0 20.302 9.089 20.302 20.302 0 11.212-9.089 20.302-20.302 20.302h-365.433c-11.213-.001-20.302-9.09-20.302-20.302z" fill="#be9edf"/></g><g><path d="m151.446 126.373c0-11.212 9.089-20.302 20.302-20.302h-98.464c-11.212 0-20.302 9.089-20.302 20.302 0 11.212 9.089 20.302 20.302 20.302h98.464c-11.213-.001-20.302-9.09-20.302-20.302z" fill="#938ed9"/></g></g></svg>