<svg id="Capa_1" enable-background="new 0 0 512 512" height="512" viewBox="0 0 512 512" width="512" xmlns="http://www.w3.org/2000/svg"><g><g><path d="m256 512c-22.758 0-41.207-18.449-41.207-41.207v-123.622h82.414v123.622c0 22.758-18.449 41.207-41.207 41.207z" fill="#ffd3a3"/></g><g><path d="m256 470.793v-27.815h41.207v-95.807h-82.414v123.622c0 22.758 18.449 41.207 41.207 41.207 7.508 0 14.541-2.018 20.604-5.526-12.314-7.126-20.604-20.431-20.604-35.681z" fill="#ffbe74"/></g><g><path d="m317.811 412.072h-123.622c-22.758 0-41.207-18.449-41.207-41.207v-329.658c0-22.758 18.449-41.207 41.207-41.207h123.622c22.758 0 41.207 18.449 41.207 41.207v329.658c0 22.758-18.449 41.207-41.207 41.207z" fill="#fbf081"/></g><g><path d="m256 370.865v-329.658c0-22.758 18.449-41.207 41.207-41.207h-103.018c-22.758 0-41.207 18.449-41.207 41.207v329.658c0 22.758 18.449 41.207 41.207 41.207h103.018c-22.758 0-41.207-18.449-41.207-41.207z" fill="#fad271"/></g><g><path d="m359.018 193.764v-94.611l-204.381-69.505c-1.071 3.669-1.655 7.545-1.655 11.559v82.489z" fill="#ff7591"/></g><g><path d="m152.982 218.308v94.612l204.381 69.505c1.071-3.669 1.655-7.544 1.655-11.559v-82.489z" fill="#be9edf"/></g><g><path d="m256 253.342-103.018-35.034v94.612l103.018 35.033z" fill="#938ed9"/></g><g><path d="m256 64.119-101.363-34.471c-1.071 3.669-1.655 7.545-1.655 11.559v82.489l103.018 35.034z" fill="#fd5c70"/></g></g></svg>