<svg id="Capa_1" enable-background="new 0 0 512 512" height="512" viewBox="0 0 512 512" width="512" xmlns="http://www.w3.org/2000/svg"><g><g><path d="m351.221 41.454c-2.093 0-4.174-.871-5.657-2.572-7.389-8.479-18.059-13.341-29.275-13.341s-21.887 4.862-29.275 13.341c-2.723 3.122-7.459 3.447-10.582.727-3.122-2.722-3.448-7.459-.727-10.582 10.238-11.748 25.03-18.485 40.584-18.485s30.346 6.738 40.584 18.485c2.722 3.123 2.396 7.86-.727 10.582-1.421 1.237-3.177 1.845-4.925 1.845z" fill="#0accab"/></g><g><g><path d="m118.283 89.024c0 11.423-4.772 21.76-12.482 29.232-1.474 1.428-3.866 1.428-5.339 0-7.71-7.472-12.482-17.809-12.482-29.232s4.772-21.76 12.482-29.233c1.474-1.428 3.866-1.428 5.339 0 7.709 7.473 12.482 17.81 12.482 29.233z" fill="#17d9bf"/></g></g><g><g><path d="m51.601 155.705c11.423 0 21.76-4.772 29.232-12.482 1.428-1.474 1.428-3.866 0-5.339-7.472-7.71-17.809-12.482-29.232-12.482s-21.76 4.772-29.233 12.482c-1.428 1.474-1.428 3.866 0 5.339 7.473 7.71 17.81 12.482 29.233 12.482z" fill="#50e3cf"/></g></g><g><g><path d="m51.453 133.632c12.931 5.356 26.87 4.801 38.944-.423 2.308-.998 3.429-3.706 2.504-6.044-4.843-12.231-14.307-22.48-27.238-27.836s-26.87-4.801-38.944.423c-2.308.998-3.429 3.706-2.504 6.044 4.843 12.231 14.307 22.48 27.238 27.836z" fill="#17d9bf"/></g></g><g><path d="m96.21 88.875c5.356 12.931 4.801 26.87-.423 38.944-.998 2.308-3.706 3.429-6.044 2.504-12.231-4.843-22.48-14.307-27.836-27.238s-4.801-26.87.423-38.944c.998-2.308 3.706-3.429 6.044-2.504 12.23 4.843 22.48 14.307 27.836 27.238z" fill="#50e3cf"/></g><g><path d="m170.253 96.473c-44.02-18.073-85.283 25.92-85.283 25.92s-43.992 41.263-25.92 85.283 127.412 74.9 156.757 45.555-1.534-138.685-45.554-156.758z" fill="#ff7591"/></g><g><path d="m215.808 253.23c29.345-29.345-1.535-138.685-45.555-156.757-9.903-4.066-19.665-4.984-28.85-3.975-12.261 20.217-19.326 43.918-19.326 69.24 0 5.575.348 11.069 1.013 16.467-23.039 7.264-43.391 20.617-59.206 38.139 27.569 39.223 124.549 64.262 151.924 36.886z" fill="#fd5c70"/></g><g><circle cx="256" cy="61.811" fill="#ff7591" r="61.811"/></g><g><path d="m196.568 44.84c-1.538 5.395-2.379 11.083-2.379 16.971 0 34.137 27.674 61.811 61.811 61.811s61.811-27.674 61.811-61.811c0-5.888-.841-11.577-2.379-16.971-17.919-8.912-38.098-13.935-59.432-13.935s-41.513 5.023-59.432 13.935z" fill="#fd5c70"/></g><g><circle cx="256" cy="164.829" fill="#fffddb" r="103.018"/></g><g fill="#423e4f"><path d="m196.817 106.261c-4.143 0-7.5 3.358-7.5 7.5v12.362c0 4.142 3.357 7.5 7.5 7.5s7.5-3.358 7.5-7.5v-12.362c0-4.142-3.357-7.5-7.5-7.5z"/><path d="m315.183 106.261c-4.143 0-7.5 3.358-7.5 7.5v12.362c0 4.142 3.357 7.5 7.5 7.5s7.5-3.358 7.5-7.5v-12.362c0-4.142-3.358-7.5-7.5-7.5z"/><path d="m285.972 125.994c-4.143 0-7.5 3.358-7.5 7.5 0 4.076-3.316 7.392-7.393 7.392s-7.392-3.316-7.392-7.392c0-4.142-3.357-7.5-7.5-7.5s-7.5 3.358-7.5 7.5c0 4.076-3.315 7.392-7.392 7.392s-7.392-3.316-7.392-7.392c0-4.142-3.357-7.5-7.5-7.5s-7.5 3.358-7.5 7.5c0 12.347 10.045 22.392 22.392 22.392 5.713 0 10.931-2.154 14.892-5.689 3.96 3.535 9.178 5.689 14.892 5.689 12.348 0 22.393-10.045 22.393-22.392 0-4.142-3.358-7.5-7.5-7.5z"/></g><g><path d="m348.716 175.131c-35.951 0-68.635 14.243-92.716 37.378-24.081-23.135-56.765-37.378-92.716-37.378-3.281 0-6.533.124-9.756.357 5.334 51.887 49.176 92.359 102.472 92.359s97.138-40.472 102.472-92.359c-3.223-.233-6.475-.357-9.756-.357z" fill="#fff3ac"/></g><g><path d="m307.568 398.048-38.071-15.769c-10.513-4.355-15.505-16.407-11.151-26.92l141.925-342.635c4.355-10.513 16.407-15.505 26.92-11.151l38.071 15.769c10.513 4.355 15.505 16.407 11.151 26.92l-141.925 342.636c-4.354 10.513-16.407 15.505-26.92 11.15z" fill="#ffd3a3"/></g><g><path d="m296.418 371.128 141.924-342.634c4.355-10.513 16.407-15.505 26.92-11.151l-38.071-15.769c-10.513-4.355-22.565.638-26.92 11.151l-141.924 342.634c-4.355 10.513.638 22.565 11.151 26.92l38.071 15.769c-10.513-4.354-15.506-16.407-11.151-26.92z" fill="#ffbe74"/></g><g><path d="m357.711 82.463h82.414v82.414h-82.414z" fill="#e7886e" transform="matrix(.383 -.924 .924 .383 132.003 444.896)"/></g><g><path d="m338.676 95.182h82.414v41.207h-82.414z" fill="#dc6646" transform="matrix(.383 -.924 .924 .383 127.537 422.443)"/></g><g><circle cx="348.716" cy="309.054" fill="#fbf081" r="103.018"/></g><g><path d="m245.698 309.054c0 28.367 11.467 54.054 30.017 72.684 13.589-20.948 21.492-45.909 21.492-72.684s-7.903-51.737-21.492-72.684c-18.55 18.63-30.017 44.317-30.017 72.684z" fill="#fad271"/></g><g><circle cx="163.284" cy="309.054" fill="#e7886e" r="103.018"/></g><g><path d="m111.959 309.054c0-47.969 32.786-88.279 77.171-99.748-8.26-2.134-16.92-3.271-25.847-3.271-56.895 0-103.018 46.123-103.018 103.018s46.123 103.018 103.018 103.018c8.926 0 17.587-1.136 25.847-3.271-44.385-11.466-77.171-51.777-77.171-99.746z" fill="#dc6646"/></g><g><g><path d="m289.682 277.721c-.002 0-.003 0-.006 0-4.142-.003-7.497-3.363-7.494-7.505l.009-12.235c.003-4.14 3.36-7.495 7.5-7.495h.006c4.142.003 7.497 3.363 7.494 7.505l-.009 12.235c-.003 4.141-3.361 7.495-7.5 7.495z" fill="#423e4f"/></g><g><path d="m407.742 277.849c-.002 0-.003 0-.006 0-4.142-.003-7.497-3.363-7.494-7.505l.009-12.235c.003-4.14 3.36-7.495 7.5-7.495h.006c4.142.003 7.497 3.363 7.494 7.505l-.009 12.235c-.003 4.14-3.36 7.495-7.5 7.495z" fill="#423e4f"/></g><g><path d="m365.899 283.232c-.002 0-.004 0-.007 0l-34.386-.03c-4.142-.003-7.497-3.364-7.493-7.506.004-4.14 3.361-7.494 7.5-7.494h.007l34.386.03c4.142.003 7.497 3.364 7.493 7.506-.003 4.14-3.361 7.494-7.5 7.494z" fill="#423e4f"/></g></g><g><g><path d="m104.102 277.849c-4.143 0-7.5-3.358-7.5-7.5v-12.362c0-4.142 3.357-7.5 7.5-7.5s7.5 3.358 7.5 7.5v12.362c0 4.142-3.358 7.5-7.5 7.5z" fill="#423e4f"/></g><g><path d="m222.466 277.849c-4.143 0-7.5-3.358-7.5-7.5v-12.362c0-4.142 3.357-7.5 7.5-7.5s7.5 3.358 7.5 7.5v12.362c0 4.142-3.358 7.5-7.5 7.5z" fill="#423e4f"/></g><g><path d="m163.283 285.208c-8.668 0-16.911-3.754-22.615-10.3-2.722-3.123-2.396-7.86.727-10.582 3.122-2.721 7.859-2.397 10.582.727 2.854 3.275 6.976 5.154 11.307 5.154 4.332 0 8.453-1.879 11.308-5.154 2.722-3.124 7.458-3.448 10.582-.727 3.122 2.721 3.448 7.459.727 10.582-5.706 6.546-13.949 10.3-22.618 10.3z" fill="#423e4f"/></g></g><g><path d="m470.793 512h-429.586c-22.758 0-41.207-18.449-41.207-41.207 0-22.758 18.449-41.207 41.207-41.207h429.586c22.758 0 41.207 18.449 41.207 41.207 0 22.758-18.449 41.207-41.207 41.207z" fill="#ffd3a3"/></g><g><path d="m183.887 470.793c0-22.758 18.449-41.207 41.207-41.207h-183.887c-22.758 0-41.207 18.449-41.207 41.207 0 22.758 18.449 41.207 41.207 41.207h183.887c-22.758 0-41.207-18.449-41.207-41.207z" fill="#ffbe74"/></g><g><path d="m450.189 429.586h-388.378c-22.758 0-41.207-18.449-41.207-41.207 0-22.758 18.449-41.207 41.207-41.207h388.378c22.758 0 41.207 18.449 41.207 41.207 0 22.757-18.449 41.207-41.207 41.207z" fill="#ffbe74"/></g><g><path d="m122.076 336.869v113.32c0 11.379 9.225 20.604 20.604 20.604 11.379 0 20.604-9.225 20.604-20.604v-41.207c0-11.379 9.225-20.604 20.604-20.604 11.379 0 20.604 9.225 20.604 20.604 0 11.379 9.225 20.604 20.604 20.604 11.379 0 20.604-9.225 20.604-20.604v-72.113z" fill="#e7886e"/></g><g><path d="m427.71 336.869v113.32c0 11.379-9.225 20.604-20.604 20.604-11.379 0-20.604-9.225-20.604-20.604v-41.207c0-11.379-9.225-20.604-20.604-20.604-11.379 0-20.604 9.225-20.604 20.604v82.415c0 11.379-9.225 20.604-20.604 20.604-11.379 0-20.604-9.225-20.604-20.604v-154.528z" fill="#fbf081"/></g></g></svg>