<svg id="Capa_1" enable-background="new 0 0 512 512" height="512" viewBox="0 0 512 512" width="512" xmlns="http://www.w3.org/2000/svg"><g><g><path d="m186.991 17.277-.157-.562c-2.751-9.88-11.75-16.715-22.005-16.715-10.255 0-19.254 6.835-22.005 16.714l-.157.562c-17.535 62.968-54.593 118.46-104.946 160.137-23.563 19.504-37.721 44.521-37.721 71.802 0 62.285 73.796 112.777 164.829 112.777s164.829-50.492 164.829-112.777c0-27.281-14.158-52.298-37.721-71.801-50.353-41.678-87.411-97.17-104.946-160.137z" fill="#dc6646"/></g><g><path d="m291.937 177.413c-16.439-13.606-31.449-28.693-44.837-45.024-21.565 52.397-56.143 99.089-101.481 136.615-27.841 23.044-46.025 51.351-52.898 81.646 21.782 7.263 46.247 11.342 72.108 11.342 91.032 0 164.829-50.492 164.829-112.778 0-27.28-14.158-52.297-37.721-71.801z" fill="#d85536"/></g><g><path d="m342.583 102.65-.186-.668c-3.267-11.732-13.953-19.848-26.131-19.848-12.178 0-22.864 8.116-26.131 19.848l-.186.668c-20.823 74.774-64.829 140.671-124.623 190.162-27.981 23.16-44.794 52.868-44.794 85.264-.001 73.964 87.632 133.924 195.734 133.924s195.734-59.96 195.734-133.924c0-32.396-16.813-62.104-44.794-85.264-59.794-49.491-103.8-115.388-124.623-190.162z" fill="#e7886e"/></g><g><path d="m222.262 378.076c0-73.957 87.618-133.913 195.706-133.923-34.81-41.086-60.795-89.11-75.385-141.503l-.186-.668c-3.267-11.732-13.953-19.848-26.131-19.848s-22.864 8.116-26.131 19.848l-.186.668c-20.823 74.774-64.829 140.671-124.624 190.162-27.981 23.16-44.794 52.868-44.794 85.264 0 73.964 87.633 133.924 195.735 133.924 17.596 0 34.644-1.598 50.865-4.577-83.437-15.323-144.869-67.422-144.869-129.347z" fill="#dc6646"/></g><g><g><g><ellipse cx="229.888" cy="356.401" fill="#fff" rx="31.872" ry="25.381"/></g><g><ellipse cx="402.643" cy="356.401" fill="#fff" rx="31.872" ry="25.381"/></g><g><ellipse cx="316.266" cy="336.899" fill="#423e4f" rx="16.918" ry="18.932"/></g></g><g><path d="m266.456 333.072c-4.143 0-7.5-3.357-7.5-7.5 0-3.684-2.997-6.681-6.681-6.681s-6.681 2.997-6.681 6.681c0 4.143-3.357 7.5-7.5 7.5s-7.5-3.357-7.5-7.5c0-11.955 9.726-21.681 21.681-21.681s21.681 9.726 21.681 21.681c0 4.143-3.357 7.5-7.5 7.5z" fill="#423e4f"/></g><g><path d="m393.215 333.072c-4.143 0-7.5-3.357-7.5-7.5 0-3.684-2.997-6.681-6.681-6.681s-6.681 2.997-6.681 6.681c0 4.143-3.357 7.5-7.5 7.5s-7.5-3.357-7.5-7.5c0-11.955 9.726-21.681 21.681-21.681s21.681 9.726 21.681 21.681c0 4.143-3.358 7.5-7.5 7.5z" fill="#423e4f"/></g></g><g><g><path d="m105.646 190.998c-4.143 0-7.5-3.357-7.5-7.5v-12.362c0-4.143 3.357-7.5 7.5-7.5s7.5 3.357 7.5 7.5v12.362c0 4.143-3.357 7.5-7.5 7.5z" fill="#423e4f"/></g><g><path d="m224.012 190.998c-4.143 0-7.5-3.357-7.5-7.5v-12.362c0-4.143 3.357-7.5 7.5-7.5s7.5 3.357 7.5 7.5v12.362c0 4.143-3.358 7.5-7.5 7.5z" fill="#423e4f"/></g><g><path d="m164.829 198.356c-8.669 0-16.911-3.754-22.615-10.299-2.722-3.123-2.396-7.86.727-10.582s7.859-2.396 10.582.727c2.854 3.275 6.976 5.154 11.307 5.154s8.452-1.879 11.307-5.154c2.722-3.122 7.457-3.448 10.582-.727 3.122 2.722 3.448 7.459.727 10.582-5.706 6.546-13.948 10.299-22.617 10.299z" fill="#423e4f"/></g></g></g></svg>