<svg id="Capa_1" enable-background="new 0 0 512 512" height="512" viewBox="0 0 512 512" width="512" xmlns="http://www.w3.org/2000/svg"><g><g><path d="m76.395 163.383c-1.748 0-3.503-.607-4.925-1.846-11.748-10.238-18.485-25.03-18.485-40.583 0-15.554 6.738-30.346 18.485-40.583 3.123-2.721 7.86-2.396 10.582.727 2.721 3.123 2.396 7.86-.727 10.582-8.478 7.388-13.34 18.059-13.34 29.275s4.862 21.887 13.34 29.276c3.123 2.721 3.448 7.459.726 10.582-1.482 1.699-3.564 2.57-5.656 2.57z" fill="#0accab"/></g><g><path d="m256 325.793h-73.415l52.811 165.603h41.208l52.811-165.603z" fill="#f9e99b"/></g><g><circle cx="256" cy="162.897" fill="#ffccd3" r="162.897"/></g><g><path d="m400.734 181.059c-89.965 0-162.897-72.931-162.897-162.897 0-5.828.312-11.583.909-17.253-81.853 8.618-145.643 77.851-145.643 161.988 0 89.965 72.931 162.897 162.897 162.897 84.137 0 153.369-63.79 161.987-145.643-5.67.596-11.425.908-17.253.908z" fill="#ffabb9"/></g><g><circle cx="114.557" cy="181.242" fill="#ff7591" r="61.811"/></g><g><path d="m157.953 199.658c-34.137 0-61.811-27.674-61.811-61.811 0-5.623.765-11.066 2.172-16.244-26.254 7.135-45.567 31.125-45.567 59.639 0 34.137 27.674 61.811 61.811 61.811 28.514 0 52.504-19.313 59.639-45.567-5.179 1.407-10.621 2.172-16.244 2.172z" fill="#fd5c70"/></g><g><path d="m79.567 244.261c0 79.653 78.992 144.225 176.433 144.225s176.433-64.572 176.433-144.225z" fill="#fff3ac"/></g><g><g><path d="m160.516 244.261h-80.949c0 79.653 78.992 144.225 176.433 144.225 7.747 0 15.376-.412 22.86-1.203-66.766-9.162-118.344-69.701-118.344-143.022z" fill="#f9e99b"/></g></g><g><circle cx="307.255" cy="73.997" fill="#ffabb9" r="20.604"/></g><g><circle cx="181.916" cy="91.51" fill="#ffccd3" r="20.604"/></g><g><circle cx="214.29" cy="150.788" fill="#ffccd3" r="15.453"/></g><g><path d="m355.416 233.96 41.719-128.366h44.298c11.379 0 20.604-9.225 20.604-20.604 0-11.379-9.225-20.604-20.604-20.604h-52.478c-17.851 0-33.672 11.494-39.189 28.471l-45.859 141.103z" fill="#899bb0"/></g><g><path d="m343.687 194.578c-13.043-3.554-20.742-16.995-17.219-30.04l-22.562 69.421h51.509l17.956-55.249c-4.087 12.243-17.076 19.304-29.684 15.868z" fill="#6c8199"/></g><g><path d="m49.964 244.261c0-11.379 9.225-20.604 20.604-20.604h370.865c11.379 0 20.604 9.225 20.604 20.604 0 11.379-9.225 20.604-20.604 20.604h-370.866c-11.379 0-20.603-9.224-20.603-20.604z" fill="#fffddb"/></g><g><path d="m163.284 491.396c0-11.379 9.225-20.604 20.604-20.604h144.225c11.379 0 20.604 9.225 20.604 20.604 0 11.379-9.225 20.604-20.604 20.604h-144.226c-11.379 0-20.603-9.225-20.603-20.604z" fill="#fffddb"/></g><g><path d="m262.868 491.396c0-11.379 9.225-20.604 20.604-20.604h-99.584c-11.379 0-20.604 9.225-20.604 20.604 0 11.379 9.225 20.604 20.604 20.604h99.584c-11.38 0-20.604-9.225-20.604-20.604z" fill="#fff3ac"/></g><g><path d="m139.155 244.261c0-11.379 9.225-20.604 20.604-20.604h-89.192c-11.379 0-20.604 9.225-20.604 20.604 0 11.379 9.225 20.604 20.604 20.604h89.191c-11.379 0-20.603-9.225-20.603-20.604z" fill="#fff3ac"/></g><g><path d="m183.633 213.356v113.32c0 11.379 9.225 20.604 20.604 20.604 11.379 0 20.604-9.225 20.604-20.604v-41.207c0-11.379 9.225-20.604 20.604-20.604 11.379 0 20.604 9.225 20.604 20.604 0 11.379 9.225 20.604 20.604 20.604 11.379 0 20.604-9.225 20.604-20.604v-72.113z" fill="#ffabb9"/></g></g></svg>