<svg id="Capa_1" enable-background="new 0 0 512 512" height="512" viewBox="0 0 512 512" width="512" xmlns="http://www.w3.org/2000/svg"><g><g><circle cx="256" cy="163.138" fill="#fffddb" r="163.138"/></g><g><path d="m157.566 163.138c0-79.021 56.185-144.915 130.786-159.924-10.457-2.104-21.275-3.214-32.352-3.214-90.098 0-163.138 73.039-163.138 163.138s73.04 163.137 163.138 163.137c11.077 0 21.895-1.11 32.352-3.214-74.6-15.009-130.786-80.902-130.786-159.923z" fill="#fff3ac"/></g><g><path d="m108.014 361.433 15.359 107.513c3.529 24.704 24.687 43.054 49.642 43.054h163.749c24.955 0 46.113-18.35 49.642-43.055l15.168-106.178-145.581-51.884z" fill="#84dfff"/></g><g><path d="m223.666 468.945-20.026-140.178-95.626 32.666 15.359 107.513c3.529 24.704 24.687 43.054 49.642 43.054h100.293c-24.955 0-46.113-18.35-49.642-43.055z" fill="#2fcffc"/></g><g><path d="m108.014 361.433c11.018 6.249 23.531 11.601 44.963 11.601 51.508 0 51.508-30.905 103.016-30.905 51.511 0 51.511 30.905 103.021 30.905 19.891 0 32.099-4.609 42.56-10.267l16.291-114.036h-325.951z" fill="#fbf081"/></g><g><path d="m152.977 373.034c27.759 0 40.559-8.976 54.522-17.253l-15.293-107.05h-100.292l16.1 112.702c11.018 6.249 23.531 11.601 44.963 11.601z" fill="#fad271"/></g><g><path d="m432.177 58.163c25.587 10.598 37.738 39.933 27.139 65.519l-57.571 138.988-92.659-38.38 57.571-138.988c10.599-25.587 39.933-37.738 65.52-27.139z" fill="#ffd3a3"/></g><g><path d="m383.56 186.048 41.73-100.746c3.702-8.938 9.695-16.229 17.011-21.491-3.085-2.219-6.461-4.131-10.124-5.648-25.587-10.598-54.921 1.552-65.519 27.139l-57.571 138.988 92.659 38.38 31.738-76.622z" fill="#ffbe74"/></g><g><path d="m48.854 244.261c0-11.379 9.225-20.604 20.604-20.604h370.865c11.379 0 20.604 9.225 20.604 20.604 0 11.379-9.225 20.604-20.604 20.604h-370.866c-11.379 0-20.603-9.224-20.603-20.604z" fill="#be9edf"/></g><g><path d="m148.781 244.261c0-11.379 9.225-20.604 20.604-20.604h-99.928c-11.379 0-20.604 9.225-20.604 20.604 0 11.379 9.225 20.604 20.604 20.604h99.928c-11.379 0-20.604-9.225-20.604-20.604z" fill="#938ed9"/></g><g><path d="m192.207 208.886v140.138c0 13.848 11.226 25.073 25.073 25.073 13.848 0 25.073-11.226 25.073-25.073v-50.147c0-13.848 11.226-25.073 25.073-25.073 13.848 0 25.073 11.226 25.073 25.073 0 13.848 11.226 25.073 25.073 25.073 13.848 0 25.073-11.226 25.073-25.073v-75.22h-33.297z" fill="#fffddb"/></g><g><circle cx="182.569" cy="74.936" fill="#fff3ac" r="20.604"/></g><g><circle cx="292.389" cy="129.346" fill="#fff3ac" r="20.604"/></g><g><circle cx="244.241" cy="173.511" fill="#fff3ac" r="15.453"/></g><g><g><g><ellipse cx="172.932" cy="441.221" fill="#fff" rx="30.241" ry="24.082"/></g><g><ellipse cx="336.847" cy="441.221" fill="#fff" rx="30.241" ry="24.082"/></g></g><g><path d="m190.556 425.538c-4.142 0-7.5-3.358-7.5-7.5v-12.362c0-4.142 3.358-7.5 7.5-7.5s7.5 3.358 7.5 7.5v12.362c0 4.142-3.358 7.5-7.5 7.5z" fill="#423e4f"/></g><g><path d="m319.223 425.538c-4.142 0-7.5-3.358-7.5-7.5v-12.362c0-4.142 3.358-7.5 7.5-7.5s7.5 3.358 7.5 7.5v12.362c0 4.142-3.358 7.5-7.5 7.5z" fill="#423e4f"/></g><g><path d="m254.89 432.897c-8.667 0-16.911-3.754-22.615-10.299-2.722-3.123-2.396-7.86.726-10.582s7.86-2.397 10.582.726c2.855 3.276 6.977 5.155 11.307 5.155s8.452-1.879 11.308-5.155c2.722-3.122 7.46-3.446 10.582-.726 3.122 2.722 3.447 7.459.726 10.582-5.706 6.546-13.949 10.299-22.616 10.299z" fill="#423e4f"/></g></g></g></svg>