<svg id="Capa_1" enable-background="new 0 0 512 512" height="512" viewBox="0 0 512 512" width="512" xmlns="http://www.w3.org/2000/svg"><g><g><path d="m41.207 175.131h429.586v36.743c0 11.379-9.225 20.604-20.604 20.604h-388.378c-11.379 0-20.604-9.225-20.604-20.604z" fill="#17d9bf"/></g><g><path d="m123.622 211.874v-36.743h-82.415v36.743c0 11.379 9.225 20.604 20.604 20.604h82.414c-11.379-.001-20.603-9.225-20.603-20.604z" fill="#0accab"/></g><g><path d="m61.811 279.522h388.378c11.379 0 20.604 9.225 20.604 20.604v36.743h-429.586v-36.743c0-11.379 9.225-20.604 20.604-20.604z" fill="#17d9bf"/></g><g><path d="m144.225 279.522h-82.414c-11.379 0-20.604 9.225-20.604 20.604v36.743h82.414v-36.743c.001-11.379 9.225-20.604 20.604-20.604z" fill="#0accab"/></g><g><path d="m512 144.225c0-79.653-114.615-144.225-256-144.225s-256 64.572-256 144.225c0 22.758 18.449 41.207 41.207 41.207h429.586c22.758.001 41.207-18.448 41.207-41.207z" fill="#50e3cf"/></g><g><path d="m297.207 1.869c-13.417-1.223-27.177-1.869-41.207-1.869-141.385 0-256 64.572-256 144.225 0 22.758 18.449 41.207 41.207 41.207h41.207v-41.207c0-71.749 93.003-131.251 214.793-142.356z" fill="#17d9bf"/></g><g><path d="m0 367.775c0 79.653 114.615 144.225 256 144.225s256-64.572 256-144.225c0-22.758-18.449-41.207-41.207-41.207h-429.586c-22.758-.001-41.207 18.449-41.207 41.207z" fill="#50e3cf"/></g><g><path d="m64.73 232.478h382.54c12.991 0 23.522 10.531 23.522 23.522 0 12.991-10.531 23.522-23.522 23.522h-382.54c-12.991 0-23.522-10.531-23.522-23.522-.001-12.991 10.531-23.522 23.522-23.522z" fill="#fffddb"/></g><g><path d="m256 256c0-12.991 10.531-23.523 23.522-23.523h-214.792c-12.991 0-23.522 10.531-23.522 23.523 0 12.991 10.531 23.522 23.522 23.522h214.793c-12.992 0-23.523-10.531-23.523-23.522z" fill="#fff3ac"/></g><g><g><g><ellipse cx="169.623" cy="112.832" fill="#ffa0ab" rx="31.872" ry="25.381"/></g><g><ellipse cx="342.377" cy="112.832" fill="#ffa0ab" rx="31.872" ry="25.381"/></g><g><ellipse cx="256" cy="93.331" fill="#423e4f" rx="16.918" ry="18.932"/></g></g><g><path d="m206.19 89.504c-4.143 0-7.5-3.357-7.5-7.5 0-3.684-2.997-6.681-6.681-6.681s-6.681 2.997-6.681 6.681c0 4.143-3.357 7.5-7.5 7.5s-7.5-3.357-7.5-7.5c0-11.955 9.726-21.681 21.681-21.681s21.681 9.726 21.681 21.681c0 4.142-3.357 7.5-7.5 7.5z" fill="#423e4f"/></g><g><path d="m332.949 89.504c-4.143 0-7.5-3.357-7.5-7.5 0-3.684-2.997-6.681-6.681-6.681s-6.681 2.997-6.681 6.681c0 4.143-3.357 7.5-7.5 7.5s-7.5-3.357-7.5-7.5c0-11.955 9.726-21.681 21.681-21.681s21.681 9.726 21.681 21.681c0 4.142-3.357 7.5-7.5 7.5z" fill="#423e4f"/></g></g><g><path d="m297.207 510.131c-13.417 1.223-27.177 1.869-41.207 1.869-141.385 0-256-64.572-256-144.225 0-22.758 18.449-41.207 41.207-41.207h41.207v41.207c0 71.749 93.003 131.251 214.793 142.356z" fill="#17d9bf"/></g><g><circle cx="360.172" cy="440.166" fill="#17d9bf" r="20.604"/></g><g><circle cx="160.365" cy="396.341" fill="#17d9bf" r="20.604"/></g><g><circle cx="327.798" cy="380.888" fill="#17d9bf" r="15.453"/></g><g><circle cx="431.245" cy="124.543" fill="#17d9bf" r="15.453"/></g></g></svg>