<svg id="Capa_1" enable-background="new 0 0 512 512" height="512" viewBox="0 0 512 512" width="512" xmlns="http://www.w3.org/2000/svg"><g><g><path d="m472.338 101.473-25.892-69.045c-3.016-8.042-10.703-13.369-19.292-13.369h-227.296l-20.604 92.716h293.083v-10.302z" fill="#84dfff"/></g><g><path d="m65.554 32.428-25.892 69.045v10.302h160.196v-92.717h-115.012c-8.589 0-16.276 5.328-19.292 13.37z" fill="#2fcffc"/></g><g><path d="m152.215 32.428c3.016-8.042 10.703-13.369 19.292-13.369h-86.661c-8.589 0-16.276 5.328-19.292 13.369l-25.892 69.045v10.302h86.661v-10.302z" fill="#0fbfe8"/></g><g><path d="m472.338 304.163-41.207 85.761h-350.262l-41.207-85.761v-182.087h432.676z" fill="#fbf081"/></g><g><path d="m39.662 122.076v182.087l41.207 85.761h72.731v-267.848z" fill="#fad271"/></g><g><path d="m472.338 304.163c-15.866 6.137-27.286 15.327-37.257 23.351-15.295 12.309-26.344 21.202-51.085 21.202-24.739 0-35.789-8.893-51.082-21.202-16.778-13.503-37.658-30.307-76.92-30.307-39.261 0-60.14 16.805-76.916 30.307-15.293 12.309-26.342 21.202-51.08 21.202s-35.788-8.893-51.08-21.202c-9.97-8.024-21.39-17.215-37.256-23.351v168.175h432.676z" fill="#84dfff"/></g><g><path d="m153.6 344.271c-6.969 2.818-15.035 4.445-25.602 4.445-24.738 0-35.788-8.893-51.08-21.202-9.97-8.024-21.39-17.215-37.256-23.351v168.175h113.938z" fill="#2fcffc"/></g><g><path d="m0 472.338c0-11.379 9.225-20.604 20.604-20.604h470.793c11.379 0 20.604 9.225 20.604 20.604 0 11.379-9.225 20.604-20.604 20.604h-470.793c-11.379 0-20.604-9.225-20.604-20.604z" fill="#be9edf"/></g><g><path d="m105.72 472.338c0-11.379 9.225-20.604 20.604-20.604h-105.72c-11.379 0-20.604 9.225-20.604 20.604 0 11.379 9.225 20.604 20.604 20.604h105.72c-11.38 0-20.604-9.225-20.604-20.604z" fill="#938ed9"/></g><g><path d="m0 122.076c0-11.379 9.225-20.604 20.604-20.604h470.793c11.379 0 20.604 9.225 20.604 20.604 0 11.379-9.225 20.604-20.604 20.604h-470.793c-11.379 0-20.604-9.224-20.604-20.604z" fill="#be9edf"/></g><g><path d="m105.72 122.077c0-11.379 9.225-20.604 20.604-20.604h-105.72c-11.379 0-20.604 9.224-20.604 20.603 0 11.379 9.225 20.604 20.604 20.604h105.72c-11.38 0-20.604-9.224-20.604-20.603z" fill="#938ed9"/></g><g><path d="m268.628 183.885-9.312.716c-14.387 1.107-25.496 13.103-25.496 27.533v8.211h16.747c15.251 0 27.614-12.363 27.614-27.614-.001-5.168-4.4-9.243-9.553-8.846z" fill="#e7886e"/></g><g><path d="m276.82 211.466-44.361 3.412c-9.245.711-16.383 8.42-16.383 17.692v15.986h79.85v-19.398c-.001-10.336-8.801-18.484-19.106-17.692z" fill="#dc6646"/></g><g><path d="m267.609 212.175-35.15 2.704c-9.245.711-16.383 8.42-16.383 17.692v15.986h35.489v-18.724c-.001-9.158 6.965-16.787 16.044-17.658z" fill="#d85536"/></g><g><path d="m198.331 278.475v-14.621c0-9.272 7.139-16.981 16.383-17.692l79.85-6.142c10.306-.793 19.105 7.356 19.105 17.692v20.763z" fill="#e7886e"/></g><g><path d="m249.049 243.521-34.334 2.641c-9.245.711-16.383 8.42-16.383 17.692v14.621h35.489v-17.393c-.001-8.882 6.55-16.325 15.228-17.561z" fill="#dc6646"/></g><g><path d="m256 410.557c-10.536 0-19.83-6.9-22.879-16.985l-34.791-115.096h115.339l-34.791 115.096c-3.048 10.085-12.342 16.985-22.878 16.985z" fill="#ffd3a3"/></g><g><path d="m236.114 278.475h-37.783l34.791 115.096c3.049 10.086 12.342 16.985 22.879 16.985 6.894 0 13.242-2.967 17.671-7.834z" fill="#ffbe74"/></g><g><g><path d="m326.978 285.975h-40.072c-4.143 0-7.5-3.357-7.5-7.5s3.357-7.5 7.5-7.5h40.072c4.143 0 7.5 3.357 7.5 7.5s-3.358 7.5-7.5 7.5z" fill="#f4a960"/></g><g><path d="m256.035 285.975h-71.013c-4.143 0-7.5-3.357-7.5-7.5s3.357-7.5 7.5-7.5h71.013c4.143 0 7.5 3.357 7.5 7.5s-3.357 7.5-7.5 7.5z" fill="#f4a960"/></g></g></g></svg>