<svg id="Capa_1" enable-background="new 0 0 512 512" height="512" viewBox="0 0 512 512" width="512" xmlns="http://www.w3.org/2000/svg"><g><g><path d="m173.586 512c-22.758 0-41.207-18.449-41.207-41.207v-123.622h82.414v123.622c0 22.758-18.449 41.207-41.207 41.207z" fill="#ffd3a3"/></g><g><path d="m173.585 470.793v-27.815h41.207v-95.807h-82.414v123.622c0 22.758 18.449 41.207 41.207 41.207 7.508 0 14.541-2.018 20.604-5.526-12.313-7.126-20.604-20.431-20.604-35.681z" fill="#ffbe74"/></g><g><path d="m338.415 512c-22.758 0-41.207-18.449-41.207-41.207v-123.622h82.414v123.622c0 22.758-18.449 41.207-41.207 41.207z" fill="#ffd3a3"/></g><g><path d="m338.414 470.793v-27.815h41.207v-95.807h-82.414v123.622c0 22.758 18.449 41.207 41.207 41.207 7.508 0 14.541-2.018 20.604-5.526-12.313-7.126-20.604-20.431-20.604-35.681z" fill="#ffbe74"/></g><g><path d="m338.415 0c-45.517 0-82.415 36.898-82.415 82.414 0-45.516-36.898-82.414-82.414-82.414-45.516 0-82.414 36.898-82.414 82.414v247.243c0 45.516 36.898 82.414 82.414 82.414 45.516 0 82.414-36.898 82.414-82.414 0 45.516 36.898 82.414 82.414 82.414 45.516 0 82.414-36.898 82.414-82.414v-247.243c.001-45.516-36.897-82.414-82.413-82.414z" fill="#ff7591"/></g><g><path d="m173.586 329.658v-247.244c0-30.5 16.581-57.11 41.207-71.361-12.125-7.017-26.191-11.053-41.207-11.053-45.516 0-82.414 36.898-82.414 82.414v247.243c0 45.516 36.898 82.414 82.414 82.414 15.017 0 29.082-4.036 41.207-11.053-24.627-14.25-41.207-40.86-41.207-71.36z" fill="#fd5c70"/></g><g><path d="m338.414 329.658v-247.244c0-30.5 16.581-57.11 41.207-71.361-12.124-7.017-26.19-11.053-41.206-11.053-45.517 0-82.415 36.898-82.415 82.414v247.243c0 45.516 36.898 82.414 82.414 82.414 15.017 0 29.082-4.036 41.207-11.053-24.626-14.25-41.207-40.86-41.207-71.36z" fill="#fd5c70"/></g><g><path d="m256 384.163c-11.379 0-20.604-9.225-20.604-20.604v-315.046c0-11.379 9.225-20.604 20.604-20.604 11.379 0 20.604 9.225 20.604 20.604v315.047c0 11.379-9.225 20.603-20.604 20.603z" fill="#f24c68"/></g></g></svg>