<svg id="Capa_1" enable-background="new 0 0 512 512" height="512" viewBox="0 0 512 512" width="512" xmlns="http://www.w3.org/2000/svg"><g><g><path d="m285.376.062-21.663 1.666c-33.468 2.574-59.311 30.482-59.311 64.048v19.101h38.958c35.477 0 64.238-28.76 64.238-64.238 0-12.021-10.235-21.499-22.222-20.577z" fill="#ff7591"/></g><g><path d="m304.432 56.544-103.195 7.938c-21.506 1.654-38.112 19.587-38.112 41.157v37.187h185.751v-45.125c0-24.045-20.47-43.001-44.444-41.157z" fill="#fd5c70"/></g><g><path d="m283.006 58.192-81.769 6.29c-21.506 1.654-38.112 19.587-38.112 41.157v37.187h82.556v-43.557c-.001-21.304 16.204-39.049 37.325-41.077z" fill="#f24c68"/></g><g><path d="m121.846 235.702v-64.97c0-21.569 16.606-39.502 38.112-41.157l185.752-14.289c23.974-1.844 44.444 17.112 44.444 41.157v79.259z" fill="#ff7591"/></g><g><path d="m239.829 123.431-79.871 6.144c-21.506 1.654-38.112 19.587-38.112 41.157v64.971h82.556v-71.419c0-20.663 15.242-37.977 35.427-40.853z" fill="#fd5c70"/></g><g><path d="m413.403 236.389v181.891c0 5.794-4.697 10.49-10.49 10.49-27.955 0-50.616-22.662-50.616-50.616v-141.765z" fill="#ffbe74"/></g><g><path d="m98.597 236.389v181.891c0 5.794 4.697 10.49 10.49 10.49 27.955 0 50.616-22.662 50.616-50.616v-141.765z" fill="#f4a960"/></g><g><path d="m151.065 494.511c0-48.295 39.151-87.446 87.446-87.446h34.979c48.295 0 87.446 39.151 87.446 87.446 0 9.659-7.83 17.489-17.489 17.489h-174.893c-9.659 0-17.489-7.83-17.489-17.489z" fill="#f4a960"/></g><g><path d="m410.137 200.792c-2.137-11.474-14.676-17.712-25.086-12.435-24.286 12.311-70.183 30.537-129.051 30.537s-104.765-18.226-129.051-30.537c-10.41-5.277-22.95.962-25.086 12.435-2.14 11.493-3.266 23.398-3.266 35.596 0 76.909 44.681 142.212 106.773 165.634 14.6 5.507 24.396 19.311 24.396 34.916v.03c0 14.295 11.208 26.378 25.497 26.769 14.825.406 26.971-11.49 26.971-26.224v-.576c0-15.605 9.796-29.408 24.396-34.916 62.092-23.422 106.773-88.726 106.773-165.634 0-12.196-1.126-24.102-3.266-35.595z" fill="#ffd3a3"/></g><g><path d="m204.402 214.798c0-.199.007-.396.008-.595-34.094-6.228-60.84-17.421-77.461-25.846-10.41-5.277-22.95.962-25.086 12.436-2.14 11.493-3.266 23.398-3.266 35.596 0 76.908 44.681 142.212 106.773 165.634 14.601 5.507 24.396 19.311 24.396 34.916v.03c0 14.295 11.208 26.378 25.497 26.77 14.825.406 26.971-11.49 26.971-26.224v-.576c0-10.585 4.517-20.332 11.973-27.232-54.962-47.034-89.805-116.899-89.805-194.909z" fill="#ffbe74"/></g><g><path d="m192.343 328.373c-22.797 0-41.278-18.108-41.278-41.13 0-5.186 19.368-22.705 31.57-33.227 5.579-4.812 13.836-4.812 19.416 0 12.202 10.523 31.57 28.042 31.57 33.228 0 23.021-18.481 41.129-41.278 41.129z" fill="#f4a960"/></g><g><path d="m266.32 186.46v138.049c0 11.399 9.24 20.639 20.639 20.639 11.399 0 20.639-9.24 20.639-20.639v-65.812c0-11.399 9.24-20.639 20.639-20.639 11.399 0 20.639 9.24 20.639 20.639 0 11.399 9.24 20.639 20.639 20.639 11.399 0 20.639-9.24 20.639-20.639v-72.237z" fill="#ff7591"/></g></g></svg>