<svg id="Capa_1" enable-background="new 0 0 512 512" height="512" viewBox="0 0 512 512" width="512" xmlns="http://www.w3.org/2000/svg"><g><g><path d="m459.018 361.56c-4.142 0-7.5-3.357-7.5-7.5v-257.74c0-7.059-5.743-12.802-12.802-12.802s-12.802 5.743-12.802 12.802v60.905c0 15.33-12.472 27.802-27.802 27.802h-62.597c-4.142 0-7.5-3.357-7.5-7.5s3.358-7.5 7.5-7.5h62.597c7.059 0 12.802-5.743 12.802-12.802v-60.905c0-15.33 12.472-27.802 27.802-27.802s27.802 12.472 27.802 27.802v257.74c0 4.142-3.358 7.5-7.5 7.5z" fill="#fad271"/></g><g><path d="m52.982 361.56c-4.142 0-7.5-3.357-7.5-7.5v-257.74c0-15.33 12.472-27.802 27.802-27.802s27.802 12.472 27.802 27.802v60.905c0 7.059 5.743 12.802 12.802 12.802h62.597c4.142 0 7.5 3.357 7.5 7.5s-3.358 7.5-7.5 7.5h-62.597c-15.33 0-27.802-12.472-27.802-27.802v-60.905c0-7.059-5.743-12.802-12.802-12.802s-12.802 5.744-12.802 12.802v257.74c0 4.142-3.357 7.5-7.5 7.5z" fill="#fad271"/></g><g><path d="m337.198 79.459c-3.612 0-6.794-2.616-7.394-6.296-.397-2.355-10.532-58.163-73.804-58.163-26.761 0-47.288 9.782-61.011 29.076-10.332 14.525-12.77 28.942-12.793 29.087-.666 4.087-4.522 6.863-8.607 6.197-4.088-.665-6.863-4.519-6.198-8.607.119-.728 3.044-18.035 15.375-35.371 11.481-16.141 33.505-35.382 73.234-35.382s61.753 19.241 73.234 35.382c12.331 17.336 15.257 34.644 15.375 35.371.665 4.089-2.11 7.942-6.198 8.607-.407.067-.813.099-1.213.099z" fill="#fad271"/></g><g><path d="m256 415.736h105.569l36.543-61.675v-163.845c0-11.212-9.089-20.302-20.302-20.302-11.212 0-20.302-9.089-20.302-20.302v-81.207c0-11.212-9.089-20.302-20.302-20.302s-20.302 9.089-20.302 20.302c0 33.637-27.268 60.905-60.905 60.905h-.012c-33.634 0-60.898-27.268-60.894-60.902.002-11.213-9.088-20.305-20.302-20.305-11.212 0-20.302 9.089-20.302 20.302v81.207c0 11.212-9.089 20.302-20.302 20.302-11.212 0-20.302 9.089-20.302 20.302v163.844l36.543 61.675h105.572z" fill="#fbf081"/></g><g><path d="m256 415.736h105.569l36.543-61.675v-26.492c-3.239.117-6.487.197-9.755.197-109.415 0-203.393-66.036-244.295-160.419-2.924 1.631-6.287 2.569-9.873 2.569-11.212 0-20.302 9.089-20.302 20.302v163.842l36.543 61.675h105.57z" fill="#fad271"/></g><g><path d="m134.189 512h243.621c11.212 0 20.302-9.089 20.302-20.302v-137.638c-10.422 4.031-17.924 10.068-24.474 15.339-10.047 8.086-17.305 13.928-33.557 13.928-16.251 0-23.51-5.842-33.556-13.927-11.021-8.87-24.737-19.909-50.529-19.909-25.79 0-39.506 11.039-50.526 19.909-10.046 8.086-17.304 13.927-33.554 13.927s-23.509-5.842-33.555-13.927c-6.55-5.271-14.051-11.308-24.473-15.34v137.638c0 11.213 9.089 20.302 20.301 20.302z" fill="#2fcffc"/></g><g><path d="m270.522 210.73-10.709.824c-16.544 1.273-29.32 15.068-29.32 31.662v9.443h19.258c17.538 0 31.755-14.217 31.755-31.755.001-5.944-5.059-10.629-10.984-10.174z" fill="#e7886e"/></g><g><path d="m279.942 242.449-51.014 3.924c-10.631.818-18.84 9.683-18.84 20.345v18.383h91.825v-22.307c-.001-11.886-10.12-21.257-21.971-20.345z" fill="#dc6646"/></g><g><path d="m269.35 243.263-40.422 3.109c-10.631.818-18.84 9.683-18.84 20.345v18.383h40.811v-21.532c0-10.53 8.01-19.303 18.451-20.305z" fill="#d85536"/></g><g><path d="m189.682 319.506v-16.814c0-10.663 8.209-19.528 18.84-20.345l91.825-7.063c11.851-.912 21.971 8.459 21.971 20.345v23.877z" fill="#e7886e"/></g><g><path d="m248.006 279.31-39.484 3.037c-10.631.818-18.84 9.683-18.84 20.345v16.814h40.811v-20.001c0-10.214 7.535-18.773 17.513-20.195z" fill="#dc6646"/></g><g><path d="m256 471.396c-12.117 0-22.804-7.934-26.31-19.533l-40.008-132.357h132.636l-40.008 132.358c-3.506 11.598-14.193 19.532-26.31 19.532z" fill="#ffd3a3"/></g><g><path d="m233.131 319.506h-43.449l40.008 132.357c3.506 11.598 14.193 19.533 26.31 19.533 7.928 0 15.228-3.411 20.321-9.008z" fill="#ffbe74"/></g><g><g><path d="m197.685 174.804c-4.142 0-7.5-3.357-7.5-7.5v-12.181c0-4.143 3.358-7.5 7.5-7.5s7.5 3.357 7.5 7.5v12.181c0 4.142-3.358 7.5-7.5 7.5z" fill="#423e4f"/></g><g><path d="m314.315 174.804c-4.142 0-7.5-3.357-7.5-7.5v-12.181c0-4.143 3.358-7.5 7.5-7.5s7.5 3.357 7.5 7.5v12.181c0 4.142-3.357 7.5-7.5 7.5z" fill="#423e4f"/></g><g><path d="m256 182.056c-8.573 0-16.725-3.713-22.367-10.187-2.721-3.123-2.396-7.86.727-10.582 3.123-2.721 7.859-2.396 10.582.727 2.792 3.204 6.823 5.042 11.059 5.042s8.266-1.838 11.059-5.042c2.722-3.123 7.459-3.447 10.582-.727 3.123 2.722 3.448 7.459.727 10.582-5.644 6.474-13.796 10.187-22.369 10.187z" fill="#423e4f"/></g></g><g><path d="m337.622 327.006h-49.684c-4.142 0-7.5-3.357-7.5-7.5s3.358-7.5 7.5-7.5h49.684c4.142 0 7.5 3.357 7.5 7.5s-3.358 7.5-7.5 7.5z" fill="#f4a960"/></g><g><path d="m257.486 327.006h-83.108c-4.142 0-7.5-3.357-7.5-7.5s3.358-7.5 7.5-7.5h83.108c4.142 0 7.5 3.357 7.5 7.5s-3.358 7.5-7.5 7.5z" fill="#f4a960"/></g></g></svg>