<svg id="Capa_1" enable-background="new 0 0 512 512" height="512" viewBox="0 0 512 512" width="512" xmlns="http://www.w3.org/2000/svg"><g><g><path d="m214.793-131.533h82.415v386.688h-82.415z" fill="#fbf081" transform="matrix(0 1 -1 0 317.811 -194.189)"/></g><g><path d="m39.662 196.044h432.676v295.353h-432.676z" fill="#fffddb"/></g><g><path d="m183.887 288.451h-82.414c-11.379 0-20.604 9.225-20.604 20.604v182.342h123.622v-182.343c0-11.379-9.225-20.603-20.604-20.603z" fill="#84dfff"/></g><g><path d="m146.927 288.451h-45.454c-11.379 0-20.604 9.225-20.604 20.604v182.342h45.454v-182.343c0-11.379 9.225-20.603 20.604-20.603z" fill="#2fcffc"/></g><g><path d="m412.588 317.242h-148.347v91.74c0 11.379 9.225 20.604 20.604 20.604h107.139c11.379 0 20.604-9.225 20.604-20.604z" fill="#84dfff"/></g><g><path d="m307.509 408.982v-91.74h-43.268v91.74c0 11.379 9.225 20.604 20.604 20.604h43.268c-11.379 0-20.604-9.225-20.604-20.604z" fill="#2fcffc"/></g><g><path d="m0 491.396c0-11.379 9.225-20.604 20.604-20.604h470.793c11.379 0 20.604 9.225 20.604 20.604 0 11.379-9.225 20.604-20.604 20.604h-470.793c-11.379 0-20.604-9.225-20.604-20.604z" fill="#be9edf"/></g><g><path d="m39.662 20.604c0-11.379 9.225-20.604 20.604-20.604h391.469c11.379 0 20.604 9.225 20.604 20.604 0 11.379-9.225 20.604-20.604 20.604h-391.469c-11.379-.001-20.604-9.225-20.604-20.604z" fill="#be9edf"/></g><g><path d="m145.382 20.604c0-11.379 9.224-20.604 20.603-20.604h-105.719c-11.379 0-20.604 9.225-20.604 20.604 0 11.379 9.225 20.604 20.604 20.604h105.72c-11.38-.001-20.604-9.225-20.604-20.604z" fill="#938ed9"/></g><g><path d="m102.4 164.829h102.4v31.215c0 28.277-22.923 51.2-51.2 51.2-28.277 0-51.2-22.923-51.2-51.2z" fill="#fbf081"/></g><g><path d="m307.2 164.829h102.4v31.215c0 28.277-22.923 51.2-51.2 51.2-28.277 0-51.2-22.923-51.2-51.2z" fill="#fbf081"/></g><g><path d="m466.845 92.145c-3.759-6.051-10.378-9.731-17.501-9.731h-386.688c-7.124 0-13.742 3.68-17.501 9.731l-38.95 62.696c-4.056 6.529-6.205 14.061-6.205 21.746v19.457c0 28.277 22.923 51.2 51.2 51.2 28.277 0 51.2-22.923 51.2-51.2v-31.215h102.4v31.215c0 28.277 22.923 51.2 51.2 51.2 28.277 0 51.2-22.923 51.2-51.2v-31.215h102.4v31.215c0 28.277 22.923 51.2 51.2 51.2 28.277 0 51.2-22.923 51.2-51.2v-19.457c0-7.685-2.149-15.217-6.205-21.745z" fill="#be9edf"/></g><g><path d="m274.489 288.451h33.02v28.791c0 17.069-13.837 30.905-30.905 30.905-17.069 0-30.905-13.837-30.905-30.905-.001-15.901 12.889-28.791 28.79-28.791z" fill="#be9edf"/></g><g><path d="m307.509 288.451h61.811v28.791c0 17.069-13.837 30.905-30.905 30.905-17.069 0-30.905-13.837-30.905-30.905v-28.791z" fill="#fbf081"/></g><g><path d="m369.32 288.451h33.02c15.901 0 28.791 12.89 28.791 28.791 0 17.069-13.837 30.905-30.905 30.905-17.069 0-30.905-13.837-30.905-30.905v-28.791z" fill="#be9edf"/></g><g><path d="m153.6 82.414h-90.944c-7.124 0-13.742 3.68-17.501 9.731l-38.95 62.696c-4.056 6.529-6.205 14.061-6.205 21.746v19.457c0 28.277 22.923 51.2 51.2 51.2 28.277 0 51.2-22.923 51.2-51.2v-31.215z" fill="#938ed9"/></g><g><g><path d="m136.625 407.726c-9.816 0-17.802-7.985-17.802-17.802v-41.207c0-9.816 7.986-17.803 17.802-17.803 4.142 0 7.5 3.357 7.5 7.5s-3.358 7.5-7.5 7.5c-1.545 0-2.802 1.257-2.802 2.803v41.207c0 1.545 1.257 2.802 2.802 2.802 4.142 0 7.5 3.357 7.5 7.5s-3.358 7.5-7.5 7.5z" fill="#fff"/></g></g></g></svg>