<svg id="Capa_1" enable-background="new 0 0 512 512" height="512" viewBox="0 0 512 512" width="512" xmlns="http://www.w3.org/2000/svg"><g><g><g><path d="m371.903 161.684c-16.188 16.188-37.602 24.075-59.117 23.738-4.112-.064-7.503-3.455-7.567-7.567-.337-21.515 7.55-42.928 23.738-59.117 16.189-16.188 37.602-24.074 59.117-23.738 4.112.064 7.503 3.455 7.567 7.567.337 21.515-7.55 42.929-23.738 59.117z" fill="#17d9bf"/></g></g><g><path d="m312.786 185.422c18.117.283 36.149-5.288 51.063-16.714-22.53-28.02-16.439-62.934-16.275-63.848-6.692 3.628-12.977 8.237-18.617 13.877-16.189 16.188-24.075 37.602-23.738 59.117.064 4.114 3.455 7.504 7.567 7.568z" fill="#0accab"/></g><g><g><path d="m140.097 161.684c16.188 16.188 37.602 24.075 59.117 23.738 4.112-.064 7.503-3.455 7.567-7.567.337-21.515-7.55-42.928-23.738-59.117s-37.602-24.074-59.117-23.738c-4.112.064-7.503 3.455-7.567 7.567-.337 21.515 7.55 42.929 23.738 59.117z" fill="#50e3cf"/></g></g><g><path d="m121.306 132.131c3.924 10.815 10.168 20.929 18.791 29.553 16.189 16.188 37.602 24.075 59.117 23.738 4.112-.064 7.503-3.455 7.567-7.567.235-14.997-3.539-29.94-11.322-43.103-32.298 8.071-58.354 2.893-74.153-2.621z" fill="#17d9bf"/></g><g><g><path d="m171.168 109.588c10.735 25.916 31.276 44.883 55.789 54.59 4.685 1.855 10.113-.393 12.114-5.018 10.469-24.197 11.582-52.134.848-78.05s-31.276-44.883-55.789-54.59c-4.685-1.855-10.113.393-12.114 5.018-10.47 24.197-11.583 52.134-.848 78.05z" fill="#50e3cf"/></g></g><g><path d="m165.982 50.187c-4.256 19.312-2.88 39.927 5.186 59.4 10.735 25.916 31.276 44.884 55.789 54.591 4.685 1.855 10.113-.393 12.114-5.018 10.469-24.197 11.582-52.134.848-78.05-40.508 9.358-62.655-12.084-73.937-30.923z" fill="#17d9bf"/></g><g><path d="m340.832 109.588c-10.735 25.916-31.276 44.883-55.789 54.59-4.685 1.855-10.113-.393-12.114-5.018-10.469-24.197-11.582-52.134-.848-78.05s31.276-44.883 55.789-54.59c4.685-1.855 10.113.393 12.114 5.018 10.47 24.197 11.583 52.134.848 78.05z" fill="#50e3cf"/></g><g><path d="m348.073 0c-62.23 0-112.677 50.447-112.677 112.677v42.902c0 11.172 8.687 20.687 19.852 21.084 11.722.417 21.355-8.962 21.355-20.59v-22.149c0-39.827 32.286-72.113 72.113-72.113 17.357 0 31.372-14.309 30.893-31.774-.461-16.834-14.696-30.037-31.536-30.037z" fill="#0accab"/></g><g><path d="m284.33 86.535c-16.5 0-29.875-13.376-29.875-29.875 0-2.951.435-5.799 1.232-8.491-12.784 18.275-20.29 40.514-20.29 64.508v42.902c0 11.172 8.687 20.687 19.852 21.084 11.722.417 21.355-8.962 21.355-20.59v-22.149c0-19.514 7.764-37.206 20.356-50.188-3.838 1.792-8.115 2.799-12.63 2.799z" fill="#02ba97"/></g><g><path d="m413.593 225.288c-36.771-87.996-157.593-84.128-157.593-84.128s-120.822-3.868-157.593 84.128 74.419 286.712 157.593 286.712 194.365-198.716 157.593-286.712z" fill="#ff7591"/></g><g><path d="m211.421 225.288c19.903-47.628 64.423-68.337 101.086-77.321-31.075-7.614-56.507-6.807-56.507-6.807s-120.821-3.868-157.593 84.128 74.419 286.712 157.593 286.712c18.113 0 37.554-9.427 56.507-25.079-68.078-56.222-129.85-192.8-101.086-261.633z" fill="#fd5c70"/></g><g><g><g><ellipse cx="173.951" cy="246.49" fill="#fff" rx="30.274" ry="24.109"/></g><g><ellipse cx="338.049" cy="246.49" fill="#fff" rx="30.274" ry="24.109"/></g><g><path d="m280.409 227.966c0-15.085-10.928-16.502-24.409-16.502s-24.409 1.417-24.409 16.502 10.928 27.313 24.409 27.313 24.409-12.228 24.409-27.313z" fill="#423e4f"/></g></g><g><path d="m179.013 225.207c-4.142 0-7.5-3.357-7.5-7.5v-12.362c0-4.143 3.358-7.5 7.5-7.5s7.5 3.357 7.5 7.5v12.362c0 4.143-3.358 7.5-7.5 7.5z" fill="#423e4f"/></g><g><path d="m332.988 225.207c-4.142 0-7.5-3.357-7.5-7.5v-12.362c0-4.143 3.358-7.5 7.5-7.5s7.5 3.357 7.5 7.5v12.362c0 4.143-3.358 7.5-7.5 7.5z" fill="#423e4f"/></g></g><g><path d="m256 340.248c-4.142 0-7.5-3.357-7.5-7.5v-12.361c0-4.143 3.358-7.5 7.5-7.5s7.5 3.357 7.5 7.5v12.361c0 4.143-3.358 7.5-7.5 7.5z" fill="#f24c68"/></g><g><path d="m256 426.784c-4.142 0-7.5-3.357-7.5-7.5v-12.362c0-4.143 3.358-7.5 7.5-7.5s7.5 3.357 7.5 7.5v12.362c0 4.143-3.358 7.5-7.5 7.5z" fill="#f24c68"/></g><g><path d="m317.811 383.516c-4.142 0-7.5-3.357-7.5-7.5v-12.361c0-4.143 3.358-7.5 7.5-7.5s7.5 3.357 7.5 7.5v12.361c0 4.142-3.358 7.5-7.5 7.5z" fill="#f24c68"/></g><g><path d="m194.189 383.516c-4.142 0-7.5-3.357-7.5-7.5v-12.361c0-4.143 3.358-7.5 7.5-7.5s7.5 3.357 7.5 7.5v12.361c0 4.142-3.358 7.5-7.5 7.5z" fill="#f24c68"/></g></g></svg>