<svg id="Capa_1" enable-background="new 0 0 512 512" height="512" viewBox="0 0 512 512" width="512" xmlns="http://www.w3.org/2000/svg"><g><g><path d="m317.811 133.924h-123.622s-82.414 56.043-82.414 159.378c0 76.055 38.813 158.625 59.307 196.922 7.173 13.405 21.134 21.776 36.339 21.776h97.158c15.205 0 29.165-8.371 36.339-21.777 20.493-38.296 59.307-120.867 59.307-196.922 0-103.334-82.414-159.377-82.414-159.377z" fill="#ff7591"/></g><g><path d="m268.24 490.223c-20.493-38.296-59.307-120.867-59.307-196.922 0-103.335 82.415-159.378 82.415-159.378h-97.158s-82.414 56.043-82.414 159.378c0 76.055 38.813 158.625 59.307 196.922 7.172 13.406 21.133 21.777 36.338 21.777h97.158c-15.205 0-29.165-8.371-36.339-21.777z" fill="#fd5c70"/></g><g><path d="m286.905 20.604h-61.81l-30.906 103.018h123.622z" fill="#fff3ac"/></g><g><path d="m225.095 20.604-30.906 103.018h41.207l30.906-103.018z" fill="#f9e99b"/></g><g><path d="m297.207 41.207h-82.415c-11.379 0-20.604-9.225-20.604-20.604.001-11.378 9.226-20.603 20.605-20.603h82.415c11.379 0 20.604 9.225 20.604 20.604-.001 11.379-9.226 20.603-20.605 20.603z" fill="#fffddb"/></g><g><path d="m232.048 20.604c0-11.379 9.225-20.604 20.604-20.604h-37.859c-11.379 0-20.604 9.225-20.604 20.604 0 11.379 9.225 20.604 20.604 20.604h37.859c-11.379-.001-20.604-9.225-20.604-20.604z" fill="#fff3ac"/></g><g><path d="m328.113 144.225h-144.226c-11.379 0-20.604-9.225-20.604-20.604 0-11.379 9.225-20.604 20.604-20.604h144.225c11.379 0 20.604 9.225 20.604 20.604 0 11.38-9.224 20.604-20.603 20.604z" fill="#fffddb"/></g><g><path d="m221.017 123.622c0-11.379 9.225-20.604 20.604-20.604h-57.733c-11.379 0-20.604 9.225-20.604 20.604 0 11.379 9.225 20.604 20.604 20.604h57.733c-11.38-.001-20.604-9.225-20.604-20.604z" fill="#fff3ac"/></g><g><ellipse cx="256" cy="278.149" fill="#fffddb" rx="82.414" ry="103.018"/></g><g><path d="m256 278.149c0-38.131 16.574-71.42 41.207-89.233-12.122-8.766-26.195-13.785-41.207-13.785-45.516 0-82.414 46.123-82.414 103.018s36.898 103.018 82.414 103.018c15.012 0 29.085-5.019 41.207-13.785-24.633-17.813-41.207-51.103-41.207-89.233z" fill="#fff3ac"/></g><g><g><path d="m196.817 435.427c-4.143 0-7.5-3.357-7.5-7.5v-12.362c0-4.143 3.357-7.5 7.5-7.5s7.5 3.357 7.5 7.5v12.362c0 4.142-3.357 7.5-7.5 7.5z" fill="#423e4f"/></g><g><path d="m315.183 435.427c-4.143 0-7.5-3.357-7.5-7.5v-12.362c0-4.143 3.357-7.5 7.5-7.5s7.5 3.357 7.5 7.5v12.362c0 4.142-3.358 7.5-7.5 7.5z" fill="#423e4f"/></g><g><path d="m256 442.785c-8.669 0-16.911-3.754-22.615-10.299-2.722-3.123-2.396-7.86.727-10.582 3.122-2.721 7.859-2.396 10.582.727 2.854 3.275 6.976 5.154 11.307 5.154s8.452-1.879 11.307-5.154c2.723-3.123 7.457-3.448 10.582-.727 3.122 2.722 3.448 7.459.727 10.582-5.706 6.545-13.948 10.299-22.617 10.299z" fill="#423e4f"/></g></g><g><path d="m230.558 279.879c-1.748 0-3.503-.607-4.925-1.846-8.376-7.3-13.181-17.849-13.181-28.941s4.805-21.641 13.181-28.94c3.122-2.721 7.859-2.396 10.582.727 2.722 3.123 2.396 7.86-.727 10.582-5.107 4.45-8.036 10.877-8.036 17.632s2.929 13.183 8.036 17.633c3.122 2.722 3.448 7.459.727 10.582-1.484 1.7-3.565 2.571-5.657 2.571z" fill="#0accab"/></g><g><circle cx="256" cy="289.285" fill="#ff7591" r="41.207"/></g><g><path d="m266.765 329.062c-6.845-15.019-10.765-32.391-10.765-50.913 0-10.404 1.242-20.443 3.537-29.91-1.167-.099-2.344-.161-3.537-.161-22.758 0-41.207 18.449-41.207 41.207s18.449 41.207 41.207 41.207c3.726 0 7.333-.503 10.765-1.43z" fill="#fd5c70"/></g></g></svg>