<svg id="Capa_1" enable-background="new 0 0 512 512" height="512" viewBox="0 0 512 512" width="512" xmlns="http://www.w3.org/2000/svg"><g><g><circle cx="256" cy="84.823" fill="#84dfff" r="84.823"/></g><g><path d="m317.167 26.091c-23.142 2.671-44.226 12.198-61.167 26.49-16.941-14.292-38.025-23.819-61.167-26.491-14.64 15.243-23.656 35.929-23.656 58.733 0 46.846 37.977 84.823 84.823 84.823s84.823-37.977 84.823-84.823c0-22.804-9.016-43.49-23.656-58.732z" fill="#2fcffc"/></g><g><circle cx="330.516" cy="141.051" fill="#fffddb" r="84.823"/></g><g><path d="m245.693 141.051c0 27.632 13.219 52.17 33.671 67.657 13.304-19.21 21.105-42.521 21.105-67.657s-7.801-48.447-21.105-67.657c-20.451 15.487-33.671 40.025-33.671 67.657z" fill="#fff3ac"/></g><g><circle cx="181.484" cy="141.051" fill="#ff7591" r="84.823"/></g><g><path d="m144.724 141.051c0-38.496 25.653-70.983 60.791-81.348-7.622-2.248-15.682-3.475-24.032-3.475-46.847 0-84.823 37.977-84.823 84.823s37.977 84.823 84.823 84.823c8.35 0 16.41-1.227 24.032-3.475-35.137-10.365-60.791-42.852-60.791-81.348z" fill="#fd5c70"/></g><g><path d="m385.658 265.446 45.457-109.737c4.643-11.21-1.355-23.995-12.947-27.578-54.862-16.956-112.022-13.122-162.163 7.652v129.663z" fill="#ffd3a3"/></g><g><path d="m299.01 122.525c-14.74 3.072-29.142 7.514-43.005 13.258v129.663h129.654l15.872-38.316c-23.94-43.882-59.21-79.854-102.521-104.605z" fill="#ffbe74"/></g><g><path d="m385.659 265.446-91.584 221.115c-14.048 33.918-62.092 33.918-76.141.001l-91.591-221.116-45.458-109.737c-4.643-11.21 1.355-23.995 12.947-27.578 54.862-16.957 112.023-13.122 162.173 7.652 56.641 23.466 104.336 68.538 129.654 129.663z" fill="#ffd3a3"/></g><g><path d="m208.756 265.446-60.931-147.384c-18.027 1.246-36.132 4.549-53.993 10.069-11.592 3.583-17.591 16.368-12.947 27.578l45.457 109.737 91.592 221.116c14.049 33.917 62.093 33.917 76.141-.001l3.136-7.572z" fill="#ffbe74"/></g><g><g><g><ellipse cx="172.932" cy="264.996" fill="#ffa0ab" rx="30.241" ry="24.082"/></g><g><ellipse cx="336.847" cy="264.996" fill="#ffa0ab" rx="30.241" ry="24.082"/></g></g><g><path d="m190.557 249.314c-4.143 0-7.5-3.358-7.5-7.5v-12.362c0-4.142 3.357-7.5 7.5-7.5s7.5 3.358 7.5 7.5v12.362c0 4.142-3.358 7.5-7.5 7.5z" fill="#423e4f"/></g><g><path d="m319.224 249.314c-4.143 0-7.5-3.358-7.5-7.5v-12.362c0-4.142 3.357-7.5 7.5-7.5s7.5 3.358 7.5 7.5v12.362c0 4.142-3.358 7.5-7.5 7.5z" fill="#423e4f"/></g><g><path d="m254.89 256.673c-8.668 0-16.911-3.754-22.615-10.3-2.722-3.123-2.396-7.86.727-10.582 3.122-2.721 7.859-2.397 10.582.727 2.854 3.275 6.976 5.154 11.307 5.154s8.452-1.879 11.307-5.154c2.722-3.124 7.458-3.448 10.582-.727 3.122 2.721 3.448 7.459.727 10.582-5.706 6.546-13.949 10.3-22.617 10.3z" fill="#423e4f"/></g></g><g><circle cx="252.441" cy="371.14" fill="#ffbe74" r="20.604"/></g><g><circle cx="305.917" cy="335.556" fill="#ffbe74" r="15.453"/></g></g></svg>