<svg id="Capa_1" enable-background="new 0 0 512 512" height="512" viewBox="0 0 512 512" width="512" xmlns="http://www.w3.org/2000/svg"><g><g><path d="m94.707 118.566c-1.748 0-3.503-.607-4.925-1.846-11.748-10.238-18.485-25.03-18.485-40.584s6.738-30.346 18.485-40.584c3.123-2.721 7.86-2.396 10.582.727 2.721 3.123 2.396 7.86-.727 10.582-8.478 7.389-13.341 18.059-13.341 29.276s4.862 21.887 13.341 29.275c3.123 2.722 3.448 7.459.727 10.582-1.483 1.701-3.565 2.572-5.657 2.572z" fill="#0accab"/></g><g><circle cx="132.869" cy="136.425" fill="#ff7591" r="61.811"/></g><g><path d="m132.869 198.236c34.137 0 61.811-27.674 61.811-61.811s-27.674-61.811-61.811-61.811c-.073 0-.146.005-.219.006-13.147 14.842-20.385 33.836-20.385 53.715v4.15c-10.745 4.428-20.497 11.145-28.564 19.857-2.679 2.893-5.121 5.957-7.326 9.16 9.619 21.637 31.287 36.734 56.494 36.734z" fill="#fd5c70"/></g><g><path d="m256 244.261h-176.433l155.829 247.135h41.208l155.829-247.135z" fill="#2fcffc"/></g><g><path d="m146.78 244.261h-67.213l155.829 247.135h41.208l13.003-20.622z" fill="#0fbfe8"/></g><g><path d="m291.687.075-26.317 2.025c-40.658 3.128-72.053 37.031-72.053 77.809v23.205h47.328c43.1 0 78.039-34.939 78.039-78.039-.001-14.606-12.435-26.12-26.997-25z" fill="#fffddb"/></g><g><path d="m314.837 68.693-125.366 9.644c-26.126 2.01-46.3 23.795-46.3 49.999v45.177h225.659v-54.82c0-29.213-24.868-52.241-53.993-50z" fill="#fff3ac"/></g><g><path d="m288.808 70.695-99.337 7.641c-26.126 2.01-46.3 23.795-46.3 49.999v45.176h100.293v-52.915c-.001-25.88 19.685-47.439 45.344-49.901z" fill="#f9e99b"/></g><g><path d="m93.024 248.731v-41.319c0-26.203 20.174-47.989 46.3-49.999l225.659-17.358c29.125-2.24 53.993 20.788 53.993 49.999v58.678h-325.952z" fill="#fffddb"/></g><g><path d="m338.933 233.96 41.719-128.366h44.298c11.379 0 20.604-9.225 20.604-20.604 0-11.379-9.225-20.604-20.604-20.604h-52.478c-17.851 0-33.672 11.494-39.189 28.471l-45.859 141.103z" fill="#899bb0"/></g><g><path d="m327.204 194.578c-13.043-3.554-20.742-16.995-17.219-30.04l-22.562 69.421h51.509l17.956-55.249c-4.086 12.243-17.076 19.304-29.684 15.868z" fill="#6c8199"/></g><g><path d="m236.355 149.949-97.031 7.464c-26.126 2.01-46.3 23.795-46.3 49.999v41.319h100.293v-49.154c0-25.1 18.516-46.134 43.038-49.628z" fill="#fff3ac"/></g><g><path d="m49.964 244.261c0-11.379 9.225-20.604 20.604-20.604h370.865c11.379 0 20.604 9.225 20.604 20.604 0 11.379-9.225 20.604-20.604 20.604h-370.866c-11.379 0-20.603-9.224-20.603-20.604z" fill="#84dfff"/></g><g><path d="m163.284 491.396c0-11.379 9.225-20.604 20.604-20.604h144.225c11.379 0 20.604 9.225 20.604 20.604 0 11.379-9.225 20.604-20.604 20.604h-144.226c-11.379 0-20.603-9.225-20.603-20.604z" fill="#84dfff"/></g><g><path d="m269.003 491.396c0-11.379 9.225-20.604 20.604-20.604h-105.72c-11.379 0-20.604 9.225-20.604 20.604 0 11.379 9.225 20.604 20.604 20.604h105.72c-11.379 0-20.604-9.225-20.604-20.604z" fill="#2fcffc"/></g><g><path d="m139.155 244.261c0-11.379 9.225-20.604 20.604-20.604h-89.192c-11.379 0-20.604 9.225-20.604 20.604 0 11.379 9.225 20.604 20.604 20.604h89.191c-11.379 0-20.603-9.225-20.603-20.604z" fill="#2fcffc"/></g><g><path d="m193.288 213.356v113.32c0 11.379 9.225 20.604 20.604 20.604 11.379 0 20.604-9.225 20.604-20.604v-41.207c0-11.379 9.225-20.604 20.604-20.604 11.379 0 20.604 9.225 20.604 20.604 0 11.379 9.225 20.604 20.604 20.604 11.379 0 20.604-9.225 20.604-20.604v-61.811h-26.138l3.348-10.302z" fill="#fffddb"/></g></g></svg>