<svg id="Capa_1" enable-background="new 0 0 512 512" height="512" viewBox="0 0 512 512" width="512" xmlns="http://www.w3.org/2000/svg"><path d="m256 211h-226v286h60l30-15h136 196v-151l30-30v-90z" fill="#ffb725"/><path d="m452 331 30-30v-90h-226v271h196z" fill="#fa8b28"/><path d="m392 0h-136-136c-33.137 0-60 26.862-60 60l30 31h166 166l30-31c0-33.138-26.863-60-60-60z" fill="#ff7cb9"/><path d="m452 60c0-33.138-26.863-60-60-60h-136v91h166z" fill="#ff5e95"/><path d="m512 151-256 38-256-38 60-91h196 196z" fill="#fff2fb"/><path d="m461 151h-51.001l-30.999 42.042 30.999 26.958c0 28.167 22.834 51 51.001 51 28.165 0 51-22.833 51-51v-69z" fill="#ff7cb9"/><path d="m512 220v-69h-51v120c28.165 0 51-22.833 51-51z" fill="#ff5e95"/><path d="m358 151h-51.001l-29.999 42.042 29.999 26.958c0 28.167 22.834 51 51.001 51 28.165 0 52-22.833 52-51v-69z" fill="#ffdfea"/><path d="m410 220v-69h-52v120c28.165 0 52-22.833 52-51z" fill="#ffbfbf"/><path d="m256 151h-51.001l-29.999 42.042 29.999 26.958c0 28.167 22.834 51 51.001 51 28.165 0 51-22.833 51-51v-69z" fill="#ff7cb9"/><path d="m307 220v-69h-51v120c28.166 0 51-22.833 51-51z" fill="#ff5e95"/><path d="m154 151h-52.001l-29.999 42.042 29.999 26.958c0 28.167 23.834 51 52.001 51 28.165 0 51-22.833 51-51v-69z" fill="#ffdfea"/><path d="m205 220v-69h-51v120c28.165 0 51-22.833 51-51z" fill="#ffbfbf"/><path d="m51 151h-51v69c0 28.167 22.833 51 51 51 28.165 0 51-22.833 51-51v-69z" fill="#ff7cb9"/><path d="m102 220v-69h-51v120c28.165 0 51-22.833 51-51z" fill="#ff5e95"/><path d="m271 497h211v-45h-241z" fill="#ff5e95"/><path d="m482 301h-377c-8.284 0-15 6.714-15 15v181h181v-45h211z" fill="#913f02"/><path d="m482 301h-228v196h17v-45h211z" fill="#803602"/><path d="m271 331h181v91h-181z" fill="#ffdfea"/><path d="m452 60h-196v91h256z" fill="#ffdfea"/><path d="m120 331h121v166h-121z" fill="#fff2fb"/><path d="m497 482h-482c-8.291 0-15 6.709-15 15s6.709 15 15 15h482c8.291 0 15-6.709 15-15s-6.709-15-15-15z" fill="#ffdfea"/><path d="m256 512h241c8.291 0 15-6.709 15-15s-6.709-15-15-15h-241z" fill="#ffbfbf"/></svg>