<svg id="Capa_1" enable-background="new 0 0 512 512" height="512" viewBox="0 0 512 512" width="512" xmlns="http://www.w3.org/2000/svg"><g><g><circle cx="256" cy="133.224" fill="#e7886e" r="133.224"/></g><g><circle cx="309.476" cy="100.331" fill="#dc6646" r="20.604"/></g><g><circle cx="256" cy="135.915" fill="#dc6646" r="15.453"/></g><g><path d="m180.882 133.224c0-63.598 44.567-116.779 104.171-130.038-9.353-2.08-19.073-3.186-29.053-3.186-73.578 0-133.224 59.647-133.224 133.224s59.646 133.224 133.224 133.224c9.98 0 19.7-1.106 29.053-3.186-59.604-13.259-104.171-66.44-104.171-130.038z" fill="#dc6646"/></g><g><path d="m256 512c-24.469 0-46.051-16.023-53.13-39.445l-80.793-267.285h267.847l-80.794 267.285c-7.079 23.422-28.662 39.445-53.13 39.445z" fill="#ffbe74"/></g><g><path d="m209.298 205.271h-87.222l80.793 267.285c7.081 23.421 28.662 39.444 53.131 39.444 15.8 0 30.39-6.688 40.656-17.729z" fill="#f4a960"/></g><g><path d="m91.171 205.271c0-11.379 9.225-20.604 20.604-20.604h288.451c11.379 0 20.604 9.225 20.604 20.604 0 11.379-9.225 20.604-20.604 20.604h-288.451c-11.379-.001-20.604-9.225-20.604-20.604z" fill="#ffd3a3"/></g><g><path d="m204.491 174.365v113.32c0 11.379 9.225 20.604 20.604 20.604 11.379 0 20.604-9.225 20.604-20.604v-41.207c0-11.379 9.225-20.604 20.604-20.604 11.379 0 20.604 9.225 20.604 20.604 0 11.379 9.225 20.604 20.604 20.604 11.379 0 20.604-9.225 20.604-20.604v-72.113z" fill="#e7886e"/></g><g><path d="m170.974 205.271c0-11.379 9.225-20.604 20.604-20.604h-79.803c-11.379 0-20.604 9.224-20.604 20.603 0 11.379 9.225 20.604 20.604 20.604h79.803c-11.379 0-20.604-9.224-20.604-20.603z" fill="#ffbe74"/></g><g fill="#ffd3a3"><path d="m272.23 369.639c-2.93-2.929-7.678-2.929-10.607 0l-5.623 5.623-5.623-5.623c-2.93-2.929-7.678-2.929-10.607 0s-2.929 7.678 0 10.606l5.624 5.624-5.624 5.624c-2.929 2.929-2.929 7.678 0 10.606 1.465 1.464 3.385 2.197 5.304 2.197s3.839-.732 5.304-2.197l5.623-5.623 5.623 5.623c1.465 1.464 3.385 2.197 5.304 2.197s3.839-.732 5.304-2.197c2.929-2.929 2.929-7.678 0-10.606l-5.624-5.624 5.624-5.624c2.927-2.928 2.927-7.677-.002-10.606z"/><path d="m316.838 335.638 5.624-5.624c2.929-2.929 2.929-7.678 0-10.606-2.93-2.929-7.678-2.929-10.607 0l-5.623 5.623-5.623-5.623c-2.93-2.929-7.678-2.929-10.607 0s-2.929 7.678 0 10.606l5.624 5.624-5.624 5.624c-2.929 2.929-2.929 7.678 0 10.606 1.465 1.464 3.385 2.197 5.304 2.197s3.839-.732 5.304-2.197l5.623-5.623 5.623 5.623c1.465 1.464 3.385 2.197 5.304 2.197s3.839-.732 5.304-2.197c2.929-2.929 2.929-7.678 0-10.606z"/></g></g></svg>