<svg id="Capa_1" enable-background="new 0 0 512 512" height="512" viewBox="0 0 512 512" width="512" xmlns="http://www.w3.org/2000/svg"><g><g><path d="m80.789 388.163-7.289 90.56c-1.443 17.93 12.719 33.277 30.707 33.277 16.055 0 29.418-12.331 30.707-28.334l7.686-95.503z" fill="#938ed9"/></g><g><path d="m369.909 388.163 7.686 95.503c1.289 16.003 14.652 28.334 30.707 28.334 17.988 0 32.15-15.347 30.706-33.277l-7.289-90.56z" fill="#938ed9"/></g><g><path d="m412.196 483.665-1.616-20.084h27.211l-6.07-75.419h-61.811l7.686 95.503c1.288 16.004 14.651 28.335 30.706 28.335 6.439 0 12.382-1.974 17.3-5.322-7.478-5.084-12.631-13.38-13.406-23.013z" fill="#7a7acc"/></g><g><path d="m103.507 478.723 1.219-15.141h31.804l6.07-75.419h-61.811l-7.288 90.56c-1.444 17.93 12.718 33.277 30.706 33.277 5.43 0 10.55-1.415 15.002-3.901-10.146-5.673-16.707-16.895-15.702-29.376z" fill="#7a7acc"/></g><g><path d="m430.482 432.676h-348.964c-30.077 0-53.756-25.661-51.343-55.641l26.532-329.658c2.154-26.759 24.498-47.377 51.343-47.377h296.345c26.872 0 49.229 20.658 51.349 47.446l26.087 329.658c2.37 29.955-21.3 55.572-51.349 55.572z" fill="#be9edf"/></g><g><path d="m221.296 0h-113.246c-26.845 0-49.189 20.618-51.343 47.377l-26.532 329.658c-2.413 29.98 21.266 55.641 51.343 55.641h57.424l31.01-385.299c2.154-26.759 24.498-47.377 51.344-47.377z" fill="#938ed9"/></g><g><path d="m82.962 234.821 20.483 54.745h152.81 152.81l20.225-54.056-13.875-175.325c-.848-10.715-9.791-18.978-20.539-18.978h-277.32c-10.738 0-19.676 8.247-20.537 18.951z" fill="#fbf081"/></g><g><path d="m82.962 234.821 20.483 54.745h47.016l19.492-242.19c.169-2.098.476-4.154.885-6.17h-53.282c-10.738 0-19.676 8.247-20.537 18.951z" fill="#fad271"/></g><g><path d="m368.404 265.553c-21.676 0-31.358-7.792-44.758-18.577-14.7-11.831-32.995-26.555-67.397-26.555-34.4 0-52.694 14.724-67.394 26.555-13.399 10.785-23.081 18.577-44.756 18.577s-31.357-7.792-44.756-18.577c-4.905-3.948-10.212-8.218-16.383-12.155l-10.815 134.391c-.965 11.992 8.507 22.257 20.537 22.257h337.799c6.01 0 10.744-5.123 10.27-11.114l-11.501-145.34c-6.043 3.884-11.261 8.078-16.087 11.962-13.4 10.784-23.082 18.576-44.759 18.576z" fill="#84dfff"/></g><g><path d="m152.428 265.115c-2.577.284-5.335.438-8.328.438-21.675 0-31.357-7.792-44.756-18.577-4.905-3.948-10.212-8.218-16.383-12.155l-10.816 134.391c-.965 11.992 8.507 22.257 20.537 22.257h49.576z" fill="#2fcffc"/></g><g><path d="m271.009 81.579-11.074.852c-17.108 1.316-30.319 15.582-30.319 32.741v9.764h19.915c18.136 0 32.838-14.702 32.838-32.838 0-6.145-5.232-10.99-11.36-10.519z" fill="#e7886e"/></g><g><path d="m280.751 114.378-52.752 4.058c-10.994.846-19.483 10.013-19.483 21.039v19.01h94.954v-23.068c0-12.291-10.464-21.981-22.719-21.039z" fill="#dc6646"/></g><g><path d="m269.798 115.221-41.8 3.215c-10.993.846-19.483 10.013-19.483 21.039v19.01h42.202v-22.266c.001-10.89 8.284-19.962 19.081-20.998z" fill="#d85536"/></g><g><path d="m187.415 194.062v-17.387c0-11.026 8.489-20.193 19.483-21.039l94.954-7.304c12.255-.943 22.719 8.747 22.719 21.039v24.691z" fill="#e7886e"/></g><g><path d="m247.727 152.496-40.829 3.141c-10.993.846-19.483 10.013-19.483 21.039v17.387h42.202v-20.683c0-10.563 7.791-19.414 18.11-20.884z" fill="#dc6646"/></g><g><path d="m255.993 351.128c-12.53 0-23.581-8.205-27.206-20.198l-41.372-136.868h137.156l-41.372 136.868c-3.625 11.994-14.677 20.198-27.206 20.198z" fill="#ffd3a3"/></g><g><path d="m232.345 194.062h-44.93l41.372 136.868c3.625 11.994 14.677 20.198 27.206 20.198 8.198 0 15.747-3.528 21.013-9.315z" fill="#ffbe74"/></g><g><g><path d="m340.396 201.562h-47.938c-4.143 0-7.5-3.357-7.5-7.5s3.357-7.5 7.5-7.5h47.938c4.143 0 7.5 3.357 7.5 7.5s-3.357 7.5-7.5 7.5z" fill="#f4a960"/></g><g><path d="m261.554 201.562h-89.965c-4.143 0-7.5-3.357-7.5-7.5s3.357-7.5 7.5-7.5h89.965c4.143 0 7.5 3.357 7.5 7.5s-3.358 7.5-7.5 7.5z" fill="#f4a960"/></g></g></g></svg>