<svg id="Capa_1" enable-background="new 0 0 512 512" height="512" viewBox="0 0 512 512" width="512" xmlns="http://www.w3.org/2000/svg"><g><g><path d="m82.369 109.515c-1.748 0-3.503-.607-4.925-1.846-11.748-10.238-18.485-25.03-18.485-40.584s6.738-30.346 18.486-40.583c3.122-2.721 7.86-2.396 10.582.727 2.721 3.123 2.396 7.86-.727 10.582-8.478 7.388-13.34 18.059-13.34 29.275s4.861 21.886 13.34 29.275c3.123 2.722 3.448 7.459.727 10.582-1.484 1.701-3.566 2.572-5.658 2.572z" fill="#0accab"/></g><g><circle cx="120.531" cy="127.374" fill="#ff7591" r="61.811"/></g><g><path d="m127.302 65.94c-3.399 11.78-5.225 24.219-5.225 37.078 0 5.575.348 11.069 1.013 16.467-22.203 7.001-41.922 19.647-57.479 36.238 10.278 19.871 31.006 33.461 54.921 33.461 34.137 0 61.811-27.674 61.811-61.811-.001-31.847-24.091-58.06-55.041-61.433z" fill="#fd5c70"/></g><g><circle cx="256" cy="103.018" fill="#fffddb" r="103.018"/></g><g fill="#423e4f"><path d="m196.817 44.45c-4.142 0-7.5 3.358-7.5 7.5v12.362c0 4.142 3.358 7.5 7.5 7.5s7.5-3.358 7.5-7.5v-12.362c0-4.142-3.358-7.5-7.5-7.5z"/><path d="m315.183 44.45c-4.142 0-7.5 3.358-7.5 7.5v12.362c0 4.142 3.358 7.5 7.5 7.5s7.5-3.358 7.5-7.5v-12.362c0-4.142-3.358-7.5-7.5-7.5z"/><path d="m285.971 64.183c-4.142 0-7.5 3.358-7.5 7.5 0 4.076-3.316 7.392-7.392 7.392s-7.392-3.316-7.392-7.392c0-4.142-3.358-7.5-7.5-7.5s-7.5 3.358-7.5 7.5c0 4.076-3.316 7.392-7.392 7.392s-7.392-3.316-7.392-7.392c0-4.142-3.358-7.5-7.5-7.5s-7.5 3.358-7.5 7.5c0 12.347 10.045 22.392 22.392 22.392 5.713 0 10.931-2.154 14.892-5.689 3.96 3.535 9.178 5.689 14.892 5.689 12.347 0 22.392-10.045 22.392-22.392 0-4.142-3.358-7.5-7.5-7.5z"/></g><g><path d="m348.716 113.32c-35.951 0-68.635 14.243-92.716 37.378-24.081-23.135-56.765-37.378-92.716-37.378-3.281 0-6.533.124-9.756.357 5.334 51.887 49.176 92.359 102.472 92.359s97.138-40.472 102.472-92.359c-3.223-.233-6.475-.357-9.756-.357z" fill="#fff3ac"/></g><g><path d="m307.568 398.048-38.071-15.769c-10.513-4.355-15.505-16.407-11.151-26.92l141.925-342.635c4.355-10.513 16.407-15.505 26.92-11.151l38.071 15.769c10.513 4.355 15.505 16.407 11.151 26.92l-141.925 342.636c-4.354 10.513-16.407 15.505-26.92 11.15z" fill="#ffd3a3"/></g><g><path d="m296.418 371.128 141.924-342.634c4.355-10.513 16.407-15.505 26.92-11.151l-38.071-15.769c-10.513-4.355-22.565.638-26.92 11.151l-141.924 342.634c-4.355 10.513.638 22.565 11.151 26.92l38.071 15.769c-10.513-4.354-15.506-16.407-11.151-26.92z" fill="#ffbe74"/></g><g><path d="m357.711 82.463h82.414v82.414h-82.414z" fill="#e7886e" transform="matrix(.383 -.924 .924 .383 132.003 444.896)"/></g><g><path d="m338.676 95.182h82.414v41.207h-82.414z" fill="#dc6646" transform="matrix(.383 -.924 .924 .383 127.537 422.443)"/></g><g><circle cx="348.716" cy="247.243" fill="#ffccd3" r="103.018"/></g><g><path d="m245.698 247.243c0 28.367 11.467 54.054 30.017 72.684 13.589-20.948 21.492-45.909 21.492-72.684s-7.903-51.737-21.492-72.684c-18.55 18.63-30.017 44.317-30.017 72.684z" fill="#ffabb9"/></g><g><circle cx="163.284" cy="247.243" fill="#be9edf" r="103.018"/></g><g><path d="m111.959 247.243c0-47.969 32.786-88.279 77.171-99.748-8.26-2.134-16.92-3.271-25.847-3.271-56.895 0-103.018 46.123-103.018 103.018s46.123 103.018 103.018 103.018c8.926 0 17.587-1.136 25.847-3.271-44.385-11.466-77.171-51.777-77.171-99.746z" fill="#938ed9"/></g><g><g><path d="m289.681 215.91c-.002 0-.004 0-.006 0-4.142-.003-7.497-3.364-7.494-7.506l.009-12.234c.003-4.14 3.36-7.494 7.5-7.494h.006c4.142.003 7.497 3.364 7.494 7.506l-.009 12.234c-.003 4.14-3.36 7.494-7.5 7.494z" fill="#423e4f"/></g><g><path d="m407.742 216.038c-.002 0-.004 0-.006 0-4.142-.003-7.497-3.364-7.494-7.506l.009-12.234c.003-4.14 3.36-7.494 7.5-7.494h.006c4.142.003 7.497 3.364 7.494 7.506l-.009 12.234c-.003 4.14-3.36 7.494-7.5 7.494z" fill="#423e4f"/></g><g><path d="m365.899 221.421c-.002 0-.004 0-.006 0l-34.385-.03c-4.142-.003-7.497-3.364-7.494-7.506.003-4.14 3.361-7.494 7.5-7.494h.006l34.385.03c4.142.003 7.497 3.364 7.494 7.506-.003 4.14-3.361 7.494-7.5 7.494z" fill="#423e4f"/></g></g><g><g><path d="m104.101 216.038c-4.142 0-7.5-3.358-7.5-7.5v-12.362c0-4.142 3.358-7.5 7.5-7.5s7.5 3.358 7.5 7.5v12.362c0 4.142-3.358 7.5-7.5 7.5z" fill="#423e4f"/></g><g><path d="m222.466 216.038c-4.142 0-7.5-3.358-7.5-7.5v-12.362c0-4.142 3.358-7.5 7.5-7.5s7.5 3.358 7.5 7.5v12.362c0 4.142-3.358 7.5-7.5 7.5z" fill="#423e4f"/></g><g><path d="m163.284 223.397c-8.667 0-16.911-3.754-22.615-10.299-2.722-3.123-2.396-7.86.726-10.582s7.86-2.397 10.582.726c2.855 3.276 6.977 5.155 11.307 5.155s8.452-1.879 11.308-5.155c2.722-3.122 7.459-3.447 10.582-.726 3.122 2.722 3.447 7.459.726 10.582-5.706 6.545-13.949 10.299-22.616 10.299z" fill="#423e4f"/></g></g><g><path d="m68.038 405.538 12.514 65.696c4.505 23.653 25.185 40.766 49.263 40.766h250.15c24.078 0 44.758-17.113 49.264-40.766l12.514-65.696-185.743-30.905z" fill="#84dfff"/></g><g><path d="m180.479 471.234-15.533-81.55-96.908 15.854 12.514 65.696c4.505 23.653 25.185 40.766 49.263 40.766h99.928c-24.079 0-44.759-17.113-49.264-40.766z" fill="#2fcffc"/></g><g><path d="m462.67 295.662h-415.561l20.929 109.876c33.366 6.479 39.665 29.198 83.829 29.198 51.508 0 51.508-30.905 103.016-30.905 51.511 0 51.511 30.905 103.021 30.905 44.168 0 50.467-22.72 83.837-29.199z" fill="#fbf081"/></g><g><path d="m47.109 295.662 20.929 109.876c33.366 6.479 39.665 29.198 83.829 29.198 8.272 0 15.211-.8 21.253-2.138l-26.083-136.936z" fill="#fad271"/></g><g><path d="m0 295.662c0-11.379 9.225-20.604 20.604-20.604h470.793c11.379 0 20.604 9.225 20.604 20.604 0 11.379-9.225 20.604-20.604 20.604h-470.793c-11.379 0-20.604-9.225-20.604-20.604z" fill="#84dfff"/></g><g><path d="m117.018 264.757v113.32c0 11.379 9.225 20.604 20.604 20.604 11.379 0 20.604-9.225 20.604-20.604v-41.207c0-11.379 9.225-20.604 20.604-20.604 11.379 0 20.604 9.225 20.604 20.604 0 11.379 9.225 20.604 20.604 20.604 11.379 0 20.604-9.225 20.604-20.604v-72.113z" fill="#be9edf"/></g><g><path d="m99.928 295.662c0-11.379 9.225-20.604 20.604-20.604h-99.928c-11.379 0-20.604 9.225-20.604 20.604 0 11.379 9.225 20.604 20.604 20.604h99.928c-11.38 0-20.604-9.225-20.604-20.604z" fill="#2fcffc"/></g></g></svg>