<svg id="Capa_1" enable-background="new 0 0 512 512" height="512" viewBox="0 0 512 512" width="512" xmlns="http://www.w3.org/2000/svg"><g><g><path d="m275.058 84.475h41.207v92.716h-41.207z" fill="#899bb0" transform="matrix(-1 0 0 -1 591.324 261.666)"/></g><g><path d="m439.887 213.248v10.302h-288.45v-10.302l25.211-50.421c3.49-6.98 10.624-11.389 18.428-11.389h201.172c7.804 0 14.938 4.409 18.428 11.389z" fill="#fffddb"/></g><g><path d="m232.403 162.826c3.49-6.98 10.624-11.389 18.428-11.389h-55.756c-7.804 0-14.938 4.409-18.428 11.389l-25.211 50.421v10.302h55.756v-10.302z" fill="#fff3ac"/></g><g><path d="m450.189 512c11.379 0 20.604-9.225 20.604-20.604v-72.113h-41.207v72.113c-.001 11.379 9.224 20.604 20.603 20.604z" fill="#be9edf"/></g><g><path d="m429.585 419.284v72.113c0-11.379 9.225-20.604 20.604-20.604s20.604 9.225 20.604 20.604v-72.113z" fill="#938ed9"/></g><g><path d="m454.064 95.201c-26.085-51.156-75.148-95.201-158.402-95.201s-132.317 44.045-158.402 95.2c-3.505 6.874 1.445 15.029 9.161 15.029h76.622l72.619-8.409 72.657 8.409h76.585c7.715.001 12.665-8.154 9.16-15.028z" fill="#be9edf"/></g><g><path d="m368.289 110.229c0-60.878-32.516-110.229-72.627-110.229s-72.628 49.351-72.628 110.229z" fill="#fbf081"/></g><g><path d="m0 172.04c0 11.379 9.225 20.604 20.604 20.604h58.72v61.811h41.207v-61.811c0-22.758-18.449-41.207-41.207-41.207h-58.72c-11.379 0-20.604 9.224-20.604 20.603z" fill="#be9edf"/></g><g><path d="m58.72 172.04c0-11.379 9.225-20.604 20.604-20.604h-58.72c-11.379.001-20.604 9.225-20.604 20.604 0 11.379 9.225 20.604 20.604 20.604h58.72c-11.379 0-20.604-9.224-20.604-20.604z" fill="#938ed9"/></g><g><path d="m512 271.713v-17.258c0-22.758-18.449-41.207-41.207-41.207h-350.262c-22.758 0-41.207 18.449-41.207 41.207v17.258l41.207 65.157h350.261z" fill="#fbf081"/></g><g><path d="m79.324 254.455v17.258l41.207 65.157h45.454v-82.414c0-22.758 18.449-41.207 41.207-41.207h-86.661c-22.758-.001-41.207 18.448-41.207 41.206z" fill="#fad271"/></g><g><path d="m512 271.712c-15.866 6.137-27.286 15.327-37.257 23.351-15.295 12.309-26.344 21.202-51.084 21.202-24.739 0-35.789-8.893-51.082-21.202-16.778-13.503-37.658-30.307-76.92-30.307-39.261 0-60.14 16.805-76.916 30.307-15.293 12.309-26.342 21.202-51.08 21.202s-35.788-8.893-51.08-21.202c-9.97-8.024-21.39-17.215-37.256-23.351v116.666c0 22.758 18.449 41.207 41.207 41.207h350.261c22.758 0 41.207-18.449 41.207-41.207z" fill="#84dfff"/></g><g><path d="m165.985 388.378v-72.132c-23.565-.396-34.464-9.156-49.406-21.183-9.97-8.024-21.39-17.215-37.256-23.351v116.666c0 22.758 18.449 41.207 41.207 41.207h86.661c-22.757.001-41.206-18.449-41.206-41.207z" fill="#2fcffc"/></g><g><circle cx="207.192" cy="429.586" fill="#899bb0" r="82.414"/></g><g><path d="m186.589 491.396c0-11.379 9.225-20.604 20.604-20.604v-82.414c-11.379 0-20.604-9.225-20.604-20.604s9.225-20.604 20.604-20.604c-45.516 0-82.414 36.898-82.414 82.414s36.897 82.416 82.413 82.416c-11.379 0-20.603-9.225-20.603-20.604z" fill="#6c8199"/></g><g><circle cx="207.192" cy="429.586" fill="#6c8199" r="41.207"/></g></g></svg>