<svg id="Capa_1" enable-background="new 0 0 512 512" height="512" viewBox="0 0 512 512" width="512" xmlns="http://www.w3.org/2000/svg"><g><g><path d="m82.369 109.515c-1.748 0-3.503-.607-4.925-1.846-11.748-10.238-18.485-25.03-18.485-40.584s6.738-30.346 18.486-40.583c3.122-2.721 7.86-2.396 10.582.727 2.721 3.123 2.396 7.86-.727 10.582-8.478 7.388-13.34 18.059-13.34 29.275s4.861 21.886 13.34 29.275c3.123 2.722 3.448 7.459.727 10.582-1.484 1.701-3.566 2.572-5.658 2.572z" fill="#0accab"/></g><g><g><path d="m447.881 126.765c-11.423 0-21.76-4.772-29.233-12.482-1.428-1.474-1.428-3.866 0-5.339 7.472-7.71 17.809-12.482 29.233-12.482 11.423 0 21.76 4.772 29.233 12.482 1.428 1.474 1.428 3.866 0 5.339-7.472 7.709-17.81 12.482-29.233 12.482z" fill="#17d9bf"/></g></g><g><g><path d="m381.2 60.083c0 11.423 4.772 21.76 12.482 29.232 1.474 1.428 3.866 1.428 5.339 0 7.71-7.472 12.482-17.809 12.482-29.232s-4.772-21.76-12.482-29.233c-1.474-1.428-3.866-1.428-5.339 0-7.71 7.473-12.482 17.81-12.482 29.233z" fill="#50e3cf"/></g></g><g><g><path d="m403.273 59.935c-5.356 12.931-4.801 26.87.423 38.944.998 2.308 3.706 3.429 6.044 2.504 12.231-4.843 22.48-14.307 27.836-27.238s4.801-26.87-.423-38.944c-.998-2.308-3.706-3.429-6.044-2.504-12.23 4.843-22.48 14.307-27.836 27.238z" fill="#17d9bf"/></g></g><g><path d="m448.03 104.692c-12.931 5.356-26.87 4.801-38.944-.423-2.308-.998-3.429-3.706-2.504-6.044 4.843-12.231 14.307-22.48 27.238-27.836s26.87-4.801 38.944.423c2.308.998 3.429 3.706 2.504 6.044-4.843 12.23-14.307 22.479-27.238 27.836z" fill="#50e3cf"/></g><g><path d="m440.432 178.735c18.073-44.02-25.92-85.283-25.92-85.283s-41.262-43.992-85.282-25.919-74.9 127.412-45.555 156.757 138.685-1.535 156.757-45.555z" fill="#ff7591"/></g><g><circle cx="120.531" cy="127.374" fill="#ff7591" r="61.811"/></g><g><path d="m127.302 65.94c-3.399 11.78-5.225 24.219-5.225 37.078 0 5.575.348 11.069 1.013 16.467-22.203 7.001-41.922 19.647-57.479 36.238 10.278 19.871 31.006 33.461 54.921 33.461 34.137 0 61.811-27.674 61.811-61.811-.001-31.847-24.091-58.06-55.041-61.433z" fill="#fd5c70"/></g><g><path d="m444.725 154.001c-15.292-15.739-34.391-27.761-55.814-34.516.665-5.398 1.013-10.893 1.013-16.467 0-10.43-1.2-20.585-3.466-30.335-15.601-8.197-36.095-13.826-57.227-5.15-44.02 18.073-74.9 127.412-45.555 156.757s138.685-1.535 156.757-45.555c3.463-8.437 4.641-16.771 4.292-24.734z" fill="#fd5c70"/></g><g><circle cx="256" cy="103.018" fill="#fbf081" r="103.018"/></g><g><path d="m348.716 113.32c-35.951 0-68.635 14.243-92.716 37.378-24.081-23.135-56.765-37.378-92.716-37.378-3.281 0-6.533.124-9.756.357 5.334 51.887 49.176 92.359 102.472 92.359s97.138-40.472 102.472-92.359c-3.223-.233-6.475-.357-9.756-.357z" fill="#fad271"/></g><g><circle cx="348.716" cy="247.243" fill="#fffddb" r="103.018"/></g><g><path d="m245.698 247.243c0 28.367 11.467 54.054 30.017 72.684 13.589-20.948 21.492-45.909 21.492-72.684s-7.903-51.737-21.492-72.684c-18.55 18.63-30.017 44.317-30.017 72.684z" fill="#fff3ac"/></g><g><circle cx="163.284" cy="247.243" fill="#84dfff" r="103.018"/></g><g><path d="m111.959 247.243c0-47.969 32.786-88.279 77.171-99.748-8.26-2.134-16.92-3.271-25.847-3.271-56.895 0-103.018 46.123-103.018 103.018s46.123 103.018 103.018 103.018c8.926 0 17.587-1.136 25.847-3.271-44.385-11.466-77.171-51.777-77.171-99.746z" fill="#2fcffc"/></g><g><g><path d="m289.534 216.038c-4.143 0-7.5-3.358-7.5-7.5v-12.362c0-4.142 3.357-7.5 7.5-7.5s7.5 3.358 7.5 7.5v12.362c0 4.142-3.357 7.5-7.5 7.5z" fill="#423e4f"/></g><g><path d="m407.898 216.038c-4.143 0-7.5-3.358-7.5-7.5v-12.362c0-4.142 3.357-7.5 7.5-7.5s7.5 3.358 7.5 7.5v12.362c0 4.142-3.357 7.5-7.5 7.5z" fill="#423e4f"/></g><g><path d="m348.716 223.397c-8.668 0-16.91-3.754-22.615-10.299-2.722-3.123-2.396-7.86.727-10.582 3.122-2.722 7.859-2.397 10.582.726 2.854 3.276 6.976 5.155 11.307 5.155s8.453-1.879 11.308-5.155c2.722-3.123 7.46-3.449 10.582-.726 3.123 2.721 3.448 7.459.727 10.582-5.707 6.545-13.95 10.299-22.618 10.299z" fill="#423e4f"/></g></g><g fill="#423e4f"><path d="m104.101 188.676c-4.142 0-7.5 3.358-7.5 7.5v12.362c0 4.142 3.358 7.5 7.5 7.5s7.5-3.358 7.5-7.5v-12.362c0-4.142-3.358-7.5-7.5-7.5z"/><path d="m222.466 188.676c-4.142 0-7.5 3.358-7.5 7.5v12.362c0 4.142 3.358 7.5 7.5 7.5s7.5-3.358 7.5-7.5v-12.362c0-4.142-3.358-7.5-7.5-7.5z"/><path d="m193.255 208.409c-4.142 0-7.5 3.358-7.5 7.5 0 4.076-3.316 7.392-7.392 7.392s-7.392-3.316-7.392-7.392c0-4.142-3.358-7.5-7.5-7.5s-7.5 3.358-7.5 7.5c0 4.076-3.316 7.392-7.392 7.392s-7.392-3.316-7.392-7.392c0-4.142-3.358-7.5-7.5-7.5s-7.5 3.358-7.5 7.5c0 12.347 10.045 22.392 22.392 22.392 5.713 0 10.931-2.154 14.892-5.689 3.96 3.535 9.178 5.689 14.892 5.689 12.347 0 22.392-10.045 22.392-22.392 0-4.142-3.358-7.5-7.5-7.5z"/></g><g><path d="m39.662 326.567c0 102.412 96.858 185.433 216.338 185.433s216.338-83.021 216.338-185.433l-88.341 20.604-127.997-51.509-128.002 51.509z" fill="#ffbe74"/></g><g><g><path d="m123.352 346.087-83.69-19.52c0 102.412 96.858 185.433 216.338 185.433 14.108 0 27.895-1.171 41.249-3.381-92.466-15.304-163.952-81.062-173.897-162.532z" fill="#f4a960"/></g></g><g><g><path d="m128.003 367.775c39.262 0 60.142-16.804 76.919-30.307 15.295-12.308 26.344-21.202 51.084-21.202 24.737 0 35.787 8.893 51.079 21.202 16.777 13.503 37.656 30.307 76.917 30.307s60.14-16.805 76.918-30.307c11.47-9.232 20.552-16.542 34.813-19.62 9.437-2.037 16.267-10.228 16.267-19.882v-.606c0-12.947-11.959-22.531-24.619-19.821-24.144 5.168-39.428 17.469-52.298 27.827-15.293 12.309-26.343 21.202-51.08 21.202-24.738 0-35.787-8.893-51.08-21.202-16.777-13.503-37.656-30.307-76.917-30.307-39.262 0-60.142 16.804-76.92 30.307-15.294 12.308-26.343 21.202-51.082 21.202-24.74 0-35.79-8.893-51.085-21.202-12.87-10.358-28.154-22.659-52.299-27.827-12.661-2.71-24.62 6.874-24.62 19.82v.606c0 9.654 6.83 17.845 16.267 19.882 14.262 3.078 23.345 10.389 34.815 19.62 16.778 13.503 37.658 30.308 76.921 30.308z" fill="#ffd3a3"/></g></g><g><path d="m297.207 275.058v154.527c0 11.379 9.225 20.604 20.604 20.604 11.379 0 20.604-9.225 20.604-20.604v-41.207c0-11.379 9.225-20.604 20.604-20.604 11.379 0 20.604 9.225 20.604 20.604 0 11.379 9.225 20.604 20.604 20.604 11.379 0 20.604-9.225 20.604-20.604v-113.32z" fill="#fffddb"/></g><g><path d="m107.394 347.171c0-11.379 9.225-20.604 20.604-20.604-24.738 0-35.788-8.893-51.08-21.202-12.87-10.358-28.154-22.659-52.298-27.827-12.661-2.709-24.62 6.875-24.62 19.821v.606c0 9.654 6.83 17.845 16.267 19.882 14.261 3.078 23.344 10.388 34.813 19.62 16.777 13.503 37.656 30.307 76.918 30.307-11.379.001-20.604-9.224-20.604-20.603z" fill="#ffbe74"/></g><g><circle cx="146.323" cy="410.288" fill="#f4a960" r="20.604"/></g><g><circle cx="264.5" cy="459.63" fill="#f4a960" r="20.604"/></g><g><circle cx="243.896" cy="404.692" fill="#f4a960" r="15.453"/></g><g><g><path d="m196.965 71.685c-.002 0-.003 0-.006 0-4.142-.003-7.497-3.364-7.494-7.506l.009-12.235c.003-4.14 3.36-7.494 7.5-7.494h.006c4.142.003 7.497 3.364 7.494 7.506l-.009 12.235c-.003 4.14-3.361 7.494-7.5 7.494z" fill="#423e4f"/></g><g><path d="m315.025 71.813c-.002 0-.004 0-.006 0-4.143-.003-7.497-3.364-7.494-7.506l.01-12.235c.003-4.14 3.361-7.494 7.5-7.494h.006c4.143.003 7.497 3.364 7.494 7.506l-.01 12.235c-.003 4.139-3.361 7.494-7.5 7.494z" fill="#423e4f"/></g><g><path d="m273.183 77.195c-.002 0-.004 0-.007 0l-34.385-.029c-4.142-.003-7.497-3.364-7.494-7.506.003-4.14 3.361-7.494 7.5-7.494h.006l34.386.029c4.142.003 7.497 3.364 7.493 7.506-.003 4.141-3.36 7.494-7.499 7.494z" fill="#423e4f"/></g></g></g></svg>