<svg id="Capa_1" enable-background="new 0 0 512 512" height="512" viewBox="0 0 512 512" width="512" xmlns="http://www.w3.org/2000/svg"><g><g><path d="m460.491 512h-408.982c-28.448 0-51.509-23.061-51.509-51.509v-347.171c0-28.448 23.061-51.509 51.509-51.509h408.982c28.448 0 51.509 23.061 51.509 51.509v347.171c0 28.448-23.061 51.509-51.509 51.509z" fill="#84dfff"/></g><g><path d="m256 61.811h-204.491c-28.448 0-51.509 23.061-51.509 51.509v347.171c0 28.448 23.061 51.509 51.509 51.509h204.491c-11.379 0-20.604-9.225-20.604-20.604s9.225-20.604 20.604-20.604v-163.283c-11.379 0-20.604-9.225-20.604-20.604s9.225-20.604 20.604-20.604v-163.283c-11.379 0-20.604-9.225-20.604-20.604s9.225-20.603 20.604-20.603z" fill="#2fcffc"/></g><g><path d="m470.793 256v-142.68c0-5.69-4.612-10.302-10.302-10.302h-408.982c-5.69 0-10.302 4.612-10.302 10.302v142.68c0 5.69 4.612 10.302 10.302 10.302h408.982c5.689 0 10.302-4.612 10.302-10.302z" fill="#fffddb"/></g><g><path d="m82.414 256v-142.68c0-5.69 4.612-10.302 10.302-10.302h-41.207c-5.69 0-10.302 4.612-10.302 10.302v142.68c0 5.69 4.612 10.302 10.302 10.302h41.207c-5.689 0-10.302-4.612-10.302-10.302z" fill="#fff3ac"/></g><g><path d="m41.207 317.811v142.68c0 5.69 4.612 10.302 10.302 10.302h408.982c5.69 0 10.302-4.612 10.302-10.302v-142.68c0-5.69-4.612-10.302-10.302-10.302h-408.982c-5.689 0-10.302 4.612-10.302 10.302z" fill="#e7886e"/></g><g><path d="m82.414 460.491v-142.68c0-5.69 4.612-10.302 10.302-10.302h-41.207c-5.69 0-10.302 4.612-10.302 10.302v142.68c0 5.69 4.612 10.302 10.302 10.302h41.207c-5.689 0-10.302-4.613-10.302-10.302z" fill="#dc6646"/></g><g><path d="m123.622 61.811h41.207v139.59h-41.207z" fill="#938ed9"/></g><g><circle cx="144.225" cy="61.811" fill="#be9edf" r="61.811"/></g><g><path d="m200.199 163.284c-20.867 0-39.304 10.35-50.497 26.186-8.341-7.318-19.264-11.763-31.231-11.763-21.675 0-39.951 14.552-45.592 34.419-1.85 6.516 3.181 12.969 9.955 12.969h167.842c6.449 0 11.395-5.875 10.129-12.199-5.663-28.295-30.645-49.612-60.606-49.612z" fill="#fff3ac"/></g><g><path d="m396.916 195.734c7.116 0 12.09-7.043 9.716-13.751-5.661-15.997-20.921-27.456-38.857-27.456s-33.196 11.459-38.857 27.456c-2.374 6.708 2.6 13.751 9.716 13.751z" fill="#fff3ac"/></g><g><path d="m184.401 410.527c6.449 0 11.395-5.875 10.129-12.199-5.664-28.295-30.646-49.612-60.607-49.612s-54.943 21.317-60.607 49.612c-1.266 6.324 3.68 12.199 10.129 12.199z" fill="#dc6646"/></g><g><path d="m347.171 290.082h41.207v122.849h-41.207z" fill="#fad271"/></g><g><circle cx="367.775" cy="290.082" fill="#fbf081" r="61.811"/></g><g><path d="m382.197 382.197c-11.968 0-22.891 4.446-31.231 11.763-11.192-15.836-29.63-26.186-50.497-26.186-29.961 0-54.943 21.317-60.607 49.612-1.266 6.324 3.68 12.199 10.129 12.199h167.842c6.774 0 11.805-6.453 9.955-12.969-5.64-19.867-23.916-34.419-45.591-34.419z" fill="#dc6646"/></g><g fill="#fff"><path d="m152.411 34.131c-.026-.069-.054-.139-.083-.208-1.343-3.261-4.488-5.366-8.014-5.366-.003 0-.007 0-.011 0-3.53.004-6.675 2.118-8.012 5.386-.023.057-.046.113-.067.171l-19.341 50.783c-1.474 3.87.468 8.203 4.339 9.678 3.873 1.475 8.204-.468 9.678-4.34l2.977-7.816h20.723l2.942 7.796c1.134 3.003 3.987 4.854 7.019 4.854.879 0 1.775-.156 2.646-.485 3.875-1.462 5.832-5.789 4.369-9.665zm-12.821 33.287 4.696-12.33 4.653 12.33z"/><path d="m383.726 285.897c1.67-2.86 2.644-6.174 2.644-9.718 0-10.671-8.681-19.353-19.352-19.353h-14.962c-4.142 0-7.5 3.357-7.5 7.5v23.719.038 27.752c0 1.995.795 3.907 2.208 5.315 1.406 1.399 3.309 2.185 5.292 2.185h.033s13.752-.061 17.542-.061c11.781 0 21.365-9.584 21.365-21.365-.001-6.376-2.825-12.094-7.27-16.012zm-16.709-14.07c2.4 0 4.352 1.952 4.352 4.353s-1.952 4.353-4.352 4.353c-1.091 0-3.136.006-5.372.014h-2.09v-8.719h7.462zm2.613 36.448c-1.877 0-6.188.015-10.075.029v-12.751c.699-.003 1.401-.005 2.086-.008h7.989c3.51 0 6.365 2.855 6.365 6.364 0 3.511-2.855 6.366-6.365 6.366z"/></g></g></svg>