<svg id="Capa_1" enable-background="new 0 0 512 512" height="512" viewBox="0 0 512 512" width="512" xmlns="http://www.w3.org/2000/svg"><g><g><path d="m149.587 141.243 107.097 30.905 105.73-30.905-9.246-64.725c-1.45-10.15-10.143-17.69-20.397-17.69h-153.542c-10.253 0-18.947 7.539-20.397 17.69z" fill="#6c8199"/></g><g><path d="m365.11 3.83c25.587 10.598 37.738 39.933 27.139 65.519l-57.571 138.988-92.659-38.38 57.571-138.988c10.599-25.587 39.933-37.737 65.52-27.139z" fill="#ffd3a3"/></g><g><path d="m325.451 110.338 32.876-79.369c3.693-8.917 9.666-16.195 16.958-21.454-3.098-2.235-6.493-4.159-10.176-5.685-25.587-10.598-54.921 1.552-65.52 27.139l-57.571 138.988 92.659 38.38 40.593-98h-49.819z" fill="#ffbe74"/></g><g><path d="m93.024 248.731h325.952l-12.828-89.798c-1.45-10.15-10.143-17.69-20.397-17.69h-259.502c-10.253 0-18.946 7.539-20.397 17.69z" fill="#899bb0"/></g><g><path d="m225.622 141.243h-99.374c-10.253 0-18.946 7.539-20.396 17.69l-12.828 89.798h99.374l12.828-89.798c1.45-10.15 10.143-17.69 20.396-17.69z" fill="#6c8199"/></g><g><path d="m109.124 361.433 15.359 107.513c3.529 24.704 24.687 43.054 49.643 43.054h163.746c24.957 0 46.116-18.351 49.645-43.057l15.168-106.176-146.685-51.884z" fill="#84dfff"/></g><g><path d="m224.776 468.945-20.059-140.413-95.593 32.9 15.359 107.513c3.529 24.705 24.687 43.055 49.643 43.055h100.293c-24.956 0-46.114-18.35-49.643-43.055z" fill="#2fcffc"/></g><g><path d="m109.124 361.433c11.018 6.249 23.531 11.601 44.963 11.601 51.508 0 51.508-30.905 103.016-30.905 51.511 0 51.511 30.905 103.021 30.905 19.891 0 32.099-4.609 42.56-10.267l16.291-114.036h-325.951z" fill="#fbf081"/></g><g><path d="m154.087 373.034c27.759 0 40.559-8.976 54.522-17.253l-15.293-107.05h-100.292l16.1 112.702c11.018 6.249 23.531 11.601 44.963 11.601z" fill="#fad271"/></g><g><path d="m49.964 244.261c0-11.379 9.225-20.604 20.604-20.604h370.865c11.379 0 20.604 9.225 20.604 20.604 0 11.379-9.225 20.604-20.604 20.604h-370.866c-11.379 0-20.603-9.224-20.603-20.604z" fill="#be9edf"/></g><g><path d="m149.891 244.261c0-11.379 9.225-20.604 20.604-20.604h-99.928c-11.379 0-20.604 9.225-20.604 20.604 0 11.379 9.225 20.604 20.604 20.604h99.928c-11.379 0-20.604-9.225-20.604-20.604z" fill="#938ed9"/></g><g><g><g><ellipse cx="173.557" cy="440.717" fill="#fff" rx="24.225" ry="30.42" transform="matrix(.002 -1 1 .002 -267.54 613.308)"/></g><g><ellipse cx="338.443" cy="441.078" fill="#fff" rx="24.225" ry="30.42" transform="matrix(.002 -1 1 .002 -103.374 778.555)"/></g></g><g><path d="m191.578 430.173c-4.142 0-7.5-3.358-7.5-7.5v-12.362c0-4.142 3.358-7.5 7.5-7.5s7.5 3.358 7.5 7.5v12.362c0 4.142-3.358 7.5-7.5 7.5z" fill="#423e4f"/></g><g><path d="m320.244 430.173c-4.143 0-7.5-3.358-7.5-7.5v-12.362c0-4.142 3.357-7.5 7.5-7.5s7.5 3.358 7.5 7.5v12.362c0 4.142-3.357 7.5-7.5 7.5z" fill="#423e4f"/></g><path d="m285.882 422.544c-4.143 0-7.5 3.358-7.5 7.5 0 4.076-3.315 7.392-7.392 7.392s-7.392-3.316-7.392-7.392c0-4.142-3.357-7.5-7.5-7.5-4.142 0-7.5 3.358-7.5 7.5 0 4.076-3.316 7.392-7.392 7.392s-7.392-3.316-7.392-7.392c0-4.142-3.358-7.5-7.5-7.5s-7.5 3.358-7.5 7.5c0 12.347 10.045 22.392 22.392 22.392 5.713 0 10.931-2.154 14.892-5.689 3.96 3.535 9.178 5.689 14.892 5.689 12.347 0 22.392-10.045 22.392-22.392 0-4.142-3.358-7.5-7.5-7.5z" fill="#423e4f"/></g></g></svg>