<svg id="Capa_1" enable-background="new 0 0 512 512" height="512" viewBox="0 0 512 512" width="512" xmlns="http://www.w3.org/2000/svg"><g><g><path d="m72.113 20.604h367.775v470.793h-367.775z" fill="#fff3ac"/></g><g><path d="m72.113 20.604h80.869v470.793h-80.869z" fill="#f9e99b"/></g><g><path d="m133.923 185.433h244.153v305.964h-244.153z" fill="#ead67f"/></g><g><g><path d="m256 347.46c-4.142 0-7.5-3.357-7.5-7.5v-56.66c0-4.143 3.358-7.5 7.5-7.5s7.5 3.357 7.5 7.5v56.66c0 4.143-3.358 7.5-7.5 7.5z" fill="#423e4f"/></g></g><g><path d="m286.905 257.545h-61.811v20.604c0 17.069 13.837 30.905 30.905 30.905 17.069 0 30.905-13.837 30.905-30.905v-20.604z" fill="#6c8199"/></g><g><path d="m317.811 216.338h-123.622v30.905c0 11.379 9.225 20.604 20.604 20.604h82.414c11.379 0 20.604-9.225 20.604-20.604z" fill="#899bb0"/></g><g><path d="m256 247.243v-30.905h-61.811v30.905c0 11.379 9.225 20.604 20.604 20.604h61.811c-11.379 0-20.604-9.225-20.604-20.604z" fill="#6c8199"/></g><g><path d="m177.832 481.095h156.336v-30.905c0-11.379-9.225-20.604-20.604-20.604h-115.128c-11.379 0-20.604 9.225-20.604 20.604z" fill="#899bb0"/></g><g><path d="m276.604 429.586h-78.168c-11.379 0-20.604 9.225-20.604 20.604v30.905h78.168v-30.905c0-11.38 9.225-20.604 20.604-20.604z" fill="#6c8199"/></g><g><path d="m378.076 123.622h-244.153c-11.379 0-20.604 9.225-20.604 20.604v61.811c0 11.379 9.225 20.604 20.604 20.604h244.153c11.379 0 20.604-9.225 20.604-20.604v-61.811c0-11.38-9.224-20.604-20.604-20.604z" fill="#fffddb"/></g><g><path d="m173.586 206.036v-61.811c0-11.379 9.225-20.604 20.604-20.604h-60.266c-11.379 0-20.604 9.225-20.604 20.604v61.811c0 11.379 9.225 20.604 20.604 20.604h60.266c-11.38 0-20.604-9.225-20.604-20.604z" fill="#fff3ac"/></g><g><path d="m51.509 491.396c0-11.379 9.225-20.604 20.604-20.604h367.775c11.379 0 20.604 9.225 20.604 20.604 0 11.379-9.225 20.604-20.604 20.604h-367.775c-11.379 0-20.604-9.225-20.604-20.604z" fill="#fffddb"/></g><g><path d="m157.229 491.396c0-11.379 9.225-20.604 20.604-20.604h-105.72c-11.379 0-20.604 9.225-20.604 20.604 0 11.379 9.225 20.604 20.604 20.604h105.72c-11.38 0-20.604-9.225-20.604-20.604z" fill="#fff3ac"/></g><g><path d="m51.509 20.604c0-11.379 9.225-20.604 20.604-20.604h367.775c11.379 0 20.604 9.225 20.604 20.604 0 11.379-9.225 20.604-20.604 20.604h-367.775c-11.379-.001-20.604-9.225-20.604-20.604z" fill="#fffddb"/></g><g><path d="m256 82.415c11.379 0 20.604 9.225 20.604 20.604v61.811c0 11.379-9.225 20.604-20.604 20.604-11.379 0-20.604-9.225-20.604-20.604v-61.811c0-11.38 9.225-20.604 20.604-20.604z" fill="#899bb0"/></g><g><path d="m256 164.829v-61.811c0-7.622 4.149-14.261 10.302-17.825-3.033-1.757-6.544-2.779-10.302-2.779-11.379 0-20.604 9.225-20.604 20.604v61.811c0 11.379 9.225 20.604 20.604 20.604 3.757 0 7.269-1.022 10.302-2.779-6.153-3.564-10.302-10.203-10.302-17.825z" fill="#6c8199"/></g><g><path d="m338.414 82.415c11.379 0 20.604 9.225 20.604 20.604v61.811c0 11.379-9.225 20.604-20.604 20.604-11.379 0-20.604-9.225-20.604-20.604v-61.811c.001-11.38 9.225-20.604 20.604-20.604z" fill="#899bb0"/></g><g><path d="m338.414 164.829v-61.811c0-7.622 4.149-14.261 10.302-17.825-3.033-1.757-6.544-2.779-10.302-2.779-11.379 0-20.604 9.225-20.604 20.604v61.811c0 11.379 9.225 20.604 20.604 20.604 3.757 0 7.269-1.022 10.302-2.779-6.152-3.564-10.302-10.203-10.302-17.825z" fill="#6c8199"/></g><g><path d="m173.585 82.415c11.379 0 20.604 9.225 20.604 20.604v61.811c0 11.379-9.225 20.604-20.604 20.604-11.379 0-20.604-9.225-20.604-20.604v-61.811c.001-11.38 9.225-20.604 20.604-20.604z" fill="#899bb0"/></g><g><path d="m173.586 164.829v-61.811c0-7.622 4.149-14.261 10.302-17.825-3.033-1.757-6.544-2.779-10.302-2.779-11.379 0-20.604 9.225-20.604 20.604v61.811c0 11.379 9.225 20.604 20.604 20.604 3.757 0 7.269-1.022 10.302-2.779-6.153-3.564-10.302-10.203-10.302-17.825z" fill="#6c8199"/></g><g><path d="m157.229 20.604c0-11.379 9.224-20.604 20.603-20.604h-105.719c-11.379 0-20.604 9.225-20.604 20.604 0 11.379 9.225 20.604 20.604 20.604h105.72c-11.38-.001-20.604-9.225-20.604-20.604z" fill="#fff3ac"/></g></g></svg>