<svg id="Capa_1" enable-background="new 0 0 512 512" height="512" viewBox="0 0 512 512" width="512" xmlns="http://www.w3.org/2000/svg"><g><g><path d="m415.441 167.052c0-88.056-71.384-159.441-159.441-159.441s-159.441 71.385-159.441 159.441z" fill="#84dfff"/></g><g><path d="m276.297 8.891c-6.647-.845-13.421-1.28-20.297-1.28-88.057 0-159.441 71.384-159.441 159.441h40.595c0-81.18 60.671-148.19 139.143-158.161z" fill="#2fcffc"/></g><g><path d="m285.472 44.96-21.733 1.672c-33.577 2.583-59.505 30.582-59.505 64.258v19.164h39.085c35.593 0 64.448-28.854 64.448-64.448-.001-12.062-10.269-21.571-22.295-20.646z" fill="#fff3ac"/></g><g><path d="m304.59 94.76-103.533 7.964c-21.576 1.66-38.237 19.651-38.237 41.291v37.309h186.36v-45.273c0-24.123-20.537-43.141-44.59-41.291z" fill="#fffddb"/></g><g><path d="m283.094 96.414-82.037 6.311c-21.576 1.66-38.237 19.651-38.237 41.291v37.309h82.826v-43.699c.001-21.375 16.258-39.178 37.448-41.212z" fill="#fff3ac"/></g><g><path d="m353.938 167.052 41.099-126.458h43.639c11.21 0 20.297-9.087 20.297-20.297 0-11.21-9.087-20.297-20.297-20.297h-51.698c-17.586 0-33.171 11.323-38.607 28.047l-45.177 139.005z" fill="#899bb0"/></g><g><path d="m342.384 128.257c-12.849-3.501-20.434-16.743-16.963-29.593l-22.226 68.389h50.743l17.689-54.428c-4.027 12.06-16.823 19.016-29.243 15.632z" fill="#6c8199"/></g><g><path d="m108.167 285.481 17.406 162.048 130.427 27.767 130.427-27.767 17.203-160.157-147.63-39.13z" fill="#84dfff"/></g><g><path d="m224.981 467.872-22.152-206.237-94.662 23.845 17.405 162.048 99.519 21.187c-.035-.281-.08-.559-.11-.843z" fill="#2fcffc"/></g><g><path d="m108.167 285.481c11.795 6.997 24.407 13.504 47.864 13.504 50.743 0 50.743-30.446 101.485-30.446 50.745 0 50.745 30.446 101.49 30.446 21.327 0 33.69-5.378 44.624-11.613l12.924-120.32h-321.107z" fill="#fbf081"/></g><g><path d="m125.573 447.529 2.185 20.344c2.696 25.098 23.878 44.127 49.121 44.127h158.242c25.243 0 46.425-19.029 49.121-44.128l2.185-20.344h-260.854z" fill="#be9edf"/></g><g><path d="m224.981 467.872-2.185-20.344h-97.223l2.185 20.344c2.696 25.099 23.878 44.128 49.121 44.128h97.223c-25.243 0-46.426-19.029-49.121-44.128z" fill="#938ed9"/></g><g><path d="m192.669 167.052h-97.222l12.721 118.429c11.795 6.997 24.407 13.504 47.864 13.504 24.39 0 37.056-7.034 49.269-14.34z" fill="#fad271"/></g><g><path d="m53.027 167.052c0-11.21 9.087-20.297 20.297-20.297h365.352c11.21 0 20.297 9.087 20.297 20.297 0 11.21-9.087 20.297-20.297 20.297h-365.352c-11.21.001-20.297-9.087-20.297-20.297z" fill="#be9edf"/></g><g><path d="m142.523 167.052c0-11.21 9.087-20.297 20.297-20.297h-89.496c-11.21 0-20.297 9.087-20.297 20.297 0 11.21 9.087 20.297 20.297 20.297h89.496c-11.209.001-20.297-9.087-20.297-20.297z" fill="#938ed9"/></g><g><g><g><ellipse cx="174.077" cy="370.16" fill="#fff" rx="29.824" ry="23.75"/></g><g><ellipse cx="335.735" cy="370.16" fill="#fff" rx="29.824" ry="23.75"/></g><g><path d="m278.952 351.912c0-14.861-10.766-16.257-24.046-16.257s-24.046 1.396-24.046 16.257c0 14.86 10.766 26.907 24.046 26.907s24.046-12.047 24.046-26.907z" fill="#423e4f"/></g></g><g><path d="m179.063 349.305c-4.143 0-7.5-3.358-7.5-7.5v-12.179c0-4.142 3.357-7.5 7.5-7.5s7.5 3.358 7.5 7.5v12.179c0 4.142-3.357 7.5-7.5 7.5z" fill="#423e4f"/></g><g><path d="m330.749 349.305c-4.143 0-7.5-3.358-7.5-7.5v-12.179c0-4.142 3.357-7.5 7.5-7.5s7.5 3.358 7.5 7.5v12.179c0 4.142-3.357 7.5-7.5 7.5z" fill="#423e4f"/></g></g></g></svg>