<svg id="Capa_1" enable-background="new 0 0 512 512" height="512" viewBox="0 0 512 512" width="512" xmlns="http://www.w3.org/2000/svg"><g><g><path d="m214.793 512h-41.207c-11.379 0-20.604-9.225-20.604-20.604v-470.792c0-11.379 9.224-20.604 20.604-20.604h41.207c11.379 0 20.604 9.225 20.604 20.604v470.793c-.001 11.378-9.225 20.603-20.604 20.603z" fill="#ffbe74"/></g><g><path d="m194.189 491.396v-136.95c0-21.505 26.001-32.275 41.207-17.069v-203.963c-26.385-26.385-41.207-62.17-41.207-99.483v-13.327c0-11.379 9.225-20.604 20.604-20.604h-41.207c-11.379 0-20.604 9.225-20.604 20.604v470.793c0 11.379 9.225 20.604 20.604 20.604h41.207c-11.379-.001-20.604-9.226-20.604-20.605z" fill="#f4a960"/></g><g><path d="m152.982 102.4h82.414v102.4h-82.414z" fill="#dc6646"/></g><g><path d="m211.983 102.4h-59.001v102.4h82.414v-71.386c-9.286-9.286-17.134-19.741-23.413-31.014z" fill="#d85536"/></g><g><path d="m152.982 307.2h82.414v102.4h-82.414z" fill="#dc6646"/></g><g><path d="m152.982 409.6h41.207v-55.153c0-21.505 26.001-32.275 41.207-17.068v-30.179h-82.414z" fill="#d85536"/></g><g><path d="m338.414 512h-41.207c-11.379 0-20.604-9.225-20.604-20.604v-470.792c.001-11.379 9.225-20.604 20.604-20.604h41.207c11.379 0 20.604 9.225 20.604 20.604v470.793c0 11.378-9.224 20.603-20.604 20.603z" fill="#ffbe74"/></g><g><path d="m317.811 491.396v-13.328c0-21.505 26.001-32.275 41.207-17.069v-203.963c-26.385-26.385-41.207-62.17-41.207-99.483v-136.949c0-11.379 9.224-20.604 20.603-20.604h-41.207c-11.379 0-20.604 9.225-20.604 20.604v470.793c0 11.379 9.225 20.604 20.604 20.604h41.207c-11.379-.001-20.603-9.226-20.603-20.605z" fill="#f4a960"/></g><g><path d="m276.604 102.4h82.414v102.4h-82.414z" fill="#dc6646"/></g><g><path d="m317.811 157.553v-55.153h-41.207v102.4h49.38c-5.358-15.025-8.173-30.991-8.173-47.247z" fill="#d85536"/></g><g><path d="m276.604 307.2h82.414v102.4h-82.414z" fill="#d85536"/></g><g><path d="m451.588 422.45-29.138 29.138c-8.046 8.046-21.092 8.046-29.138 0l-332.9-332.9c-8.046-8.046-8.046-21.092 0-29.138l29.138-29.138c8.046-8.046 21.092-8.046 29.138 0l332.901 332.901c8.046 8.046 8.046 21.091-.001 29.137z" fill="#ffd3a3"/></g><g><path d="m422.45 422.45-332.9-332.9c-8.046-8.046-8.046-21.092 0-29.138l-29.138 29.138c-8.046 8.046-8.046 21.092 0 29.138l332.901 332.901c8.046 8.046 21.092 8.046 29.138 0l29.138-29.138c-8.047 8.046-21.092 8.046-29.139-.001z" fill="#ffbe74"/></g><g><path d="m142.385 132.392h82.414v102.4h-82.414z" fill="#e7886e" transform="matrix(.707 -.707 .707 .707 -76.046 183.592)"/></g><g><path d="m148.42 146.961h41.207v102.4h-41.207z" fill="#dc6646" transform="matrix(.707 -.707 .707 .707 -90.615 177.558)"/></g><g><path d="m287.201 277.208h82.414v102.4h-82.414z" fill="#e7886e" transform="matrix(.707 -.707 .707 .707 -136.031 328.408)"/></g><g><path d="m293.235 291.777h41.207v102.4h-41.207z" fill="#dc6646" transform="matrix(.707 -.707 .707 .707 -150.6 322.373)"/></g></g></svg>