<svg id="Capa_1" enable-background="new 0 0 512 512" height="512" viewBox="0 0 512 512" width="512" xmlns="http://www.w3.org/2000/svg"><g><g><path d="m405.634 393.529 13.342 93.398h-325.952l13.342-93.398z" fill="#fbf081"/></g><g><path d="m206.659 393.529-13.342 93.398h-100.293l13.343-93.398z" fill="#fad271"/></g><g><path d="m49.964 491.396c0 11.379 9.225 20.604 20.604 20.604h370.865c11.379 0 20.604-9.225 20.604-20.604 0-11.379-9.225-20.604-20.604-20.604h-370.866c-11.379.001-20.603 9.225-20.603 20.604z" fill="#be9edf"/></g><g><path d="m149.891 491.396c0 11.379 9.225 20.604 20.604 20.604h-99.928c-11.379 0-20.604-9.225-20.604-20.604 0-11.379 9.225-20.604 20.604-20.604h99.928c-11.379.001-20.604 9.225-20.604 20.604z" fill="#938ed9"/></g><g><path d="m405.634 281.7 13.342 93.398h-325.952l13.342-93.398z" fill="#fbf081"/></g><g><path d="m206.659 281.7-13.342 93.398h-100.293l13.343-93.398z" fill="#fad271"/></g><g><path d="m49.964 379.567c0 11.379 9.225 20.604 20.604 20.604h370.865c11.379 0 20.604-9.225 20.604-20.604 0-11.379-9.225-20.604-20.604-20.604h-370.866c-11.379.001-20.603 9.225-20.603 20.604z" fill="#be9edf"/></g><g><path d="m149.891 379.567c0 11.379 9.225 20.604 20.604 20.604h-99.928c-11.379 0-20.604-9.225-20.604-20.604 0-11.379 9.225-20.604 20.604-20.604h99.928c-11.379.001-20.604 9.225-20.604 20.604z" fill="#938ed9"/></g><g><path d="m109.124 150.567 15.359-107.513c3.529-24.704 24.687-43.054 49.643-43.054h163.749c24.955 0 46.113 18.35 49.642 43.055l15.168 106.178-145.581 51.884z" fill="#84dfff"/></g><g><path d="m224.776 43.055-20.025 140.179-95.626-32.666 15.359-107.513c3.528-24.705 24.686-43.055 49.642-43.055h100.293c-24.956 0-46.114 18.35-49.643 43.055z" fill="#2fcffc"/></g><g><path d="m109.124 150.567c11.018-6.249 23.531-11.601 44.963-11.601 51.508 0 51.508 30.905 103.016 30.905 51.511 0 51.511-30.905 103.021-30.905 19.891 0 32.099 4.609 42.56 10.267l16.291 114.036h-325.951z" fill="#fbf081"/></g><g><path d="m154.088 138.966c27.759 0 40.559 8.976 54.522 17.253l-15.293 107.05h-100.293l16.1-112.702c11.018-6.249 23.531-11.601 44.964-11.601z" fill="#fad271"/></g><g><path d="m49.964 267.739c0 11.379 9.225 20.604 20.604 20.604h370.865c11.379 0 20.604-9.225 20.604-20.604 0-11.379-9.225-20.604-20.604-20.604h-370.866c-11.379 0-20.603 9.224-20.603 20.604z" fill="#be9edf"/></g><g><path d="m149.891 267.739c0 11.379 9.225 20.604 20.604 20.604h-99.928c-11.379 0-20.604-9.225-20.604-20.604 0-11.379 9.225-20.604 20.604-20.604h99.928c-11.379 0-20.604 9.225-20.604 20.604z" fill="#938ed9"/></g><g><g><g><ellipse cx="169.623" cy="88.76" fill="#fff" rx="31.872" ry="25.381"/></g><g><ellipse cx="342.377" cy="88.76" fill="#fff" rx="31.872" ry="25.381"/></g><g><ellipse cx="256" cy="69.258" fill="#423e4f" rx="16.918" ry="18.932"/></g></g><g><path d="m174.951 65.632c-4.143 0-7.5-3.358-7.5-7.5v-12.362c0-4.142 3.357-7.5 7.5-7.5s7.5 3.358 7.5 7.5v12.362c0 4.142-3.358 7.5-7.5 7.5z" fill="#423e4f"/></g><g><path d="m337.049 65.632c-4.143 0-7.5-3.358-7.5-7.5v-12.362c0-4.142 3.357-7.5 7.5-7.5s7.5 3.358 7.5 7.5v12.362c0 4.142-3.357 7.5-7.5 7.5z" fill="#423e4f"/></g></g></g></svg>