<svg id="Capa_1" enable-background="new 0 0 512 512" height="512" viewBox="0 0 512 512" width="512" xmlns="http://www.w3.org/2000/svg"><g><g><path d="m491.396 512h-309.054v-432.676h309.054c11.379 0 20.604 9.225 20.604 20.604v391.469c0 11.378-9.225 20.603-20.604 20.603z" fill="#be9edf"/></g><g><path d="m182.342 79.324h209.127v432.676h-209.127z" fill="#938ed9"/></g><g><path d="m450.189 148.635h-200.885c-4.142 0-7.5-3.357-7.5-7.5s3.358-7.5 7.5-7.5h200.886c4.143 0 7.5 3.357 7.5 7.5s-3.358 7.5-7.501 7.5z" fill="#7a7acc"/></g><g><path d="m450.189 210.445h-200.885c-4.142 0-7.5-3.357-7.5-7.5s3.358-7.5 7.5-7.5h200.886c4.143 0 7.5 3.357 7.5 7.5s-3.358 7.5-7.501 7.5z" fill="#7a7acc"/></g><g><path d="m450.189 272.257h-200.885c-4.142 0-7.5-3.357-7.5-7.5s3.358-7.5 7.5-7.5h200.886c4.143 0 7.5 3.357 7.5 7.5s-3.358 7.5-7.501 7.5z" fill="#7a7acc"/></g><g><path d="m450.189 334.067h-200.885c-4.142 0-7.5-3.357-7.5-7.5s3.358-7.5 7.5-7.5h200.886c4.143 0 7.5 3.357 7.5 7.5s-3.358 7.5-7.501 7.5z" fill="#7a7acc"/></g><g><path d="m450.189 395.878h-200.885c-4.142 0-7.5-3.357-7.5-7.5s3.358-7.5 7.5-7.5h200.886c4.143 0 7.5 3.357 7.5 7.5s-3.358 7.5-7.501 7.5z" fill="#7a7acc"/></g><g><path d="m329.658 432.676-147.316 79.324v-119.971z" fill="#2fcffc"/></g><g><path d="m329.658 432.676h-309.054c-11.379 0-20.604-9.224-20.604-20.604v-391.468c0-11.379 9.225-20.604 20.604-20.604h288.451c11.379 0 20.604 9.225 20.604 20.604v412.072z" fill="#fbf081"/></g><g><path d="m61.811 412.072v-391.468c0-11.379 9.224-20.604 20.603-20.604h-61.81c-11.379 0-20.604 9.225-20.604 20.604v391.469c0 11.379 9.225 20.604 20.604 20.604h61.811c-11.38-.001-20.604-9.226-20.604-20.605z" fill="#fad271"/></g><g><g><g><ellipse cx="78.452" cy="366.088" fill="#ffa0ab" rx="31.872" ry="25.381"/></g><g><ellipse cx="251.206" cy="366.088" fill="#ffa0ab" rx="31.872" ry="25.381"/></g><g><ellipse cx="164.829" cy="346.587" fill="#423e4f" rx="16.918" ry="18.932"/></g></g><g><path d="m115.02 342.76c-4.142 0-7.5-3.357-7.5-7.5 0-3.684-2.997-6.681-6.681-6.681s-6.681 2.997-6.681 6.681c0 4.143-3.358 7.5-7.5 7.5s-7.5-3.357-7.5-7.5c0-11.955 9.726-21.681 21.681-21.681s21.681 9.726 21.681 21.681c0 4.142-3.358 7.5-7.5 7.5z" fill="#423e4f"/></g><g><path d="m241.778 342.76c-4.142 0-7.5-3.357-7.5-7.5 0-3.684-2.997-6.681-6.681-6.681s-6.68 2.997-6.68 6.681c0 4.143-3.358 7.5-7.5 7.5s-7.5-3.357-7.5-7.5c0-11.955 9.726-21.681 21.68-21.681s21.681 9.726 21.681 21.681c0 4.142-3.358 7.5-7.5 7.5z" fill="#423e4f"/></g></g><g><path d="m177.457 41.234-9.312.716c-14.387 1.107-25.496 13.103-25.496 27.533v8.211h16.747c15.251 0 27.614-12.363 27.614-27.614-.001-5.168-4.4-9.242-9.553-8.846z" fill="#e7886e"/></g><g><path d="m185.649 68.816-44.361 3.412c-9.245.711-16.383 8.42-16.383 17.692v15.986h79.85v-19.398c-.001-10.337-8.801-18.485-19.106-17.692z" fill="#dc6646"/></g><g><path d="m176.438 69.524-35.15 2.704c-9.245.711-16.383 8.42-16.383 17.692v15.986h35.489v-18.724c-.001-9.158 6.965-16.786 16.044-17.658z" fill="#d85536"/></g><g><path d="m107.16 135.824v-14.621c0-9.272 7.139-16.981 16.383-17.692l79.85-6.142c10.306-.793 19.105 7.356 19.105 17.692v20.763z" fill="#e7886e"/></g><g><path d="m157.878 100.87-34.334 2.641c-9.245.711-16.383 8.42-16.383 17.692v14.621h35.489v-17.393c-.002-8.882 6.55-16.325 15.228-17.561z" fill="#dc6646"/></g><g><path d="m164.829 267.906c-10.536 0-19.83-6.9-22.879-16.985l-34.79-115.097h115.339l-34.791 115.096c-3.049 10.086-12.343 16.986-22.879 16.986z" fill="#ffd3a3"/></g><g><path d="m144.943 135.824h-37.783l34.79 115.096c3.049 10.086 12.342 16.985 22.879 16.985 6.894 0 13.242-2.967 17.671-7.834z" fill="#ffbe74"/></g><g><path d="m450.189 457.689h-58.721c-4.143 0-7.5-3.357-7.5-7.5s3.357-7.5 7.5-7.5h58.721c4.143 0 7.5 3.357 7.5 7.5s-3.357 7.5-7.5 7.5z" fill="#7a7acc"/></g><g><path d="m235.807 143.324h-141.955c-4.142 0-7.5-3.357-7.5-7.5s3.358-7.5 7.5-7.5h141.955c4.142 0 7.5 3.357 7.5 7.5s-3.358 7.5-7.5 7.5z" fill="#f4a960"/></g></g></svg>