<svg id="Capa_1" enable-background="new 0 0 512 512" height="512" viewBox="0 0 512 512" width="512" xmlns="http://www.w3.org/2000/svg"><g><g><path d="m107.498 20.604h297.005v82.414h-297.005z" fill="#fd5c70"/></g><g><path d="m68.922 485.287c6.039 16.074 21.406 26.713 38.576 26.713h297.005c17.17 0 32.537-10.639 38.576-26.713 3.477-9.254 7.355-20.948 11.122-35.098h-396.401c3.767 14.151 7.645 25.844 11.122 35.098z" fill="#ff7591"/></g><g><path d="m443.078 109.127c-6.039-16.073-21.405-26.713-38.576-26.713h-297.004c-17.17 0-32.537 10.639-38.576 26.713-3.477 9.254-7.355 20.948-11.122 35.098h396.4c-3.767-14.15-7.645-25.844-11.122-35.098z" fill="#ff7591"/></g><g><path d="m454.2 144.225-198.2-20.603-198.2 20.603c-9.417 35.375-18.138 86.161-18.138 152.982 0 66.82 8.721 117.606 18.138 152.982l198.2 20.604 198.2-20.604c9.418-35.376 18.138-86.162 18.138-152.982s-8.721-117.606-18.138-152.982z" fill="#fbf081"/></g><g><path d="m57.8 450.189c3.767 14.15 7.645 25.844 11.122 35.098 6.039 16.074 21.406 26.713 38.576 26.713h96.993s-12.014-20.288-23.068-61.811z" fill="#fd5c70"/></g><g><path d="m163.284 297.207c0-75.668 11.182-130.777 21.896-166.224l-127.38 13.242c-9.417 35.375-18.138 86.161-18.138 152.982 0 66.82 8.721 117.606 18.138 152.982l127.38 13.242c-10.714-35.447-21.896-90.556-21.896-166.224z" fill="#fad271"/></g><g><path d="m57.8 450.189 198.2 20.604 198.2-20.604c9.374-35.211 18.054-85.696 18.134-152.058-15.864 6.137-27.283 15.326-37.253 23.35-15.295 12.309-26.344 21.202-51.085 21.202-24.739 0-35.789-8.893-51.082-21.202-16.778-13.503-37.658-30.307-76.92-30.307-39.26 0-60.14 16.805-76.916 30.307-15.293 12.309-26.342 21.202-51.08 21.202s-35.788-8.893-51.08-21.202c-9.97-8.024-21.388-17.213-37.252-23.35.08 66.362 8.76 116.847 18.134 152.058z" fill="#84dfff"/></g><g><path d="m57.8 450.189 127.38 13.242c-8.96-29.644-18.243-73.051-21.044-130.724-9.527 6.132-19.874 9.977-36.138 9.977-24.738 0-35.788-8.893-51.08-21.202-9.97-8.024-21.388-17.213-37.252-23.35.08 66.361 8.76 116.846 18.134 152.057z" fill="#2fcffc"/></g><g><path d="m204.491 82.414h-96.993c-17.17 0-32.537 10.639-38.576 26.713-3.477 9.254-7.355 20.948-11.122 35.098h123.622c11.055-41.523 23.069-61.811 23.069-61.811z" fill="#fd5c70"/></g><g><path d="m70.567 20.604c0-11.379 9.225-20.604 20.604-20.604h329.658c11.379 0 20.604 9.225 20.604 20.604 0 11.379-9.225 20.604-20.604 20.604h-329.658c-11.379-.001-20.604-9.225-20.604-20.604z" fill="#be9edf"/></g><g><path d="m176.287 20.604c0-11.379 9.225-20.604 20.604-20.604h-105.72c-11.379 0-20.604 9.225-20.604 20.604 0 11.379 9.225 20.604 20.604 20.604h105.72c-11.379-.001-20.604-9.225-20.604-20.604z" fill="#938ed9"/></g><g><g><path d="m29.36 144.225c0-11.379 9.225-20.604 20.604-20.604h412.072c11.379 0 20.604 9.225 20.604 20.604 0 11.379-9.225 20.604-20.604 20.604h-412.072c-11.379 0-20.604-9.225-20.604-20.604z" fill="#be9edf"/></g><g><path d="m135.08 144.225c0-11.379 9.225-20.604 20.604-20.604h-105.72c-11.379 0-20.604 9.225-20.604 20.604 0 11.379 9.225 20.604 20.604 20.604h105.72c-11.38 0-20.604-9.225-20.604-20.604z" fill="#938ed9"/></g></g><g><g><path d="m29.36 450.189c0-11.379 9.225-20.604 20.604-20.604h412.072c11.379 0 20.604 9.225 20.604 20.604 0 11.379-9.225 20.604-20.604 20.604h-412.072c-11.379 0-20.604-9.225-20.604-20.604z" fill="#be9edf"/></g><g><path d="m135.08 450.189c0-11.379 9.225-20.604 20.604-20.604h-105.72c-11.379 0-20.604 9.225-20.604 20.604 0 11.379 9.225 20.604 20.604 20.604h105.72c-11.38 0-20.604-9.225-20.604-20.604z" fill="#938ed9"/></g></g><g><g><path d="m326.66 291.174c-11.423 0-21.76-4.772-29.232-12.482-1.428-1.474-1.428-3.866 0-5.339 7.472-7.71 17.809-12.482 29.232-12.482s21.76 4.772 29.233 12.482c1.428 1.474 1.428 3.866 0 5.339-7.472 7.71-17.81 12.482-29.233 12.482z" fill="#17d9bf"/></g></g><g><g><path d="m259.979 224.493c0 11.423 4.772 21.76 12.482 29.232 1.474 1.428 3.866 1.428 5.339 0 7.71-7.472 12.482-17.809 12.482-29.232s-4.772-21.76-12.482-29.233c-1.474-1.428-3.866-1.428-5.339 0-7.71 7.472-12.482 17.81-12.482 29.233z" fill="#50e3cf"/></g></g><g><g><path d="m282.052 224.344c-5.356 12.931-4.801 26.87.423 38.944.998 2.308 3.706 3.429 6.044 2.504 12.231-4.843 22.48-14.307 27.836-27.238s4.801-26.87-.423-38.944c-.998-2.308-3.706-3.429-6.044-2.504-12.23 4.843-22.48 14.307-27.836 27.238z" fill="#17d9bf"/></g></g><g><path d="m326.809 269.101c-12.931 5.356-26.87 4.801-38.944-.423-2.308-.998-3.429-3.706-2.504-6.044 4.843-12.231 14.307-22.48 27.238-27.836s26.87-4.801 38.944.423c2.308.998 3.429 3.706 2.504 6.044-4.843 12.23-14.307 22.48-27.238 27.836z" fill="#50e3cf"/></g><g><path d="m319.211 343.144c18.073-44.02-25.92-85.283-25.92-85.283s-41.263-43.992-85.283-25.92-74.9 127.412-45.555 156.757 138.685-1.534 156.758-45.554z" fill="#ff7591"/></g><g><path d="m247.882 271.815c23.826-9.782 46.839-1.381 62.944 8.385-8.277-13.65-17.535-22.338-17.535-22.338s-41.263-43.992-85.283-25.92c-44.02 18.073-74.9 127.412-45.555 156.757 6.391 6.391 16.576 9.924 28.785 11.088-4.182-43.854 22.21-113.835 56.644-127.972z" fill="#fd5c70"/></g></g></svg>